<svg xmlns="http://www.w3.org/2000/svg" width="325.002" height="200" viewBox="0 0 325.002 200">
  <g id="Group_61" data-name="Group 61" transform="translate(318 -78.797)">
    <g id="Group_61-2" data-name="Group 61" transform="translate(-318 78.797)">
      <ellipse id="Ellipse_45" data-name="Ellipse 45" cx="29.373" cy="28.1" rx="29.373" ry="28.1" transform="translate(43.506 76.55)" fill="#2f2e41"/>
      <g id="Path_1178" data-name="Path 1178" transform="translate(-316.407 -354.266)" fill="#e4e4e4">
        <path d="M 390.7335205078125 551.3500366210938 L 390.2335205078125 551.3500366210938 L 388.5753479003906 551.3500366210938 L 388.0753479003906 551.3500366210938 L 388.0753479003906 550.8500366210938 L 388.0753479003906 506.3843383789062 L 380.2215270996094 501.7286376953125 C 379.4407653808594 501.2657775878906 378.8740234375 500.5428466796875 378.6257019042969 499.6930236816406 L 378.4701843261719 499.1607055664062 L 379.0157165527344 499.0609436035156 C 379.2391967773438 499.0201110839844 379.4678344726562 498.9993591308594 379.6952209472656 498.9993591308594 C 380.3700561523438 498.9993591308594 381.0304870605469 499.1794128417969 381.6051025390625 499.52001953125 L 388.0755920410156 503.3558044433594 L 388.0755920410156 475.56494140625 L 380.2215270996094 470.9092102050781 C 379.4407653808594 470.4463500976562 378.8740234375 469.7234191894531 378.6257019042969 468.8735961914062 L 378.4701843261719 468.3412475585938 L 379.0157470703125 468.2415161132812 C 379.2392272949219 468.20068359375 379.4678039550781 468.1799621582031 379.6951904296875 468.1799621582031 C 380.3699951171875 468.1799621582031 381.0303649902344 468.3599853515625 381.6049194335938 468.7005615234375 L 388.0753784179688 472.5363464355469 L 388.0753784179688 462.1867370605469 C 388.0753784179688 459.9742126464844 388.3598022460938 457.7640075683594 388.9207153320312 455.6175842285156 L 389.4044494628906 453.7664489746094 L 389.8882141113281 455.6175537109375 C 390.4491271972656 457.7639465332031 390.7335510253906 459.97412109375 390.7335510253906 462.1867370605469 L 390.7335510253906 479.6340026855469 L 400.6380920410156 473.7625122070312 C 401.5423278808594 473.2264709472656 402.5819091796875 472.9431457519531 403.6444702148438 472.9431457519531 C 403.6757202148438 472.9431457519531 403.706787109375 472.9433898925781 403.7380676269531 472.9438781738281 L 404.5318908691406 472.9563598632812 L 404.1777038574219 473.6668701171875 C 403.7028503417969 474.6195678710938 402.9572143554688 475.4163513183594 402.0214538574219 475.9711303710938 L 390.7335205078125 482.6626586914062 L 390.7335205078125 550.8500366210938 L 390.7335205078125 551.3500366210938 Z" stroke="none"/>
        <path d="M 389.4044494628906 455.7440185546875 C 388.8538208007812 457.85107421875 388.5753784179688 460.0148315429688 388.5753784179688 462.186767578125 L 388.5753784179688 473.4140014648438 L 381.3499755859375 469.1306762695312 C 380.6803894042969 468.7337646484375 379.8793640136719 468.5919799804688 379.1056518554688 468.7333984375 C 379.3176879882812 469.4591064453125 379.8069458007812 470.0821533203125 380.4765014648438 470.4791259765625 L 388.5755920410156 475.2800903320312 L 388.5755920410156 504.2334594726562 L 381.3501586914062 499.9501342773438 C 380.6805419921875 499.55322265625 379.8794555664062 499.4112548828125 379.1056518554688 499.5527954101562 C 379.3176879882812 500.2785034179688 379.8069458007812 500.901611328125 380.4765014648438 501.2985229492188 L 388.5753479003906 506.0994873046875 L 388.5753479003906 550.8500366210938 L 390.2335205078125 550.8500366210938 L 390.2335205078125 482.3778076171875 L 401.7664794921875 475.541015625 C 402.6176147460938 475.0364379882812 403.2992553710938 474.3084716796875 403.730224609375 473.44384765625 C 402.7297668457031 473.4265747070312 401.7442321777344 473.6880493164062 400.89306640625 474.192626953125 L 390.2335510253906 480.5116577148438 L 390.2335510253906 462.186767578125 C 390.2335510253906 460.0147705078125 389.9551086425781 457.85107421875 389.4044494628906 455.7440185546875 M 389.4044189453125 451.7889404296875 L 390.3719482421875 455.4911499023438 C 390.9436645507812 457.6787719726562 391.2335510253906 459.9315185546875 391.2335510253906 462.186767578125 L 391.2335510253906 478.75634765625 L 400.3831176757812 473.3323974609375 C 401.3931579589844 472.7335205078125 402.5579223632812 472.4247436523438 403.7459106445312 472.4439697265625 L 405.3335266113281 472.4688720703125 L 404.6252136230469 473.8899536132812 C 404.1073303222656 474.928955078125 403.2951354980469 475.7973022460938 402.2764282226562 476.4012451171875 L 391.2335205078125 482.947509765625 L 391.2335205078125 551.8500366210938 L 387.5753479003906 551.8500366210938 L 387.5753479003906 506.669189453125 L 379.966552734375 502.1587524414062 C 379.0763854980469 501.6310424804688 378.4297485351562 500.80517578125 378.1457824707031 499.833251953125 L 377.8346862792969 498.7685546875 L 378.9258117675781 498.569091796875 C 379.1789245605469 498.5228271484375 379.4377746582031 498.4993591308594 379.6951904296875 498.4993591308594 C 380.4596862792969 498.4993591308594 381.2083129882812 498.7035827636719 381.8600769042969 499.0899047851562 L 387.5755920410156 502.4781494140625 L 387.5755920410156 475.8497924804688 L 379.9665832519531 471.33935546875 C 379.0763244628906 470.8115234375 378.4297180175781 469.9856567382812 378.1457824707031 469.0138549804688 L 377.834716796875 467.94921875 L 378.92578125 467.7496948242188 C 379.1788940429688 467.7034301757812 379.4377746582031 467.6799926757812 379.6952819824219 467.6799926757812 C 380.4596862792969 467.6799926757812 381.2082214355469 467.8841552734375 381.8598937988281 468.2704467773438 L 387.5753784179688 471.65869140625 L 387.5753784179688 462.186767578125 C 387.5753784179688 459.9315795898438 387.8652648925781 457.6788940429688 388.4369506835938 455.4911499023438 L 389.4044189453125 451.7889404296875 Z" stroke="none" fill="#2f2e41"/>
      </g>
      <ellipse id="Ellipse_46" data-name="Ellipse 46" cx="29.373" cy="28.1" rx="29.373" ry="28.1" transform="translate(0 78.936)" fill="#2f2e41"/>
      <g id="Path_1179" data-name="Path 1179" transform="translate(-206.1 -360.133)" fill="#e4e4e4">
        <path d="M 236.6842803955078 557.3683471679688 L 236.1842803955078 557.3683471679688 L 234.5261383056641 557.3683471679688 L 234.0261383056641 557.3683471679688 L 234.0261383056641 556.8683471679688 L 234.0261383056641 490.9155578613281 L 222.7382354736328 484.2240295410156 C 221.8023223876953 483.6691589355469 221.0567016601562 482.8723449707031 220.5819396972656 481.9197082519531 L 220.2278594970703 481.209228515625 L 221.0215911865234 481.1967468261719 C 221.0528717041016 481.1962585449219 221.0840301513672 481.1960144042969 221.1152648925781 481.1960144042969 C 222.1776885986328 481.1960144042969 223.2172393798828 481.4793395996094 224.1215667724609 482.0153503417969 L 234.0260620117188 487.886962890625 L 234.0260620117188 470.4397277832031 C 234.0260620117188 468.2270812988281 234.3104858398438 466.0169067382812 234.8714141845703 463.8705444335938 L 235.3551940917969 462.0194091796875 L 235.8389129638672 463.8705444335938 C 236.3998413085938 466.0169982910156 236.6842346191406 468.2271728515625 236.6842346191406 470.4397277832031 L 236.6842346191406 480.7891845703125 L 243.1547088623047 476.9534606933594 C 243.7292327880859 476.6128845214844 244.3896484375 476.432861328125 245.0645446777344 476.432861328125 C 245.2918548583984 476.432861328125 245.5204010009766 476.4535522460938 245.7438201904297 476.494384765625 L 246.2894287109375 476.5940551757812 L 246.1339111328125 477.1264343261719 C 245.8856353759766 477.9762573242188 245.3188934326172 478.69921875 244.5380859375 479.1620788574219 L 236.6842803955078 483.8179016113281 L 236.6842803955078 511.6086730957031 L 243.1547546386719 507.7730407714844 C 243.7292938232422 507.4324035644531 244.3897399902344 507.2523193359375 245.0646514892578 507.2523193359375 C 245.2919464111328 507.2523193359375 245.5204467773438 507.2730102539062 245.7438201904297 507.3138427734375 L 246.2894287109375 507.4135131835938 L 246.1339111328125 507.9458923339844 C 245.8856506347656 508.7957153320312 245.3189239501953 509.5186462402344 244.5380859375 509.9815368652344 L 236.6842803955078 514.6373291015625 L 236.6842803955078 556.8683471679688 L 236.6842803955078 557.3683471679688 Z" stroke="none"/>
        <path d="M 235.3551635742188 463.9969482421875 C 234.8045043945312 466.10400390625 234.5260620117188 468.2677612304688 234.5260620117188 470.4397583007812 L 234.5260620117188 488.7645874023438 L 223.8666076660156 482.4454956054688 C 223.0154418945312 481.9409790039062 222.0307312011719 481.6826171875 221.0294494628906 481.6967163085938 C 221.4603881835938 482.5613403320312 222.1420288085938 483.2892456054688 222.9931945800781 483.7938842773438 L 234.5261383056641 490.6306762695312 L 234.5261383056641 556.8683471679688 L 236.1842803955078 556.8683471679688 L 236.1842803955078 514.3524780273438 L 244.2831115722656 509.5514221191406 C 244.9526824951172 509.1545104980469 245.4419555664062 508.5314331054688 245.6539611816406 507.8057250976562 C 244.8802337646484 507.6644897460938 244.0792541503906 507.80615234375 243.4097290039062 508.2031860351562 L 243.4097137451172 508.2031860351562 L 236.1842803955078 512.486328125 L 236.1842803955078 483.5330200195312 L 244.2831115722656 478.7319946289062 C 244.9526672363281 478.3350219726562 245.4419403076172 477.7119750976562 245.6539611816406 476.9862670898438 C 244.8802490234375 476.8447875976562 244.0792388916016 476.986572265625 243.40966796875 477.3836059570312 L 236.1842346191406 481.6668090820312 L 236.1842346191406 470.4397583007812 C 236.1842346191406 468.2677612304688 235.9057922363281 466.1040649414062 235.3551635742188 463.9969482421875 M 235.355224609375 460.0418701171875 L 236.3226776123047 463.744140625 C 236.8943634033203 465.9318237304688 237.1842346191406 468.1845703125 237.1842346191406 470.4397583007812 L 237.1842346191406 479.9114990234375 L 242.8997497558594 476.5233764648438 C 243.5513153076172 476.1370849609375 244.2998962402344 475.932861328125 245.0644836425781 475.932861328125 C 245.3218994140625 475.932861328125 245.5807037353516 475.956298828125 245.8336944580078 476.0025634765625 L 246.9248962402344 476.201904296875 L 246.6138305664062 477.2666625976562 C 246.3299102783203 478.238525390625 245.6833038330078 479.0643920898438 244.7930908203125 479.5921630859375 L 237.1842803955078 484.1027221679688 L 237.1842803955078 510.7310485839844 L 242.8997955322266 507.3429565429688 C 243.5514373779297 506.9566040039062 244.3000793457031 506.7523803710938 245.0646667480469 506.7523803710938 C 245.3219604492188 506.7523803710938 245.5806732177734 506.7757568359375 245.8336486816406 506.822021484375 L 246.9248962402344 507.0213623046875 L 246.6138305664062 508.0861206054688 C 246.3299102783203 509.0580444335938 245.6832733154297 509.8839111328125 244.7930297851562 510.4116516113281 L 237.1842803955078 514.9221801757812 L 237.1842803955078 557.8683471679688 L 233.5261383056641 557.8683471679688 L 233.5261383056641 491.2003784179688 L 222.4832611083984 484.6541137695312 C 221.4644470214844 484.050048828125 220.6522521972656 483.1817016601562 220.1344604492188 482.142822265625 L 219.4261627197266 480.7217407226562 L 221.0137481689453 480.6968383789062 C 222.2007751464844 480.6781005859375 223.3662261962891 480.9863891601562 224.3765106201172 481.5852661132812 L 233.5260620117188 487.00927734375 L 233.5260620117188 470.4397583007812 C 233.5260620117188 468.1844482421875 233.8159484863281 465.9317016601562 234.3876647949219 463.7440795898438 L 235.355224609375 460.0418701171875 Z" stroke="none" fill="#2f2e41"/>
      </g>
      <ellipse id="Ellipse_47" data-name="Ellipse 47" cx="50.574" cy="48.381" rx="50.574" ry="48.381" transform="translate(0.137)" fill="#2f2e41"/>
      <g id="Path_1180" data-name="Path 1180" transform="translate(-231.298 -210.265)" fill="#e4e4e4">
        <path d="M 283.7320556640625 407.6063232421875 L 283.2320556640625 407.6063232421875 L 280.3771362304688 407.6063232421875 L 279.8771362304688 407.6063232421875 L 279.8771362304688 407.1063232421875 L 279.8771362304688 299.3254089355469 L 260.265380859375 287.6994323730469 C 258.7139587402344 286.7797546386719 257.4782409667969 285.4595336914062 256.6918029785156 283.8815002441406 L 256.3376770019531 283.1709899902344 L 257.1314392089844 283.1585388183594 C 257.1833190917969 283.15771484375 257.23486328125 283.1573181152344 257.2866821289062 283.1573181152344 C 259.0515441894531 283.1573181152344 260.7779235839844 283.6277160644531 262.2790832519531 284.5176086425781 L 279.8771057128906 294.9501037597656 L 279.8771057128906 264.2769470214844 C 279.8771362304688 260.4981384277344 280.3628845214844 256.7234497070312 281.3208618164062 253.0577697753906 L 281.8046569824219 251.2066192626953 L 282.2883911132812 253.0577697753906 C 283.246337890625 256.7236328125 283.7320556640625 260.4983215332031 283.7320556640625 264.2769470214844 L 283.7320556640625 282.7294311523438 L 295.41748046875 275.8023071289062 C 296.3510437011719 275.2488708496094 297.4244689941406 274.9563293457031 298.5216979980469 274.9563293457031 C 298.8913879394531 274.9563293457031 299.2630615234375 274.989990234375 299.6263427734375 275.056396484375 L 300.1719360351562 275.1560974121094 L 300.0164184570312 275.6884765625 C 299.6146850585938 277.0635375976562 298.6965637207031 278.2339782714844 297.43115234375 278.984130859375 L 283.7320556640625 287.1050109863281 L 283.7320556640625 335.7926330566406 L 295.41748046875 328.865478515625 C 296.3509521484375 328.3121032714844 297.4242858886719 328.0195922851562 298.5214538574219 328.0195922851562 C 298.8912048339844 328.0195922851562 299.2629089355469 328.0532836914062 299.6262817382812 328.1196899414062 L 300.171875 328.2193908691406 L 300.016357421875 328.7517700195312 C 299.6146240234375 330.1268920898438 298.6965026855469 331.2972717285156 297.4311218261719 332.0473937988281 L 283.7320556640625 340.1681518554688 L 283.7320556640625 407.1063232421875 L 283.7320556640625 407.6063232421875 Z" stroke="none"/>
        <path d="M 281.8046264648438 253.1841735839844 C 280.8565368652344 256.81201171875 280.3771362304688 260.5374145507812 280.3771057128906 264.2769470214844 L 280.3771057128906 295.8277893066406 L 262.0241394042969 284.9477233886719 C 260.5586547851562 284.0789489746094 258.8633117675781 283.6317749023438 257.1392822265625 283.6584777832031 C 257.8812561035156 285.147216796875 259.0548706054688 286.4005737304688 260.5203247070312 287.2693176269531 L 280.3771362304688 299.0405883789062 L 280.3771362304688 407.1063232421875 L 283.2320556640625 407.1063232421875 L 283.2320556640625 339.8833312988281 L 297.1761474609375 331.6172790527344 C 298.3289794921875 330.9338989257812 299.1713562011719 329.8611145019531 299.5364074707031 328.6115417480469 L 299.5364379882812 328.6115417480469 L 299.5364074707031 328.6115417480469 C 298.2043151855469 328.3680419921875 296.8251953125 328.6122131347656 295.6724243164062 329.2955627441406 L 283.2320556640625 336.6702880859375 L 283.2320556640625 286.8201599121094 L 297.1761779785156 278.5540161132812 C 298.3290100097656 277.87060546875 299.1714172363281 276.7978210449219 299.5364685058594 275.5482788085938 L 299.5364990234375 275.5482482910156 L 299.5364685058594 275.5482482910156 C 298.2042236328125 275.3047180175781 296.8252258300781 275.5490112304688 295.6724243164062 276.2323913574219 L 283.2320556640625 283.6070861816406 L 283.2320556640625 264.2769470214844 C 283.2320556640625 260.5375061035156 282.7526550292969 256.8120727539062 281.8046264648438 253.1841735839844 M 281.8046569824219 249.2290344238281 L 282.7721557617188 252.9313354492188 C 283.7408752441406 256.6384582519531 284.2320556640625 260.4556884765625 284.2320556640625 264.2769470214844 L 284.2320556640625 281.8517761230469 L 295.1624755859375 275.3721618652344 C 296.1731872558594 274.7730102539062 297.3347778320312 274.4563293457031 298.5216979980469 274.4563293457031 C 298.9214477539062 274.4563293457031 299.3233642578125 274.4927368164062 299.7162170410156 274.5645141601562 L 300.8074035644531 274.763916015625 L 300.496337890625 275.8286743164062 C 300.0589599609375 277.3258666992188 299.0609130859375 278.5992126464844 297.6860961914062 279.4142150878906 L 284.2320556640625 287.3898620605469 L 284.2320556640625 334.9149780273438 L 295.1624755859375 328.4353332519531 C 296.1731262207031 327.8362731933594 297.3346252441406 327.5195922851562 298.5214538574219 327.5195922851562 C 298.9213562011719 327.5196228027344 299.3233032226562 327.5560302734375 299.7161560058594 327.6278381347656 L 300.807373046875 327.8272399902344 L 300.4962768554688 328.8919677734375 C 300.0588989257812 330.3891906738281 299.0608825683594 331.6625366210938 297.6860656738281 332.4775085449219 L 284.2320556640625 340.4530334472656 L 284.2320556640625 408.1063232421875 L 279.3771362304688 408.1063232421875 L 279.3771362304688 299.6102905273438 L 260.0103759765625 288.1295471191406 C 258.3760375976562 287.16064453125 257.07373046875 285.7688293457031 256.2442932128906 284.1045532226562 L 255.5361938476562 282.6837463378906 L 257.1234436035156 282.6585998535156 C 259.0348815917969 282.6278991699219 260.9093627929688 283.1243896484375 262.5340576171875 284.0874938964844 L 279.3771057128906 294.0724487304688 L 279.3771057128906 264.2769470214844 C 279.3771362304688 260.4554748535156 279.8683471679688 256.6382751464844 280.8371276855469 252.9313354492188 L 281.8046569824219 249.2290344238281 Z" stroke="none" fill="#2f2e41"/>
      </g>
    </g>
    <path id="Path_1200" data-name="Path 1200" d="M0,0,13.962-.485l-.485,14.521-13.962.485Z" transform="translate(-66.55 159.148) rotate(-30)" fill="#e4e4e4"/>
    <path id="Path_1181" data-name="Path 1181" d="M808.92,433.21l-7.143-13.385,12.372-7.728,7.143,13.385ZM802.6,420.064l6.539,12.252,11.325-7.074-6.539-12.252Z" transform="translate(-863.472 -258.573)" fill="#2f2e41"/>
    <rect id="Rectangle_56" data-name="Rectangle 56" width="319.11" height="0.899" transform="translate(-312.108 276.224)" fill="#2f2e41"/>
    <ellipse id="Ellipse_48" data-name="Ellipse 48" cx="5.742" cy="6.212" rx="5.742" ry="6.212" transform="translate(-71.378 198.182)" fill="#e4e4e4"/>
    <path id="Path_1182" data-name="Path 1182" d="M788.779,560.769a6.559,6.559,0,1,1,6.044-6.539A6.306,6.306,0,0,1,788.779,560.769Zm0-12.423a5.9,5.9,0,1,0,5.439,5.885A5.675,5.675,0,0,0,788.779,548.346Z" transform="translate(-850.184 -349.838)" fill="#2f2e41"/>
    <path id="Path_1183" data-name="Path 1183" d="M774.269,662.734h-55.6a2.683,2.683,0,0,1-2.569-2.779v-55.9a2.683,2.683,0,0,1,2.569-2.779h55.6a2.683,2.683,0,0,1,2.569,2.779v55.9a2.683,2.683,0,0,1-2.569,2.779Z" transform="translate(-803.684 -385.901)" fill="#e4e4e4" stroke="#3f3d56" stroke-width="1"/>
    <path id="Path_1184" data-name="Path 1184" d="M805.522,661.278h-7.857A2.683,2.683,0,0,1,795.1,658.5V598.971a2.683,2.683,0,0,1,2.569-2.779h7.857a2.683,2.683,0,0,1,2.569,2.779V658.5a2.683,2.683,0,0,1-2.569,2.779Z" transform="translate(-858.81 -382.482)" fill="#3f3d56"/>
    <path id="Path_1185" data-name="Path 1185" d="M925.418,561.9c-.325,5.767-7.526,9.985-7.526,9.985s-6.674-5.133-6.349-10.9,7.526-9.985,7.526-9.985S925.743,556.138,925.418,561.9Z" transform="translate(-940.059 -352.068)" fill="#3f3d56"/>
    <path id="Path_1186" data-name="Path 1186" d="M937.2,608.451c-5.332-.333-9.253-8.11-9.253-8.11s4.723-7.237,10.055-6.9,9.253,8.11,9.253,8.11S942.528,608.785,937.2,608.451Z" transform="translate(-951.512 -380.62)" fill="#3f3d56"/>
    <path id="Path_1187" data-name="Path 1187" d="M699.661,503.725v21.342L680.04,497.049h14.946Z" transform="translate(-726.659 -281.514)" opacity="0.1"/>
    <path id="Path_1188" data-name="Path 1188" d="M871.385,592.164a2.5,2.5,0,0,1-2.05-1.1l-40.879-58.37a2.932,2.932,0,0,1,.5-3.893l6.022-4.936a2.442,2.442,0,0,1,3.6.537l40.879,58.37a2.932,2.932,0,0,1-.5,3.893l-6.022,4.936a2.431,2.431,0,0,1-1.548.563Z" transform="translate(-881.725 -333.421)" fill="#e4e4e4" stroke="#3f3d56" stroke-width="1"/>
    <path id="Path_1201" data-name="Path 1201" d="M0,0,13.382-.512l-.512,13.67L-.512,13.67Z" transform="translate(-37.06 221.879) rotate(-37.15)" fill="#3f3d56"/>
    <path id="Path_1202" data-name="Path 1202" d="M0,0,14.726-.28l-.28,13.757-14.726.28Z" transform="matrix(0.259, -0.966, 0.966, 0.259, -83.522, 184.985)" fill="#e4e4e4"/>
    <path id="Path_1189" data-name="Path 1189" d="M722.862,487.615l-13.8-4,3.7-14.929,13.8,4ZM709.8,483.152l12.632,3.662,3.385-13.666-12.632-3.662Z" transform="translate(-798.776 -296.66)" fill="#2f2e41"/>
    <path id="Path_1190" data-name="Path 1190" d="M532.192,521.367a3.89,3.89,0,0,0,1.053-2.935,3.807,3.807,0,0,0-1.4-2.758l-5.549-48.4-7.17,2.306,7.741,47.1a3.954,3.954,0,0,0,.742,4.9A3.267,3.267,0,0,0,532.192,521.367Z" transform="translate(-684.364 -295.713)" fill="#ffb8b8"/>
    <path id="Path_1191" data-name="Path 1191" d="M412.742,633.463h4.194l2-17.5h-6.19Z" transform="translate(-558.268 -361.552)" fill="#ffb8b8"/>
    <path id="Path_1192" data-name="Path 1192" d="M0,0H13.18V5.509H4.626A4.827,4.827,0,0,1,0,.5V0Z" transform="translate(-133.245 276.123) rotate(180)" fill="#2f2e41"/>
    <path id="Path_1193" data-name="Path 1193" d="M316.779,614.108l3.931,1.582,7.509-15.648-5.8-2.335Z" transform="translate(-491.304 -349.264)" fill="#ffb8b8"/>
    <path id="Path_1194" data-name="Path 1194" d="M0,0,13.311.352l.136,5.458L4.809,5.582A5.132,5.132,0,0,1,.012.5L0,0Z" transform="translate(-164.372 273.425) rotate(-159.596)" fill="#2f2e41"/>
    <ellipse id="Ellipse_49" data-name="Ellipse 49" cx="7.929" cy="8.578" rx="7.929" ry="8.578" transform="translate(-160.978 141.845)" fill="#ffb8b8"/>
    <path id="Path_1195" data-name="Path 1195" d="M492.907,447.587c-.248-7.9,7.428-13.383,13.886-9.683.823.471,9.319,8.28,9.639,13.13s.961,12.817.961,12.817l8.965,72.4-19.211-1.039,2.32-21.119-12.487,21.476-15.127-5.207,18.571-57.847S493.283,459.561,492.907,447.587Z" transform="translate(-658.358 -275.147)" fill="#2f2e41"/>
    <path id="Path_1196" data-name="Path 1196" d="M518.93,476.768l1.234,17.35a.69.69,0,0,0,.665.666h5.428a.655.655,0,0,0,.555-.321.772.772,0,0,0,.061-.677l-6.661-17.349a.656.656,0,0,0-.771-.425A.717.717,0,0,0,518.93,476.768Z" transform="translate(-684.23 -301.578)" fill="#faae17"/>
    <path id="Path_1197" data-name="Path 1197" d="M568.264,514.475a3.946,3.946,0,0,0,.728-3.049,3.721,3.721,0,0,0-1.693-2.561l-10.746-47.36-6.871,3.2L562.463,510.5a3.916,3.916,0,0,0,1.267,4.777,3.283,3.283,0,0,0,4.534-.8Z" transform="translate(-705.689 -291.828)" fill="#ffb8b8"/>
    <path id="Path_1198" data-name="Path 1198" d="M550.541,446.265s-2.241,4.849,0,13.509,3.842,15.934,3.842,15.934,5.123-3.464,7.364-2.425S558.2,450.2,558.2,450.2,554.7,442.109,550.541,446.265Z" transform="translate(-705.594 -280.771)" fill="#faae17"/>
    <path id="Path_1199" data-name="Path 1199" d="M526.45,374.16c.107-1.78,2.183-1.841,3.831-1.858s3.62.047,4.553-1.424a3.56,3.56,0,0,0-.011-3.363,9.345,9.345,0,0,0-2.171-2.615,30.216,30.216,0,0,0-6.876-5.24,10.273,10.273,0,0,0-8.2-.766c-3.255,1.256-7.654,7.724-8.034,11.44a14.165,14.165,0,0,0,3.307,10.281c2.314,2.777,7.61,1.656,10.943,2.644-2.026-3.1-.691-8.74,2.555-10.188Z" transform="translate(-677.638 -222.397)" fill="#2f2e41"/>
  </g>
</svg>
