<svg xmlns="http://www.w3.org/2000/svg" width="325.002" height="200" viewBox="0 0 325.002 200">
  <g id="Group_61" data-name="Group 61" transform="translate(318 -78.797)">
    <g id="Group_61-2" data-name="Group 61" transform="translate(-318 78.797)">
      <ellipse id="Ellipse_45" data-name="Ellipse 45" cx="29.373" cy="28.1" rx="29.373" ry="28.1" transform="translate(43.506 76.55)" fill="#e6e6e6"/>
      <path id="Path_1178" data-name="Path 1178" d="M381.35,499.95l7.225,4.283V475.28l-8.1-4.8a3.023,3.023,0,0,1-1.371-1.746h0a3.261,3.261,0,0,1,2.244.4l7.225,4.283V462.187a25.475,25.475,0,0,1,.829-6.443,25.473,25.473,0,0,1,.829,6.443v18.325l10.66-6.319a5.4,5.4,0,0,1,2.837-.749,5.081,5.081,0,0,1-1.964,2.1l-11.533,6.837V550.85h-1.658V506.1l-8.1-4.8a3.023,3.023,0,0,1-1.371-1.746h0A3.261,3.261,0,0,1,381.35,499.95Z" transform="translate(-316.407 -354.266)" fill="#ccc"/>
      <ellipse id="Ellipse_46" data-name="Ellipse 46" cx="29.373" cy="28.1" rx="29.373" ry="28.1" transform="translate(0 78.936)" fill="#e6e6e6"/>
      <path id="Path_1179" data-name="Path 1179" d="M243.41,508.2l-7.225,4.283V483.533l8.1-4.8a3.023,3.023,0,0,0,1.371-1.746h0a3.262,3.262,0,0,0-2.244.4l-7.225,4.283V470.44a25.474,25.474,0,0,0-.829-6.443,25.473,25.473,0,0,0-.829,6.443v18.325l-10.659-6.319a5.4,5.4,0,0,0-2.837-.749,5.081,5.081,0,0,0,1.964,2.1l11.533,6.837v66.238h1.658V514.352l8.1-4.8a3.023,3.023,0,0,0,1.371-1.746h0a3.261,3.261,0,0,0-2.244.4Z" transform="translate(-206.1 -360.133)" fill="#ccc"/>
      <ellipse id="Ellipse_47" data-name="Ellipse 47" cx="50.574" cy="48.381" rx="50.574" ry="48.381" transform="translate(0.137)" fill="#e6e6e6"/>
      <path id="Path_1180" data-name="Path 1180" d="M295.672,329.3l-12.44,7.375V286.82l13.944-8.266a5.2,5.2,0,0,0,2.36-3.006h0a5.615,5.615,0,0,0-3.864.684l-12.44,7.375v-19.33a43.862,43.862,0,0,0-1.427-11.093,43.86,43.86,0,0,0-1.428,11.093v31.551l-18.353-10.88a9.3,9.3,0,0,0-4.885-1.289,8.747,8.747,0,0,0,3.381,3.611l19.857,11.771V407.106h2.855V339.883l13.944-8.266a5.2,5.2,0,0,0,2.36-3.006h0A5.615,5.615,0,0,0,295.672,329.3Z" transform="translate(-231.298 -210.265)" fill="#ccc"/>
    </g>
    <rect id="Rectangle_56" data-name="Rectangle 56" width="319.11" height="0.899" transform="translate(-312.108 275.224)" fill="#3f3d56" opacity="0.5"/>
    <path id="Path_1200" data-name="Path 1200" d="M0,0,13.962-.485l-.485,14.521-13.962.485Z" transform="translate(-66.55 159.148) rotate(-30)" fill="#faae17"/>
    <path id="Path_1181" data-name="Path 1181" d="M808.92,433.21l-7.143-13.385,12.372-7.728,7.143,13.385ZM802.6,420.064l6.539,12.252,11.325-7.074-6.539-12.252Z" transform="translate(-863.472 -258.573)" fill="#2f2e41"/>
    <ellipse id="Ellipse_48" data-name="Ellipse 48" cx="5.742" cy="6.212" rx="5.742" ry="6.212" transform="translate(-71.378 198.182)" fill="#faae17"/>
    <path id="Path_1182" data-name="Path 1182" d="M788.779,560.769a6.559,6.559,0,1,1,6.044-6.539A6.306,6.306,0,0,1,788.779,560.769Zm0-12.423a5.9,5.9,0,1,0,5.439,5.885A5.675,5.675,0,0,0,788.779,548.346Z" transform="translate(-850.184 -349.838)" fill="#2f2e41"/>
    <path id="Path_1183" data-name="Path 1183" d="M774.269,662.734h-55.6a2.683,2.683,0,0,1-2.569-2.779v-55.9a2.683,2.683,0,0,1,2.569-2.779h55.6a2.683,2.683,0,0,1,2.569,2.779v55.9a2.683,2.683,0,0,1-2.569,2.779Z" transform="translate(-803.684 -385.901)" fill="#faae17"/>
    <path id="Path_1184" data-name="Path 1184" d="M805.522,661.278h-7.857A2.683,2.683,0,0,1,795.1,658.5V598.971a2.683,2.683,0,0,1,2.569-2.779h7.857a2.683,2.683,0,0,1,2.569,2.779V658.5a2.683,2.683,0,0,1-2.569,2.779Z" transform="translate(-858.81 -382.482)" fill="#3f3d56"/>
    <path id="Path_1185" data-name="Path 1185" d="M925.418,561.9c-.325,5.767-7.526,9.985-7.526,9.985s-6.674-5.133-6.349-10.9,7.526-9.985,7.526-9.985S925.743,556.138,925.418,561.9Z" transform="translate(-940.059 -352.068)" fill="#3f3d56"/>
    <path id="Path_1186" data-name="Path 1186" d="M937.2,608.451c-5.332-.333-9.253-8.11-9.253-8.11s4.723-7.237,10.055-6.9,9.253,8.11,9.253,8.11S942.528,608.785,937.2,608.451Z" transform="translate(-951.512 -380.62)" fill="#3f3d56"/>
    <path id="Path_1187" data-name="Path 1187" d="M699.661,503.725v21.342L680.04,497.049h14.946Z" transform="translate(-726.659 -281.514)" opacity="0.1"/>
    <path id="Path_1188" data-name="Path 1188" d="M871.385,592.164a2.5,2.5,0,0,1-2.05-1.1l-40.879-58.37a2.932,2.932,0,0,1,.5-3.893l6.022-4.936a2.442,2.442,0,0,1,3.6.537l40.879,58.37a2.932,2.932,0,0,1-.5,3.893l-6.022,4.936a2.431,2.431,0,0,1-1.548.563Z" transform="translate(-881.725 -333.421)" fill="#faae17"/>
    <path id="Path_1201" data-name="Path 1201" d="M0,0,13.382-.512l-.512,13.67L-.512,13.67Z" transform="translate(-37.06 221.879) rotate(-37.15)" fill="#3f3d56"/>
    <path id="Path_1202" data-name="Path 1202" d="M0,0,14.726-.28l-.28,13.757-14.726.28Z" transform="matrix(0.259, -0.966, 0.966, 0.259, -83.522, 184.985)" fill="#faae17"/>
    <path id="Path_1189" data-name="Path 1189" d="M722.862,487.615l-13.8-4,3.7-14.929,13.8,4ZM709.8,483.152l12.632,3.662,3.385-13.666-12.632-3.662Z" transform="translate(-798.776 -296.66)" fill="#2f2e41"/>
    <path id="Path_1190" data-name="Path 1190" d="M532.192,521.367a3.89,3.89,0,0,0,1.053-2.935,3.807,3.807,0,0,0-1.4-2.758l-5.549-48.4-7.17,2.306,7.741,47.1a3.954,3.954,0,0,0,.742,4.9A3.267,3.267,0,0,0,532.192,521.367Z" transform="translate(-684.364 -295.713)" fill="#ffb8b8"/>
    <path id="Path_1191" data-name="Path 1191" d="M412.742,633.463h4.194l2-17.5h-6.19Z" transform="translate(-558.268 -361.552)" fill="#ffb8b8"/>
    <path id="Path_1192" data-name="Path 1192" d="M0,0H13.18V5.509H4.626A4.827,4.827,0,0,1,0,.5V0Z" transform="translate(-133.245 276.123) rotate(180)" fill="#2f2e41"/>
    <path id="Path_1193" data-name="Path 1193" d="M316.779,614.108l3.931,1.582,7.509-15.648-5.8-2.335Z" transform="translate(-491.304 -349.264)" fill="#ffb8b8"/>
    <path id="Path_1194" data-name="Path 1194" d="M0,0,13.311.352l.136,5.458L4.809,5.582A5.132,5.132,0,0,1,.012.5L0,0Z" transform="translate(-164.372 273.425) rotate(-159.596)" fill="#2f2e41"/>
    <ellipse id="Ellipse_49" data-name="Ellipse 49" cx="7.929" cy="8.578" rx="7.929" ry="8.578" transform="translate(-160.978 141.845)" fill="#ffb8b8"/>
    <path id="Path_1195" data-name="Path 1195" d="M492.907,447.587c-.248-7.9,7.428-13.383,13.886-9.683.823.471,9.319,8.28,9.639,13.13s.961,12.817.961,12.817l8.965,72.4-19.211-1.039,2.32-21.119-12.487,21.476-15.127-5.207,18.571-57.847S493.283,459.561,492.907,447.587Z" transform="translate(-658.358 -275.147)" fill="#2f2e41"/>
    <path id="Path_1196" data-name="Path 1196" d="M518.93,476.768l1.234,17.35a.69.69,0,0,0,.665.666h5.428a.655.655,0,0,0,.555-.321.772.772,0,0,0,.061-.677l-6.661-17.349a.656.656,0,0,0-.771-.425A.717.717,0,0,0,518.93,476.768Z" transform="translate(-684.23 -301.578)" fill="#faae17"/>
    <path id="Path_1197" data-name="Path 1197" d="M568.264,514.475a3.946,3.946,0,0,0,.728-3.049,3.721,3.721,0,0,0-1.693-2.561l-10.746-47.36-6.871,3.2L562.463,510.5a3.916,3.916,0,0,0,1.267,4.777,3.283,3.283,0,0,0,4.534-.8Z" transform="translate(-705.689 -291.828)" fill="#ffb8b8"/>
    <path id="Path_1198" data-name="Path 1198" d="M550.541,446.265s-2.241,4.849,0,13.509,3.842,15.934,3.842,15.934,5.123-3.464,7.364-2.425S558.2,450.2,558.2,450.2,554.7,442.109,550.541,446.265Z" transform="translate(-705.594 -280.771)" fill="#faae17"/>
    <path id="Path_1199" data-name="Path 1199" d="M526.45,374.16c.107-1.78,2.183-1.841,3.831-1.858s3.62.047,4.553-1.424a3.56,3.56,0,0,0-.011-3.363,9.345,9.345,0,0,0-2.171-2.615,30.216,30.216,0,0,0-6.876-5.24,10.273,10.273,0,0,0-8.2-.766c-3.255,1.256-7.654,7.724-8.034,11.44a14.165,14.165,0,0,0,3.307,10.281c2.314,2.777,7.61,1.656,10.943,2.644-2.026-3.1-.691-8.74,2.555-10.188Z" transform="translate(-677.638 -222.397)" fill="#2f2e41"/>
  </g>
</svg>
