<svg id="Logo" xmlns="http://www.w3.org/2000/svg" width="599.998" height="229.999" viewBox="0 0 599.998 229.999">
  <g id="Building">
    <rect id="Rectangle_9" data-name="Rectangle 9" width="253.716" height="4.471" transform="translate(2.117 138.444)" fill="#fff"/>
    <rect id="L-2" width="253.699" height="4.471" transform="translate(344.082 138.444)" fill="#fff"/>
    <path id="Path_44" data-name="Path 44" d="M356.473,22.744v4.471h2.2V22.744Zm0,31.262v4.471h2.2V54.006Zm0-31.262v4.471h2.2V22.744Zm0,31.262v4.471h2.2V54.006Zm0-31.262v4.471h2.2V22.744Zm0,31.262v4.471h2.2V54.006Zm0-31.262v4.471h2.2V22.744Zm0,75.481V102.7h2.2V98.225Zm0-44.219v4.471h2.2V54.006Zm0-31.262v4.471h2.2V22.744Zm0,75.481V102.7h2.2V98.225Zm0-44.219v4.471h2.2V54.006Zm0-31.262v4.471h2.2V22.744Zm0,75.481V102.7h2.2V98.225Zm0-44.219v4.471h2.2V54.006Zm0-31.262v4.471h2.2V22.744Zm0,75.481V102.7h2.2V98.225Zm0-44.219v4.471h2.2V54.006Zm0-31.262v4.471h2.2V22.744Zm0,75.481V102.7h2.2V98.225Zm0-44.219v4.471h2.2V54.006Zm0-31.262v4.471h2.2V22.744Zm0,75.481V102.7h2.2V98.225Zm0-44.219v4.471h2.2V54.006Zm0-31.262v4.471h2.2V22.744Zm0,75.481V102.7h2.2V98.225Zm0-44.219v4.471h2.2V54.006Zm0-31.262v4.471h2.2V22.744Zm-41.917,0v4.471h2.2V22.744Zm41.917,75.481V102.7h2.2V98.225Zm0-44.219v4.471h2.2V54.006Zm0-31.262v4.471h2.2V22.744ZM314.557,54.006v4.471h2.2V54.006Zm0-31.262v4.471h2.2V22.744Zm41.917,75.481V102.7h2.2V98.225Zm0-44.219v4.471h2.2V54.006Zm0-31.262v4.471h2.2V22.744ZM314.557,54.006v4.471h2.2V54.006Zm0-31.262v4.471h2.2V22.744Zm41.917,75.481V102.7h2.2V98.225Zm0-44.219v4.471h2.2V54.006Zm0-31.262v4.471h2.2V22.744ZM314.557,98.225V102.7h2.2V98.225Zm0-44.219v4.471h2.2V54.006Zm0-31.262v4.471h2.2V22.744Zm41.917,75.481V102.7h2.2V98.225Zm0-44.219v4.471h2.2V54.006Zm0-31.262v4.471h2.2V22.744ZM314.557,98.225V102.7h2.2V98.225Zm0-44.219v4.471h2.2V54.006Zm0-31.262v4.471h2.2V22.744Zm41.917,75.481V102.7h2.2V98.225Zm0-44.219v4.471h2.2V54.006Zm0-31.262v4.471h2.2V22.744ZM314.557,98.225V102.7h2.2V98.225Zm0-44.219v4.471h2.2V54.006Zm0-31.262v4.471h2.2V22.744Zm41.917,75.481V102.7h2.2V98.225Zm0-44.219v4.471h2.2V54.006Zm0-31.262v4.471h2.2V22.744ZM314.557,98.225V102.7h2.2V98.225Zm0-44.219v4.471h2.2V54.006Zm0-31.262v4.471h2.2V22.744Zm41.917,75.481V102.7h2.2V98.225Zm0-44.219v4.471h2.2V54.006Zm0-31.262v4.471h2.2V22.744ZM314.557,98.225V102.7h2.2V98.225Zm0-44.219v4.471h2.2V54.006Zm0-31.262v4.471h2.2V22.744Zm41.917,75.481V102.7h2.2V98.225Zm0-44.219v4.471h2.2V54.006Zm0-31.262v4.471h2.2V22.744ZM314.557,98.225V102.7h2.2V98.225Zm0-44.219v4.471h2.2V54.006Zm0-31.262v4.471h2.2V22.744Zm41.917,75.481V102.7h2.2V98.225Zm0-44.219v4.471h2.2V54.006Zm0-31.262v4.471h2.2V22.744ZM314.557,98.225V102.7h2.2V98.225Zm0-44.219v4.471h2.2V54.006Zm0-31.262v4.471h2.2V22.744Zm41.917,75.481V102.7h2.2V98.225Zm0-44.219v4.471h2.2V54.006Zm0-31.262v4.471h2.2V22.744ZM314.557,98.225V102.7h2.2V98.225Zm0-44.219v4.471h2.2V54.006Zm0-31.262v4.471h2.2V22.744Zm41.917,75.481V102.7h2.2V98.225Zm0-44.219v4.471h2.2V54.006Zm0-31.262v4.471h2.2V22.744ZM314.557,98.225V102.7h2.2V98.225Zm0-44.219v4.471h2.2V54.006Zm0-31.262v4.471h2.2V22.744Zm41.917,75.481V102.7h2.2V98.225Zm0-44.219v4.471h2.2V54.006Zm0-31.262v4.471h2.2V22.744ZM314.557,98.225V102.7h2.2V98.225Zm0-44.219v4.471h2.2V54.006Zm0-31.262v4.471h2.2V22.744Zm41.917,75.481V102.7h2.2V98.225Zm0-44.219v4.471h2.2V54.006Zm0-31.262v4.471h2.2V22.744ZM314.557,98.225V102.7h2.2V98.225Zm0-44.219v4.471h2.2V54.006Zm0-31.262v4.471h2.2V22.744Zm41.917,75.481V102.7h2.2V98.225Zm0-44.219v4.471h2.2V54.006Zm0-31.262v4.471h2.2V22.744ZM314.557,98.225V102.7h2.2V98.225Zm0-44.219v4.471h2.2V54.006Zm0-31.262v4.471h2.2V22.744Zm41.917,75.481V102.7h2.2V98.225Zm0-44.219v4.471h2.2V54.006Zm0-31.262v4.471h2.2V22.744ZM314.557,98.225V102.7h2.2V98.225Zm0-44.219v4.471h2.2V54.006Zm0-31.262v4.471h2.2V22.744Zm41.917,75.481V102.7h2.2V98.225Zm0-44.219v4.471h2.2V54.006Zm0-31.262v4.471h2.2V22.744ZM314.557,98.225V102.7h2.2V98.225Zm0-44.219v4.471h2.2V54.006Zm0-31.262v4.471h2.2V22.744Zm41.917,75.481V102.7h2.2V98.225Zm0-44.219v4.471h2.2V54.006Zm0-31.262v4.471h2.2V22.744ZM314.557,98.225V102.7h2.2V98.225Zm0-44.219v4.471h2.2V54.006Zm0-31.262v4.471h2.2V22.744Zm41.917,75.481V102.7h2.2V98.225Zm0-44.219v4.471h2.2V54.006Zm0-31.262v4.471h2.2V22.744ZM314.557,98.225V102.7h2.2V98.225Zm0-44.219v4.471h2.2V54.006Zm0-31.262v4.471h2.2V22.744Zm41.917,75.481V102.7h2.2V98.225Zm0-44.219v4.471h2.2V54.006Zm0-31.262v4.471h2.2V22.744ZM314.557,98.225V102.7h2.2V98.225Zm0-44.219v4.471h2.2V54.006Zm0-31.262v4.471h2.2V22.744Zm41.917,75.481V102.7h2.2V98.225Zm0-44.219v4.471h2.2V54.006Zm0-31.262v4.471h2.2V22.744ZM314.557,98.225V102.7h2.2V98.225Zm0-44.219v4.471h2.2V54.006Zm0-31.262v4.471h2.2V22.744Zm41.917,75.481V102.7h2.2V98.225Zm0-44.219v4.471h2.2V54.006Zm0-31.262v4.471h2.2V22.744ZM314.557,98.225V102.7h2.2V98.225Zm0-44.219v4.471h2.2V54.006Zm0-31.262v4.471h2.2V22.744Zm41.917,75.481V102.7h2.2V98.225Zm0-44.219v4.471h2.2V54.006Zm0-31.262v4.471h2.2V22.744ZM314.557,98.225V102.7h2.2V98.225Zm0-44.219v4.471h2.2V54.006Zm0-31.262v4.471h2.2V22.744Zm41.917,75.481V102.7h2.2V98.225Zm0-44.219v4.471h2.2V54.006Zm0-31.262v4.471h2.2V22.744ZM314.557,98.225V102.7h2.2V98.225Zm0-44.219v4.471h2.2V54.006Zm0-31.262v4.471h2.2V22.744Zm41.917,75.481V102.7h2.2V98.225Zm0-44.219v4.471h2.2V54.006Zm0-31.262v4.471h2.2V22.744ZM314.557,98.225V102.7h2.2V98.225Zm0-44.219v4.471h2.2V54.006Zm0-31.262v4.471h2.2V22.744Zm41.917,75.481V102.7h2.2V98.225Zm0-44.219v4.471h2.2V54.006Zm0-31.262v4.471h2.2V22.744ZM314.557,98.225V102.7h2.2V98.225Zm0-44.219v4.471h2.2V54.006Zm0-31.262v4.471h2.2V22.744Zm41.917,75.481V102.7h2.2V98.225Zm0-44.219v4.471h2.2V54.006Zm0-31.262v4.471h2.2V22.744ZM314.557,98.225V102.7h2.2V98.225Zm0-44.219v4.471h2.2V54.006Zm0-31.262v4.471h2.2V22.744Zm41.917,75.481V102.7h2.2V98.225Zm0-44.219v4.471h2.2V54.006Zm0-31.262v4.471h2.2V22.744ZM314.557,98.225V102.7h2.2V98.225Zm0-44.219v4.471h2.2V54.006Zm0-31.262v4.471h2.2V22.744Zm41.917,75.481V102.7h2.2V98.225Zm0-44.219v4.471h2.2V54.006Zm0-31.262v4.471h2.2V22.744ZM314.557,98.225V102.7h2.2V98.225Zm0-44.219v4.471h2.2V54.006Zm0-31.262v4.471h2.2V22.744Zm41.917,75.481V102.7h2.2V98.225Zm0-44.219v4.471h2.2V54.006Zm0-31.262v4.471h2.2V22.744ZM314.557,98.225V102.7h2.2V98.225Zm0-44.219v4.471h2.2V54.006Zm0-31.262v4.471h2.2V22.744Zm41.917,75.481V102.7h2.2V98.225Zm0-44.219v4.471h2.2V54.006Zm0-31.262v4.471h2.2V22.744ZM314.557,98.225V102.7h2.2V98.225Zm0-44.219v4.471h2.2V54.006Zm0-31.262v4.471h2.2V22.744Zm41.917,75.481V102.7h2.2V98.225Zm0-44.219v4.471h2.2V54.006Zm0-31.262v4.471h2.2V22.744ZM314.557,98.225V102.7h2.2V98.225Zm0-44.219v4.471h2.2V54.006Zm0-31.262v4.471h2.2V22.744Zm41.917,75.481V102.7h2.2V98.225Zm0-44.219v4.471h2.2V54.006Zm0-31.262v4.471h2.2V22.744ZM314.557,98.225V102.7h2.2V98.225Zm0-44.219v4.471h2.2V54.006Zm0-31.262v4.471h2.2V22.744Zm41.917,75.481V102.7h2.2V98.225Zm0-44.219v4.471h2.2V54.006Zm0-31.262v4.471h2.2V22.744ZM314.557,98.225V102.7h2.2V98.225Zm0-44.219v4.471h2.2V54.006Zm0-31.262v4.471h2.2V22.744Zm41.917,75.481V102.7h2.2V98.225Zm0-44.219v4.471h2.2V54.006Zm0-31.262v4.471h2.2V22.744ZM314.557,98.225V102.7h2.2V98.225Zm0-44.219v4.471h2.2V54.006Zm0-31.262v4.471h2.2V22.744Zm41.917,75.481V102.7h2.2V98.225Zm0-44.219v4.471h2.2V54.006Zm0-31.262v4.471h2.2V22.744ZM314.557,98.225V102.7h2.2V98.225Zm0-44.219v4.471h2.2V54.006Zm0-31.262v4.471h2.2V22.744Zm41.917,75.481V102.7h2.2V98.225Zm0-44.219v4.471h2.2V54.006Zm0-31.262v4.471h2.2V22.744ZM314.557,98.225V102.7h2.2V98.225Zm0-44.219v4.471h2.2V54.006Zm0-31.262v4.471h2.2V22.744Zm41.917,75.481V102.7h2.2V98.225Zm0-44.219v4.471h2.2V54.006Zm0-31.262v4.471h2.2V22.744ZM314.557,98.225V102.7h2.2V98.225Zm0-44.219v4.471h2.2V54.006Zm0-31.262v4.471h2.2V22.744Zm41.917,75.481V102.7h2.2V98.225Zm0-44.219v4.471h2.2V54.006Zm0-31.262v4.471h2.2V22.744ZM314.557,98.225V102.7h2.2V98.225Zm0-44.219v4.471h2.2V54.006Zm0-31.262v4.471h2.2V22.744Zm41.917,75.481V102.7h2.2V98.225Zm0-44.219v4.471h2.2V54.006Zm0-31.262v4.471h2.2V22.744ZM314.54,98.225V102.7h2.2V98.225Zm0-44.219v4.471h2.2V54.006Zm0-31.262v4.471h2.2V22.744Zm0,75.481V102.7h0V98.225Zm0-44.219v4.471h0V54.006Zm0-31.262v4.471h0V22.744ZM292.49,16.08V127.733H402.806V16.08H292.49ZM396.173,29.442v9.819H382.94V29.442ZM382.94,27.215V22.744h13.233v4.471Zm0,75.481V98.225h13.233V102.7Zm13.233-41.975v8.925H382.94V60.721Zm0-2.227H382.94V54.023h13.233ZM382.94,104.94h13.233v8.925H382.94Zm-41.917,9.819V104.94h15.45v9.819Zm15.45-92v4.471h-15.45V22.761Zm2.2,6.7h15.433v9.819H358.673Zm15.433-2.227H358.673V22.761h15.433Zm-33.1,2.227h15.45v9.819h-15.45Zm17.65,31.262H374.09V70.54H358.656Zm0,37.521H374.09v4.471H358.656ZM374.09,58.494H358.656V54.023H374.09Zm-33.1,44.219V98.242h15.45v4.471Zm0-32.156V60.738h15.45v9.819Zm0-12.046V54.04h15.45v4.471Zm17.65,46.446h15.433v9.819H358.64ZM314.506,29.476v9.819H299.073V29.476Zm0-6.7v4.471H299.073V22.778Zm2.2,16.517V29.476h15.45v9.819Zm15.45-12.046h-15.45V22.778h15.45Zm0,33.489v9.819h-15.45V60.738Zm-17.65-6.7v4.471H299.073V54.04Zm0,6.7v9.819H299.073V60.738Zm0,37.521v4.471H299.073V98.259Zm2.2,0h15.45v4.471h-15.45Zm15.45-39.748h-15.45V54.04h15.45Zm-33.1,46.446H314.49v9.819H299.056Zm17.65,9.819v-9.819h15.45v9.819Zm-2.2-92h0v4.5h2.2V22.812Zm0,31.3v4.471h2.2V54.074Zm0,44.219v4.471h2.2V98.293Zm41.917-75.515v4.5h2.2V22.812Zm0,31.3v4.471h2.2V54.074Zm0,44.219v4.471h2.2V98.293ZM314.506,22.778h0v4.5h2.2V22.812Zm0,31.3v4.471h2.2V54.074Zm0,44.219v4.471h2.2V98.293Zm41.917-75.515v4.5h2.2V22.812Zm0,31.3v4.471h2.2V54.074Zm0,44.219v4.471h2.2V98.293ZM314.506,22.778h0v4.5h2.2V22.812Zm0,31.3v4.471h2.2V54.074Zm0,44.219v4.471h2.2V98.293Zm41.917-75.515v4.5h2.2V22.812Zm0,31.3v4.471h2.2V54.074Zm0,44.219v4.471h2.2V98.293ZM314.506,22.778h0v4.5h2.2V22.812Zm0,31.3v4.471h2.2V54.074Zm0,44.219v4.471h2.2V98.293Zm41.917-75.515v4.5h2.2V22.812Zm0,31.3v4.471h2.2V54.074Zm0,44.219v4.471h2.2V98.293ZM314.506,22.778h0v4.5h2.2V22.812Zm0,31.3v4.471h2.2V54.074Zm0,44.219v4.471h2.2V98.293Zm41.917-75.515v4.5h2.2V22.812Zm0,31.3v4.471h2.2V54.074Zm0,44.219v4.471h2.2V98.293ZM314.506,22.778h0v4.5h2.2V22.812Zm0,31.3v4.471h2.2V54.074Zm0,44.219v4.471h2.2V98.293Zm41.917-75.515v4.5h2.2V22.812Zm0,31.3v4.471h2.2V54.074Zm0,44.219v4.471h2.2V98.293ZM314.506,22.778h0v4.5h2.2V22.812Zm0,31.3v4.471h2.2V54.074Zm0,44.219v4.471h2.2V98.293Zm41.917-75.515v4.5h2.2V22.812Zm0,31.3v4.471h2.2V54.074Zm0,44.219v4.471h2.2V98.293ZM314.506,22.778h0v4.5h2.2V22.812Zm0,31.3v4.471h2.2V54.074Zm0,44.219v4.471h2.2V98.293Zm41.917-75.515v4.5h2.2V22.812Zm0,31.3v4.471h2.2V54.074Zm0,44.219v4.471h2.2V98.293ZM314.506,22.778h0v4.5h2.2V22.812Zm0,31.3v4.471h2.2V54.074Zm0,44.219v4.471h2.2V98.293Zm41.917-75.515v4.5h2.2V22.812Zm0,31.3v4.471h2.2V54.074Zm0,44.219v4.471h2.2V98.293ZM314.506,22.778h0v4.5h2.2V22.812Zm0,31.3v4.471h2.2V54.074Zm0,44.219v4.471h2.2V98.293Zm41.917-75.515v4.5h2.2V22.812Zm0,31.3v4.471h2.2V54.074Zm0,44.219v4.471h2.2V98.293ZM314.506,22.778h0v4.5h2.2V22.812Zm0,31.3v4.471h2.2V54.074Zm0,44.219v4.471h2.2V98.293Zm41.917-75.5v4.5h2.2V22.828Zm0,31.3v4.471h2.2V54.091Zm0,44.219v4.471h2.2V98.31Zm-41.917-75.5h0v4.5h2.2V22.845Zm0,31.3v4.471h2.2V54.107Zm0,44.219V102.8h2.2V98.327Zm41.917-75.5v4.5h2.2V22.862Zm0,31.3V58.6h2.2V54.124Zm0,44.219v4.471h2.2V98.343Zm-41.917-75.5h0v4.5h2.2V22.879Zm0,31.3v4.471h2.2V54.141Zm0,44.219v4.471h2.2V98.36Zm41.917-75.5v4.5h2.2V22.9Zm0,31.3v4.471h2.2V54.158Zm0,44.219v4.471h2.2V98.377Zm-41.917-75.5h0v4.5h2.2V22.913Zm0,31.3v4.471h2.2V54.175Zm0,44.219v4.471h2.2V98.394Zm41.917-75.5v4.5h2.2V22.93Zm0,31.3v4.471h2.2V54.192Zm0,44.219v4.471h2.2V98.411Zm-41.917-75.5h0v4.5h2.2V22.946Zm0,31.3V58.68h2.2V54.209Zm0,44.219V102.9h2.2V98.428Zm41.917-75.5v4.5h2.2V22.963Zm0,31.3V58.7h2.2V54.226Zm0,44.219v4.471h2.2V98.445Zm-41.917-75.5h0v4.5h2.2V22.98Zm0,31.3v4.471h2.2V54.242Zm0,44.219v4.471h2.2V98.462Zm41.917-75.5v4.488h2.2V22.98l-2.2-.034Zm0,31.3V58.73h2.2V54.259Zm0,44.219v4.471h2.2V98.478Zm-41.917-75.5h0v4.488h2.2V23l-2.2-.034Zm0,31.3v4.471h2.2V54.276Zm0,44.219v4.471h2.2V98.5ZM356.423,23v4.488h2.2V23.014h-2.2Zm0,31.262V58.73h2.2V54.259Zm0,44.219v4.471h2.2V98.478Zm-41.917-75.5h0v4.488h2.2V23h-2.2Zm0,31.262v4.471h2.2V54.242Zm0,44.219v4.471h2.2V98.462Zm41.917-75.5v4.488h2.2V22.98h-2.2Zm0,31.262V58.7h2.2V54.225Zm0,44.219v4.471h2.2V98.445Zm-41.917-75.5h0v4.488h2.2V22.963h-2.2Zm0,31.262v4.471h2.2V54.209Zm0,44.219V102.9h2.2V98.428Zm41.917-75.5v4.488h2.2V22.946h-2.2Zm0,31.262v4.471h2.2V54.192Zm0,44.219v4.471h2.2V98.411Zm-41.917-75.5h0V27.4h2.2V22.93h-2.2Zm0,31.262v4.471h2.2V54.175Zm0,44.219v4.471h2.2V98.394Zm41.917-75.5v4.488h2.2V22.913h-2.2Zm0,31.262v4.471h2.2V54.158Zm0,44.219v4.471h2.2V98.377Zm-41.917-75.5h0v4.488h2.2V22.9h-2.2Zm0,31.262v4.471h2.2V54.141Zm0,44.219v4.471h2.2V98.36Zm41.917-75.5V27.35h2.2V22.879h-2.2Zm0,31.262V58.6h2.2V54.124Zm0,44.219v4.471h2.2V98.343Zm-41.917-75.5h0v4.488h2.2V22.862h-2.2Zm0,31.262v4.471h2.2V54.107Zm0,44.219V102.8h2.2V98.326Zm41.917-75.5v4.488h2.2V22.845h-2.2Zm0,31.262v4.471h2.2V54.09Zm0,44.219v4.471h2.2V98.31Zm-41.917-75.5h0V27.3h2.2V22.828h-2.2Zm0,31.262v4.471h2.2V54.074Zm0,44.219v4.471h2.2V98.293Zm41.917-75.5v4.488h2.2V22.811h-2.2Zm0,31.262v4.471h2.2V54.057Zm0,44.219v4.471h2.2V98.276Zm-41.917-75.5h0v4.488h2.2V22.795h-2.2Zm0,31.262v4.471h2.2V54.04Zm0,44.219v4.471h2.2V98.259Zm41.917-75.5v4.488h2.2V22.778h-2.2Zm0,31.262v4.471h2.2V54.023Zm0,44.219v4.471h2.2V98.242Zm-41.917-75.5h0v4.488h2.2V22.761h-2.2Zm0,31.262v4.471h2.2V54.006Zm0,44.219V102.7h2.2V98.225Zm41.917-75.5v4.488h2.2V22.744h-2.2Zm0,31.262V58.46h2.2V53.989Zm0,44.219v4.471h2.2V98.208Zm-41.917-75.5h0V27.2h2.2V22.727h-2.2Zm0,31.262v4.471h2.2V53.972Zm0,44.219v4.471h2.2V98.192Zm41.917-75.5v4.488h2.2V22.71h-2.2Zm0,31.262v4.471h2.2V53.955Zm0,44.219v4.471h2.2V98.175Zm-41.917-75.5h0v4.488h2.2V22.693h-2.2Zm0,31.262v4.471h2.2V53.939Zm0,44.219v4.471h2.2V98.158Zm41.917-75.5v4.488h2.2V22.676h-2.2Zm0,31.262v4.471h2.2V53.922Zm0,44.219v4.471h2.2V98.141Zm-41.917-75.5h0V27.13h2.2V22.66h-2.2Zm0,31.262v4.471h2.2V53.9Zm0,44.219v4.471h2.2V98.124Zm41.917-75.5v4.488h2.2V22.643h-2.2Zm0,31.262v4.471h2.2V53.888Zm0,44.219v4.471h2.2V98.107Zm-41.917-75.5h0V27.1h2.2V22.626h-2.2Zm0,31.262v4.471h2.2V53.871Zm0,44.219v4.471h2.2V98.09Zm41.917-75.5V27.08h2.2V22.609h-2.2Zm0,31.262v4.471h2.2V53.854Zm0,44.219v4.471h2.2V98.073Zm-41.917-75.5h0v4.488h2.2V22.592h-2.2Zm0,31.262v4.471h2.2V53.837Zm0,44.219v4.471h2.2V98.057Zm41.917-75.5v4.488h2.2V22.575h-2.2Zm0,31.262v4.471h2.2V53.82Zm0,44.219v4.471h2.2V98.04Zm-41.917-75.5h0v4.488h2.2V22.558h-2.2Zm0,31.262v4.471h2.2V53.8Zm0,44.219v4.471h2.2V98.023Zm41.917-75.5v4.488h2.2V22.541h-2.2Zm0,31.262v4.471h2.2V53.787Zm0,44.219v4.471h2.2V98.006ZM314.506,22.525h0v4.488h2.2V22.541h-2.2Zm0,31.262v4.471h2.2V53.787Zm0,44.219v4.471h2.2V98.006Zm41.917-75.481v4.488h2.2V22.541h-2.2Zm0,31.262v4.471h2.2V53.787Zm0,44.219v4.471h2.2V98.006ZM314.506,22.525h0v4.488h2.2V22.541h-2.2Zm0,31.262v4.471h2.2V53.787Zm0,44.219v4.471h2.2V98.006Zm41.917-75.481v4.488h2.2V22.541h-2.2Zm0,31.262v4.471h2.2V53.787Zm0,44.219v4.471h2.2V98.006ZM314.506,22.525h0v4.488h2.2V22.541h-2.2Zm0,31.262v4.471h2.2V53.787Zm0,44.219v4.471h2.2V98.006Zm41.917-75.481v4.488h2.2V22.541h-2.2Zm0,31.262v4.471h2.2V53.787Zm0,44.219v4.471h2.2V98.006ZM314.506,22.525h0v4.488h2.2V22.541h-2.2Zm0,31.262v4.471h2.2V53.787Zm0,44.219v4.471h2.2V98.006Zm41.917-75.481v4.488h2.2V22.541h-2.2Zm0,31.262v4.471h2.2V53.787Zm0,44.219v4.471h2.2V98.006ZM314.506,22.525h0v4.488h2.2V22.541h-2.2Zm0,31.262v4.471h2.2V53.787Zm0,44.219v4.471h2.2V98.006Zm41.917-75.481V27h2.2V22.525Zm0,31.262v4.471h2.2V53.787Zm0,44.219v4.471h2.2V98.006ZM314.506,22.525h0V27h2.2V22.525Zm0,31.262v4.471h2.2V53.787Zm0,44.219v4.471h2.2V98.006Zm41.917-75.481V27h2.2V22.525Zm0,31.262v4.471h2.2V53.787Zm0,44.219v4.471h2.2V98.006ZM314.506,22.525h0V27h2.2V22.525Zm0,31.262v4.471h2.2V53.787Zm0,44.219v4.471h2.2V98.006Zm41.917-75.481V27h2.2V22.525Zm0,31.262v4.471h2.2V53.787Zm0,44.219v4.471h2.2V98.006ZM314.506,22.525h0V27h2.2V22.525Zm0,31.262v4.471h2.2V53.787Zm41.917-31.262V27h2.2V22.525Zm0,31.262v4.471h2.2V53.787Zm0,44.219v4.471h2.2V98.006ZM314.506,22.525h0V27h2.2V22.525Zm41.917,0V27h2.2V22.525Zm0,31.262v4.471h2.2V53.787Zm0,44.219v4.471h2.2V98.006Zm0-75.481V27h2.2V22.525Zm0,31.262v4.471h2.2V53.787Zm0,44.219v4.471h2.2V98.006Zm0-75.481V27h2.2V22.525Zm0,31.262v4.471h2.2V53.787Zm0,44.219v4.471h2.2V98.006Zm0-75.481V27h2.2V22.525Zm0,31.262v4.471h2.2V53.787Zm0,44.219v4.471h2.2V98.006Zm0-75.481V27h2.2V22.525Zm0,31.262v4.471h2.2V53.787Zm0,44.219v4.471h2.2V98.006Zm0-75.481V27h2.2V22.525Zm0,31.262v4.471h2.2V53.787Zm0,44.219v4.471h2.2V98.006Zm0-75.481V27h2.2V22.525Zm0,31.262v4.471h2.2V53.787Zm0,44.219v4.471h2.2V98.006Zm0-75.481V27h2.2V22.525Zm0,31.262v4.471h2.2V53.787Zm0,44.219v4.471h2.2V98.006Zm0-75.481V27h2.2V22.525Zm0,31.262v4.471h2.2V53.787Zm0-31.262V27h2.2V22.525Zm0,31.262v4.471h2.2V53.787Zm0-31.262V27h2.2V22.525Zm0,31.262v4.471h2.2V53.787Z" transform="translate(194.992 10.745)" fill="#fff"/>
    <path id="Path_57" data-name="Path 57" d="M45.453,22.744v4.471h2.2V22.744Zm0,31.262v4.471h2.2V54.006Zm0-31.262v4.471h2.2V22.744Zm0,31.262v4.471h2.2V54.006Zm0-31.262v4.471h2.2V22.744Zm0,31.262v4.471h2.2V54.006Zm0-31.262v4.471h2.2V22.744Zm0,75.481V102.7h2.2V98.225Zm0-44.219v4.471h2.2V54.006Zm0-31.262v4.471h2.2V22.744Zm0,75.481V102.7h2.2V98.225Zm0-44.219v4.471h2.2V54.006Zm0-31.262v4.471h2.2V22.744Zm0,75.481V102.7h2.2V98.225Zm0-44.219v4.471h2.2V54.006Zm0-31.262v4.471h2.2V22.744Zm0,75.481V102.7h2.2V98.225Zm0-44.219v4.471h2.2V54.006Zm0-31.262v4.471h2.2V22.744Zm0,75.481V102.7h2.2V98.225Zm0-44.219v4.471h2.2V54.006Zm0-31.262v4.471h2.2V22.744Zm0,75.481V102.7h2.2V98.225Zm0-44.219v4.471h2.2V54.006Zm0-31.262v4.471h2.2V22.744Zm0,75.481V102.7h2.2V98.225Zm0-44.219v4.471h2.2V54.006Zm0-31.262v4.471h2.2V22.744Zm41.917,0v4.471h2.2V22.744ZM45.453,98.225V102.7h2.2V98.225Zm0-44.219v4.471h2.2V54.006Zm0-31.262v4.471h2.2V22.744ZM87.37,54.006v4.471h2.2V54.006Zm0-31.262v4.471h2.2V22.744ZM45.453,98.225V102.7h2.2V98.225Zm0-44.219v4.471h2.2V54.006Zm0-31.262v4.471h2.2V22.744ZM87.37,54.006v4.471h2.2V54.006Zm0-31.262v4.471h2.2V22.744ZM45.453,98.225V102.7h2.2V98.225Zm0-44.219v4.471h2.2V54.006Zm0-31.262v4.471h2.2V22.744ZM87.37,98.225V102.7h2.2V98.225Zm0-44.219v4.471h2.2V54.006Zm0-31.262v4.471h2.2V22.744ZM45.453,98.225V102.7h2.2V98.225Zm0-44.219v4.471h2.2V54.006Zm0-31.262v4.471h2.2V22.744ZM87.37,98.225V102.7h2.2V98.225Zm0-44.219v4.471h2.2V54.006Zm0-31.262v4.471h2.2V22.744ZM45.453,98.225V102.7h2.2V98.225Zm0-44.219v4.471h2.2V54.006Zm0-31.262v4.471h2.2V22.744ZM87.37,98.225V102.7h2.2V98.225Zm0-44.219v4.471h2.2V54.006Zm0-31.262v4.471h2.2V22.744ZM45.453,98.225V102.7h2.2V98.225Zm0-44.219v4.471h2.2V54.006Zm0-31.262v4.471h2.2V22.744ZM87.37,98.225V102.7h2.2V98.225Zm0-44.219v4.471h2.2V54.006Zm0-31.262v4.471h2.2V22.744ZM45.453,98.225V102.7h2.2V98.225Zm0-44.219v4.471h2.2V54.006Zm0-31.262v4.471h2.2V22.744ZM87.37,98.225V102.7h2.2V98.225Zm0-44.219v4.471h2.2V54.006Zm0-31.262v4.471h2.2V22.744ZM45.453,98.225V102.7h2.2V98.225Zm0-44.219v4.471h2.2V54.006Zm0-31.262v4.471h2.2V22.744ZM87.37,98.225V102.7h2.2V98.225Zm0-44.219v4.471h2.2V54.006Zm0-31.262v4.471h2.2V22.744ZM45.453,98.225V102.7h2.2V98.225Zm0-44.219v4.471h2.2V54.006Zm0-31.262v4.471h2.2V22.744ZM87.37,98.225V102.7h2.2V98.225Zm0-44.219v4.471h2.2V54.006Zm0-31.262v4.471h2.2V22.744ZM45.453,98.225V102.7h2.2V98.225Zm0-44.219v4.471h2.2V54.006Zm0-31.262v4.471h2.2V22.744ZM87.37,98.225V102.7h2.2V98.225Zm0-44.219v4.471h2.2V54.006Zm0-31.262v4.471h2.2V22.744ZM45.453,98.225V102.7h2.2V98.225Zm0-44.219v4.471h2.2V54.006Zm0-31.262v4.471h2.2V22.744ZM87.37,98.225V102.7h2.2V98.225Zm0-44.219v4.471h2.2V54.006Zm0-31.262v4.471h2.2V22.744ZM45.453,98.225V102.7h2.2V98.225Zm0-44.219v4.471h2.2V54.006Zm0-31.262v4.471h2.2V22.744ZM87.37,98.225V102.7h2.2V98.225Zm0-44.219v4.471h2.2V54.006Zm0-31.262v4.471h2.2V22.744ZM45.453,98.225V102.7h2.2V98.225Zm0-44.219v4.471h2.2V54.006Zm0-31.262v4.471h2.2V22.744ZM87.37,98.225V102.7h2.2V98.225Zm0-44.219v4.471h2.2V54.006Zm0-31.262v4.471h2.2V22.744ZM45.453,98.225V102.7h2.2V98.225Zm0-44.219v4.471h2.2V54.006Zm0-31.262v4.471h2.2V22.744ZM87.37,98.225V102.7h2.2V98.225Zm0-44.219v4.471h2.2V54.006Zm0-31.262v4.471h2.2V22.744ZM45.453,98.225V102.7h2.2V98.225Zm0-44.219v4.471h2.2V54.006Zm0-31.262v4.471h2.2V22.744ZM87.37,98.225V102.7h2.2V98.225Zm0-44.219v4.471h2.2V54.006Zm0-31.262v4.471h2.2V22.744ZM45.453,98.225V102.7h2.2V98.225Zm0-44.219v4.471h2.2V54.006Zm0-31.262v4.471h2.2V22.744ZM87.37,98.225V102.7h2.2V98.225Zm0-44.219v4.471h2.2V54.006Zm0-31.262v4.471h2.2V22.744ZM45.453,98.225V102.7h2.2V98.225Zm0-44.219v4.471h2.2V54.006Zm0-31.262v4.471h2.2V22.744ZM87.37,98.225V102.7h2.2V98.225Zm0-44.219v4.471h2.2V54.006Zm0-31.262v4.471h2.2V22.744ZM45.453,98.225V102.7h2.2V98.225Zm0-44.219v4.471h2.2V54.006Zm0-31.262v4.471h2.2V22.744ZM87.37,98.225V102.7h2.2V98.225Zm0-44.219v4.471h2.2V54.006Zm0-31.262v4.471h2.2V22.744ZM45.453,98.225V102.7h2.2V98.225Zm0-44.219v4.471h2.2V54.006Zm0-31.262v4.471h2.2V22.744ZM87.37,98.225V102.7h2.2V98.225Zm0-44.219v4.471h2.2V54.006Zm0-31.262v4.471h2.2V22.744ZM45.453,98.225V102.7h2.2V98.225Zm0-44.219v4.471h2.2V54.006Zm0-31.262v4.471h2.2V22.744ZM87.37,98.225V102.7h2.2V98.225Zm0-44.219v4.471h2.2V54.006Zm0-31.262v4.471h2.2V22.744ZM45.453,98.225V102.7h2.2V98.225Zm0-44.219v4.471h2.2V54.006Zm0-31.262v4.471h2.2V22.744ZM87.37,98.225V102.7h2.2V98.225Zm0-44.219v4.471h2.2V54.006Zm0-31.262v4.471h2.2V22.744ZM45.453,98.225V102.7h2.2V98.225Zm0-44.219v4.471h2.2V54.006Zm0-31.262v4.471h2.2V22.744ZM87.37,98.225V102.7h2.2V98.225Zm0-44.219v4.471h2.2V54.006Zm0-31.262v4.471h2.2V22.744ZM45.453,98.225V102.7h2.2V98.225Zm0-44.219v4.471h2.2V54.006Zm0-31.262v4.471h2.2V22.744ZM87.37,98.225V102.7h2.2V98.225Zm0-44.219v4.471h2.2V54.006Zm0-31.262v4.471h2.2V22.744ZM45.453,98.225V102.7h2.2V98.225Zm0-44.219v4.471h2.2V54.006Zm0-31.262v4.471h2.2V22.744ZM87.37,98.225V102.7h2.2V98.225Zm0-44.219v4.471h2.2V54.006Zm0-31.262v4.471h2.2V22.744ZM45.453,98.225V102.7h2.2V98.225Zm0-44.219v4.471h2.2V54.006Zm0-31.262v4.471h2.2V22.744ZM87.37,98.225V102.7h2.2V98.225Zm0-44.219v4.471h2.2V54.006Zm0-31.262v4.471h2.2V22.744ZM45.453,98.225V102.7h2.2V98.225Zm0-44.219v4.471h2.2V54.006Zm0-31.262v4.471h2.2V22.744ZM87.37,98.225V102.7h2.2V98.225Zm0-44.219v4.471h2.2V54.006Zm0-31.262v4.471h2.2V22.744ZM45.453,98.225V102.7h2.2V98.225Zm0-44.219v4.471h2.2V54.006Zm0-31.262v4.471h2.2V22.744ZM87.37,98.225V102.7h2.2V98.225Zm0-44.219v4.471h2.2V54.006Zm0-31.262v4.471h2.2V22.744ZM45.453,98.225V102.7h2.2V98.225Zm0-44.219v4.471h2.2V54.006Zm0-31.262v4.471h2.2V22.744ZM87.37,98.225V102.7h2.2V98.225Zm0-44.219v4.471h2.2V54.006Zm0-31.262v4.471h2.2V22.744ZM45.453,98.225V102.7h2.2V98.225Zm0-44.219v4.471h2.2V54.006Zm0-31.262v4.471h2.2V22.744ZM87.37,98.225V102.7h2.2V98.225Zm0-44.219v4.471h2.2V54.006Zm0-31.262v4.471h2.2V22.744ZM45.453,98.225V102.7h2.2V98.225Zm0-44.219v4.471h2.2V54.006Zm0-31.262v4.471h2.2V22.744ZM87.37,98.225V102.7h2.2V98.225Zm0-44.219v4.471h2.2V54.006Zm0-31.262v4.471h2.2V22.744ZM45.453,98.225V102.7h2.2V98.225Zm0-44.219v4.471h2.2V54.006Zm0-31.262v4.471h2.2V22.744ZM87.37,98.225V102.7h2.2V98.225Zm0-44.219v4.471h2.2V54.006Zm0-31.262v4.471h2.2V22.744ZM45.453,98.225V102.7h2.2V98.225Zm0-44.219v4.471h2.2V54.006Zm0-31.262v4.471h2.2V22.744ZM87.37,98.225V102.7h2.2V98.225Zm0-44.219v4.471h2.2V54.006Zm0-31.262v4.471h2.2V22.744ZM45.453,98.225V102.7h2.2V98.225Zm0-44.219v4.471h2.2V54.006Zm0-31.262v4.471h2.2V22.744ZM87.37,98.225V102.7h2.2V98.225Zm0-44.219v4.471h2.2V54.006Zm0-31.262v4.471h2.2V22.744ZM45.453,98.225V102.7h2.2V98.225Zm0-44.219v4.471h2.2V54.006Zm0-31.262v4.471h2.2V22.744ZM87.37,98.225V102.7h2.2V98.225Zm0-44.219v4.471h2.2V54.006Zm0-31.262v4.471h2.2V22.744ZM45.453,98.225V102.7h2.2V98.225Zm0-44.219v4.471h2.2V54.006Zm0-31.262v4.471h2.2V22.744ZM87.37,98.225V102.7h2.2V98.225Zm0-44.219v4.471h2.2V54.006Zm0-31.262v4.471h2.2V22.744ZM45.453,98.225V102.7h2.2V98.225Zm0-44.219v4.471h2.2V54.006Zm0-31.262v4.471h2.2V22.744ZM87.37,98.225V102.7h2.2V98.225Zm0-44.219v4.471h2.2V54.006Zm0-31.262v4.471h2.2V22.744ZM45.453,98.225V102.7h2.2V98.225Zm0-44.219v4.471h2.2V54.006Zm0-31.262v4.471h2.2V22.744ZM87.37,98.225V102.7h2.2V98.225Zm0-44.219v4.471h2.2V54.006Zm0-31.262v4.471h2.2V22.744ZM45.453,98.225V102.7h2.2V98.225Zm0-44.219v4.471h2.2V54.006Zm0-31.262v4.471h2.2V22.744ZM87.37,98.225V102.7h2.2V98.225Zm0-44.219v4.471h2.2V54.006Zm0-31.262v4.471h2.2V22.744ZM45.453,98.225V102.7h2.2V98.225Zm0-44.219v4.471h2.2V54.006Zm0-31.262v4.471h2.2V22.744ZM87.37,98.259v4.471h2.2V98.259Zm0-44.219v4.471h2.2V54.04Zm2.2-31.3-2.2.034v4.471h2.2v-4.5Zm0,75.515v4.471h0V98.259Zm0-44.219v4.471h0V54.04Zm0-31.3v4.5h0v-4.5ZM1.32,16.08V127.733H111.636V16.08ZM87.37,27.249H71.92V22.778H87.37ZM71.92,29.476H87.37v9.819H71.92Zm17.65,0H105v9.819H89.57V29.476Zm0-2.227v-4.5H105v4.5H89.57ZM71.92,70.574V60.755H87.37v9.819ZM87.37,58.528H71.92V54.057H87.37ZM71.92,98.276H87.37v4.471H71.92Zm17.65,0H105v4.471H89.57V98.276Zm0-27.686V60.772H105v9.819H89.57Zm0-12.046V54.074H105v4.471H89.57ZM71.92,104.991H87.37v9.819H71.92Zm17.65,0H105v9.819H89.57v-9.819ZM45.453,27.249H30.02V22.778H45.453ZM30.02,29.476H45.453v9.819H30.02Zm17.65,0H63.12v9.819H47.67V29.476Zm0-2.227v-4.5H63.12v4.5H47.67Zm-2.2,31.262H30.037V54.04H45.47ZM30.037,70.557V60.738H45.47v9.819Zm0,27.686H45.47v4.471H30.037Zm17.65,4.471V98.242h15.45v4.471Zm0-32.156V60.738h15.45v9.819Zm0-12.046V54.04h15.45v4.471Zm-17.65,46.446H45.47v9.819H30.037Zm17.65,0h15.45v9.819H47.687Zm-26.467,0v8.925H7.953v-8.925H21.187Zm0-75.481v9.819H7.953V29.476H21.187ZM7.987,22.744H21.22v4.5H7.953v-4.5Zm0,75.515H21.22v4.471H7.953V98.259Zm0-28.6V60.738H21.22v8.925H7.953Zm0-11.152V54.04H21.22v4.471H7.953ZM89.57,22.744l-2.2.034v4.471h2.2v-4.5Zm-2.2,31.3v4.471h2.2V54.04Zm0,44.219v4.471h2.2V98.259ZM45.453,22.778v4.471h2.2v-4.5Zm0,31.262v4.471h2.2V54.04Zm0,44.219v4.471h2.2V98.259ZM89.57,22.744l-2.2.034v4.471h2.2v-4.5Zm-2.2,31.3v4.471h2.2V54.04Zm0,44.219v4.471h2.2V98.259ZM45.453,22.778v4.471h2.2v-4.5Zm0,31.262v4.471h2.2V54.04Zm0,44.219v4.471h2.2V98.259ZM89.57,22.744l-2.2.034v4.471h2.2v-4.5Zm-2.2,31.3v4.471h2.2V54.04Zm0,44.219v4.471h2.2V98.259ZM45.453,22.778v4.471h2.2v-4.5Zm0,31.262v4.471h2.2V54.04Zm0,44.219v4.471h2.2V98.259ZM89.57,22.744l-2.2.034v4.471h2.2v-4.5Zm-2.2,31.3v4.471h2.2V54.04Zm0,44.219v4.471h2.2V98.259ZM45.453,22.778v4.471h2.2v-4.5Zm0,31.262v4.471h2.2V54.04Zm0,44.219v4.471h2.2V98.259ZM89.57,22.744l-2.2.034v4.471h2.2v-4.5Zm-2.2,31.3v4.471h2.2V54.04Zm0,44.219v4.471h2.2V98.259ZM45.453,22.778v4.471h2.2v-4.5Zm0,31.262v4.471h2.2V54.04Zm0,44.219v4.471h2.2V98.259ZM89.57,22.744l-2.2.034v4.471h2.2v-4.5Zm-2.2,31.3v4.471h2.2V54.04Zm0,44.219v4.471h2.2V98.259ZM45.453,22.778v4.471h2.2v-4.5Zm0,31.262v4.471h2.2V54.04Zm0,44.219v4.471h2.2V98.259ZM89.57,22.744l-2.2.034v4.471h2.2v-4.5Zm-2.2,31.3v4.471h2.2V54.04Zm0,44.219v4.471h2.2V98.259ZM45.453,22.778v4.471h2.2v-4.5Zm0,31.262v4.471h2.2V54.04Zm0,44.219v4.471h2.2V98.259ZM89.57,22.744l-2.2.034v4.471h2.2v-4.5Zm-2.2,31.3v4.471h2.2V54.04Zm0,44.219v4.471h2.2V98.259ZM45.453,22.778v4.471h2.2v-4.5Zm0,31.262v4.471h2.2V54.04Zm0,44.219v4.471h2.2V98.259ZM89.57,22.744l-2.2.034v4.471h2.2v-4.5Zm-2.2,31.3v4.471h2.2V54.04Zm0,44.219v4.471h2.2V98.259ZM45.453,22.778v4.471h2.2v-4.5Zm0,31.262v4.471h2.2V54.04Zm0,44.219v4.471h2.2V98.259ZM89.57,22.744l-2.2.034v4.471h2.2v-4.5Zm-2.2,31.3v4.471h2.2V54.04Zm0,44.219v4.471h2.2V98.259ZM45.453,22.778v4.471h2.2v-4.5Zm0,31.262v4.471h2.2V54.04Zm0,44.219v4.471h2.2V98.259ZM89.57,22.744l-2.2.034v4.471h2.2v-4.5Zm-2.2,31.3v4.471h2.2V54.04Zm0,44.219v4.471h2.2V98.259ZM45.453,22.778v4.471h2.2v-4.5Zm0,31.262v4.471h2.2V54.04Zm0,44.219v4.471h2.2V98.259ZM89.57,22.744l-2.2.034v4.471h2.2v-4.5Zm-2.2,31.3v4.471h2.2V54.04Zm0,44.219v4.471h2.2V98.259ZM45.453,22.778v4.471h2.2v-4.5Zm0,31.262v4.471h2.2V54.04Zm0,44.219v4.471h2.2V98.259ZM89.57,22.744l-2.2.034v4.471h2.2v-4.5Zm-2.2,31.3v4.471h2.2V54.04Zm0,44.219v4.471h2.2V98.259ZM45.453,22.778v4.471h2.2v-4.5Zm0,31.262v4.471h2.2V54.04Zm0,44.219v4.471h2.2V98.259ZM89.57,22.744l-2.2.034v4.471h2.2v-4.5Zm-2.2,31.3v4.471h2.2V54.04Zm0,44.219v4.471h2.2V98.259ZM45.453,22.778v4.471h2.2v-4.5Zm0,31.262v4.471h2.2V54.04Zm0,44.219v4.471h2.2V98.259ZM89.57,22.744l-2.2.034v4.471h2.2v-4.5Zm-2.2,31.3v4.471h2.2V54.04Zm0,44.219v4.471h2.2V98.259ZM45.453,22.778v4.471h2.2v-4.5Zm0,31.262v4.471h2.2V54.04Zm0,44.219v4.471h2.2V98.259ZM89.57,22.744l-2.2.034v4.471h2.2v-4.5Zm-2.2,31.3v4.471h2.2V54.04Zm0,44.219v4.471h2.2V98.259ZM45.453,22.778v4.471h2.2V22.761l-2.2.034Zm0,31.262v4.471h2.2V54.04Zm0,44.219v4.471h2.2V98.259ZM89.57,22.744l-2.2.034v4.471h2.2V22.761h0Zm-2.2,31.3v4.471h2.2V54.04Zm0,44.219v4.471h2.2V98.259Zm-41.917-75.5v4.471h2.2V22.744h-2.2Zm0,31.3v4.471h2.2V54.057Zm0,44.219v4.471h2.2V98.276ZM89.57,22.744h-2.2v4.488h2.2V22.744Zm-2.2,31.3v4.471h2.2V54.04Zm0,44.219v4.471h2.2V98.259Zm-41.917-75.5v4.471h2.2V22.744h-2.2Zm0,31.3v4.471h2.2V54.057Zm0,44.219v4.471h2.2V98.276ZM89.57,22.744h-2.2v4.488h2.2V22.744Zm-2.2,31.3v4.471h2.2V54.04Zm0,44.219v4.471h2.2V98.259Zm-41.917-75.5v4.471h2.2V22.744h-2.2Zm0,31.3v4.471h2.2V54.057Zm0,44.219v4.471h2.2V98.276ZM89.57,22.744h-2.2v4.488h2.2V22.744Zm-2.2,31.3v4.471h2.2V54.04Zm0,44.219v4.471h2.2V98.259Zm-41.917-75.5v4.471h2.2V22.744h-2.2Zm0,31.3v4.471h2.2V54.057Zm0,44.219v4.471h2.2V98.276ZM89.57,22.744h-2.2v4.488h2.2V22.744Zm-2.2,31.3v4.471h2.2V54.04Zm0,44.219v4.471h2.2V98.259Zm-41.917-75.5v4.471h2.2V22.744h-2.2Zm0,31.279v4.471h2.2V54.04Zm0,44.219v4.471h2.2V98.259ZM89.57,22.744h-2.2v4.488h2.2V22.744Zm-2.2,31.279v4.471h2.2V54.023Zm0,44.219v4.471h2.2V98.242ZM45.453,22.761v4.471h2.2V22.744h-2.2Zm0,31.279v4.471h2.2V54.04Zm0,44.219v4.471h2.2V98.259ZM89.57,22.744h-2.2v4.488h2.2V22.744Zm-2.2,31.279v4.471h2.2V54.023Zm0,44.219v4.471h2.2V98.242ZM45.453,22.761v4.471h2.2V22.744h-2.2Zm0,31.279v4.471h2.2V54.04Zm0,44.219v4.471h2.2V98.259ZM89.57,22.744h-2.2v4.488h2.2V22.744Zm-2.2,31.279v4.471h2.2V54.023Zm0,44.219v4.471h2.2V98.242ZM45.453,22.761v4.471h2.2V22.744h-2.2Zm0,31.279v4.471h2.2V54.04Zm0,44.219v4.471h2.2V98.259ZM89.57,22.744h-2.2v4.488h2.2V22.744Zm-2.2,31.279v4.471h2.2V54.023Zm0,44.219v4.471h2.2V98.242ZM45.453,22.761v4.471h2.2V22.744h-2.2Zm0,31.279v4.471h2.2V54.04Zm0,44.219v4.471h2.2V98.259ZM89.57,22.744h-2.2v4.488h2.2V22.744Zm-2.2,31.279v4.471h2.2V54.023Zm0,44.219v4.471h2.2V98.242ZM45.453,22.761v4.471h2.2V22.744h-2.2Zm0,31.279v4.471h2.2V54.04Zm0,44.219v4.471h2.2V98.259ZM89.57,22.744h-2.2v4.488h2.2V22.744Zm-2.2,31.279v4.471h2.2V54.023Zm0,44.219v4.471h2.2V98.242ZM45.453,22.761v4.471h2.2V22.744h-2.2Zm0,31.279v4.471h2.2V54.04Zm0,44.219v4.471h2.2V98.259ZM89.57,22.744h-2.2v4.488h2.2V22.744Zm-2.2,31.279v4.471h2.2V54.023Zm0,44.219v4.471h2.2V98.242ZM45.453,22.761v4.471h2.2V22.744h-2.2Zm0,31.279v4.471h2.2V54.04Zm0,44.219v4.471h2.2V98.259ZM89.57,22.744h-2.2v4.488h2.2V22.744Zm-2.2,31.279v4.471h2.2V54.023Zm0,44.219v4.471h2.2V98.242ZM45.453,22.761v4.471h2.2V22.744h-2.2Zm0,31.279v4.471h2.2V54.04Zm0,44.219v4.471h2.2V98.259ZM89.57,22.744h-2.2v4.488h2.2V22.744Zm-2.2,31.279v4.471h2.2V54.023Zm0,44.219v4.471h2.2V98.242ZM45.453,22.761v4.471h2.2V22.744h-2.2Zm0,31.279v4.471h2.2V54.04Zm0,44.219v4.471h2.2V98.259ZM89.57,22.744h-2.2v4.488h2.2V22.744Zm-2.2,31.279v4.471h2.2V54.023Zm0,44.219v4.471h2.2V98.242ZM45.453,22.761v4.471h2.2V22.744h-2.2Zm0,31.279v4.471h2.2V54.04Zm0,44.219v4.471h2.2V98.259ZM89.57,22.744h-2.2v4.488h2.2V22.744Zm-2.2,31.279v4.471h2.2V54.023Zm0,44.219v4.471h2.2V98.242ZM45.453,22.761v4.471h2.2V22.744h-2.2Zm0,31.279v4.471h2.2V54.04Zm0,44.219v4.471h2.2V98.259ZM89.57,22.744h-2.2v4.488h2.2V22.744Zm-2.2,31.279v4.471h2.2V54.023Zm0,44.219v4.471h2.2V98.242ZM45.453,22.761v4.471h2.2V22.744h-2.2Zm0,31.279v4.471h2.2V54.04Zm0,44.219v4.471h2.2V98.259ZM89.57,22.744h-2.2v4.488h2.2V22.744Zm-2.2,31.279v4.471h2.2V54.023Zm0,44.219v4.471h2.2V98.242ZM45.453,22.761v4.471h2.2V22.744h-2.2Zm0,31.279v4.471h2.2V54.04Zm0,44.219v4.471h2.2V98.259ZM89.57,22.744h-2.2v4.488h2.2V22.744Zm-2.2,31.279v4.471h2.2V54.023Zm0,44.219v4.471h2.2V98.242ZM45.453,22.761v4.471h2.2V22.744h-2.2Zm0,31.279v4.471h2.2V54.04Zm0,44.219v4.471h2.2V98.259ZM89.57,22.744h-2.2v4.488h2.2V22.744Zm-2.2,31.279v4.471h2.2V54.023Zm0,44.219v4.471h2.2V98.242ZM45.453,22.761v4.471h2.2V22.761Zm0,31.262v4.471h2.2V54.023Zm0,44.219v4.471h2.2V98.242Zm44.117-75.5h-2.2v4.471h2.2V22.744Zm-2.2,31.262v4.471h2.2V54.006Zm0,44.219V102.7h2.2V98.225ZM45.453,22.761v4.471h2.2V22.761Zm0,31.262v4.471h2.2V54.023Zm0,44.219v4.471h2.2V98.242Zm44.117-75.5h-2.2v4.471h2.2V22.744Zm-2.2,31.262v4.471h2.2V54.006Zm0,44.219V102.7h2.2V98.225ZM45.453,22.744v4.471h2.2V22.744Zm0,31.262v4.471h2.2V54.006Zm0,44.219V102.7h2.2V98.225ZM89.57,22.744h-2.2v4.471h2.2V22.744Zm-2.2,31.262v4.471h2.2V54.006ZM45.453,22.744v4.471h2.2V22.744Zm0,31.262v4.471h2.2V54.006Zm0,44.219V102.7h2.2V98.225ZM89.57,22.744h-2.2v4.471h2.2V22.744Zm-44.117,0v4.471h2.2V22.744Zm0,31.262v4.471h2.2V54.006Zm0,44.219V102.7h2.2V98.225Zm0-75.481v4.471h2.2V22.744Zm0,31.262v4.471h2.2V54.006Zm0,44.219V102.7h2.2V98.225Zm0-75.481v4.471h2.2V22.744Zm0,31.262v4.471h2.2V54.006Zm0,44.219V102.7h2.2V98.225Zm0-75.481v4.471h2.2V22.744Zm0,31.262v4.471h2.2V54.006Zm0,44.219V102.7h2.2V98.225Zm0-75.481v4.471h2.2V22.744Zm0,31.262v4.471h2.2V54.006Zm0,44.219V102.7h2.2V98.225Zm0-75.481v4.471h2.2V22.744Zm0,31.262v4.471h2.2V54.006Zm0,44.219V102.7h2.2V98.225Zm0-75.481v4.471h2.2V22.744Zm0,31.262v4.471h2.2V54.006Zm0,44.219V102.7h2.2V98.225Zm0-75.481v4.471h2.2V22.744Zm0,31.262v4.471h2.2V54.006Zm0,44.219V102.7h2.2V98.225Zm0-75.481v4.471h2.2V22.744Zm0,31.262v4.471h2.2V54.006Zm0-31.262v4.471h2.2V22.744Zm0,31.262v4.471h2.2V54.006Zm0-31.262v4.471h2.2V22.744Zm0,31.262v4.471h2.2V54.006Z" transform="translate(0.88 10.745)" fill="#fff"/>
    <path id="Path_43" data-name="Path 43" d="M321.17,93.7v4.471h2.2V93.7Zm0,0v4.471h2.2V93.7Zm0-33.05V65.1h2.2V60.647Zm0,33.05v4.471h2.2V93.7Zm0-33.05V65.1h2.2V60.647Zm0,33.05v4.471h2.2V93.7Zm0-33.05V65.1h2.2V60.647Zm.083-31.262h-.083v4.471h2.2V29.385h-2.117ZM321.17,93.7v4.471h2.2V93.7Zm0-33.05V65.1h2.2V60.647Zm.083-31.262h-.083v4.471h2.2V29.385h-2.117ZM321.17,93.7v4.471h2.2V93.7Zm0-33.05V65.1h2.2V60.647Zm.083-31.262h-.083v4.471h2.2V29.385h-2.117Zm-41.917,0h-.067v4.471h2.2V29.385ZM321.17,93.7v4.471h2.2V93.7Zm0-33.05V65.1h2.2V60.647Zm.083-31.262h-.083v4.471h2.2V29.385h-2.117Zm-41.917,0h-.067v4.471h2.2V29.385ZM321.17,93.7v4.471h2.2V93.7Zm0-33.05V65.1h2.2V60.647Zm.083-31.262h-.083v4.471h2.2V29.385h-2.117ZM279.27,60.647V65.1h2.2V60.647Zm.067-31.262h-.067v4.471h2.2V29.385h-2.133ZM321.17,93.7v4.471h2.2V93.7Zm0-33.05V65.1h2.2V60.647Zm.083-31.262h-.083v4.471h2.2V29.385h-2.117ZM279.27,60.647V65.1h2.2V60.647Zm.067-31.262h-.067v4.471h2.2V29.385h-2.133ZM321.17,93.7v4.471h2.2V93.7Zm0-33.05V65.1h2.2V60.647Zm.083-31.262h-.083v4.471h2.2V29.385h-2.117ZM279.27,60.647V65.1h2.2V60.647Zm.067-31.262h-.067v4.471h2.2V29.385h-2.133ZM321.17,93.7v4.471h2.2V93.7Zm0-33.05V65.1h2.2V60.647Zm.083-31.262h-.083v4.471h2.2V29.385h-2.117ZM279.27,93.7v4.471h2.2V93.7Zm0-33.05V65.1h2.2V60.647Zm.067-31.262h-.067v4.471h2.2V29.385h-2.133ZM321.17,93.7v4.471h2.2V93.7Zm0-33.05V65.1h2.2V60.647Zm.083-31.262h-.083v4.471h2.2V29.385h-2.117ZM279.27,93.7v4.471h2.2V93.7Zm0-33.05V65.1h2.2V60.647Zm.067-31.262h-.067v4.471h2.2V29.385h-2.133ZM321.17,93.7v4.471h2.2V93.7Zm0-33.05V65.1h2.2V60.647Zm.083-31.262h-.083v4.471h2.2V29.385h-2.117ZM279.27,93.7v4.471h2.2V93.7Zm0-33.05V65.1h2.2V60.647Zm.067-31.262h-.067v4.471h2.2V29.385h-2.133ZM321.17,93.7v4.471h2.2V93.7Zm0-33.05V65.1h2.2V60.647Zm.083-31.262h-.083v4.471h2.2V29.385h-2.117ZM279.27,93.7v4.471h2.2V93.7Zm0-33.05V65.1h2.2V60.647Zm.067-31.262h-.067v4.471h2.2V29.385h-2.133ZM321.169,93.7v4.471h2.2V93.7Zm0-33.05V65.1h2.2V60.647Zm.083-31.262h-.083v4.471h2.2V29.385h-2.117ZM279.27,93.7v4.471h2.2V93.7Zm0-33.05V65.1h2.2V60.647Zm.067-31.262h-.067v4.471h2.2V29.385h-2.133Zm-42,64.313v4.471h2.217V93.7Zm83.833,0v4.471h2.2V93.7Zm0-33.05V65.1h2.2V60.647Zm.083-31.262h-.083v4.471h2.2V29.385h-2.117ZM279.27,93.7v4.471h2.2V93.7Zm0-33.05V65.1h2.2V60.647Zm.067-31.262h-.067v4.471h2.2V29.385h-2.133Zm-42,64.313v4.471h2.217V93.7Zm83.833,0v4.471h2.2V93.7Zm0-33.05V65.1h2.2V60.647Zm.083-31.262h-.083v4.471h2.2V29.385h-2.117ZM279.27,93.7v4.471h2.2V93.7Zm0-33.05V65.1h2.2V60.647Zm.067-31.262h-.067v4.471h2.2V29.385h-2.133Zm-42,64.313v4.471h2.217V93.7Zm0-33.05V65.1h2.217V60.647ZM321.169,93.7v4.471h2.2V93.7Zm0-33.05V65.1h2.2V60.647Zm.083-31.262h-.083v4.471h2.2V29.385h-2.117ZM279.27,93.7v4.471h2.2V93.7Zm0-33.05V65.1h2.2V60.647Zm.067-31.262h-.067v4.471h2.2V29.385Zm-42,64.313v4.471h2.217V93.7Zm0-33.05V65.1h2.217V60.647ZM321.169,93.7v4.471h2.2V93.7Zm0-33.05V65.1h2.2V60.647Zm.083-31.262h-.083v4.471h2.2V29.385h-2.117ZM279.269,93.7v4.471h2.2V93.7Zm0-33.05V65.1h2.2V60.647Zm.067-31.262h-.067v4.471h2.2V29.385Zm-42,64.313v4.471h2.217V93.7Zm0-33.05V65.1h2.217V60.647Zm.083-31.262h-.083v4.471h2.217V29.385ZM321.169,93.7v4.471h2.2V93.7Zm0-33.05V65.1h2.2V60.647Zm.083-31.262h-.083v4.471h2.2V29.385h-2.117ZM279.269,93.7v4.471h2.2V93.7Zm0-33.05V65.1h2.2V60.647Zm.067-31.262h-.067v4.471h2.2V29.385Zm-42,64.313v4.471h2.217V93.7Zm0-33.05V65.1h2.217V60.647Zm.083-31.262h-.083v4.471h2.217V29.385ZM321.169,93.7v4.471h2.2V93.7Zm0-33.05V65.1h2.2V60.647Zm.083-31.262h-.083v4.471h2.2V29.385h-2.117ZM279.269,93.7v4.471h2.2V93.7Zm0-33.05V65.1h2.2V60.647Zm.067-31.262h-.067v4.471h2.2V29.385Zm-42,64.313v4.471h2.217V93.7Zm0-33.05V65.1h2.217V60.647Zm.083-31.262h-.083v4.471h2.217V29.385ZM321.169,93.7v4.471h2.2V93.7Zm0-33.05V65.1h2.2V60.647Zm.083-31.262h-.083v4.471h2.2V29.385h-2.117ZM279.269,93.7v4.471h2.2V93.7Zm0-33.05V65.1h2.2V60.647Zm.067-31.262h-.067v4.471h2.2V29.385Zm-42,64.313v4.471h2.217V93.7Zm0-33.05V65.1h2.217V60.647Zm.083-31.262h-.083v4.471h2.217V29.385ZM321.169,93.7v4.471h2.2V93.7Zm0-33.05V65.1h2.2V60.647Zm.083-31.262h-.083v4.471h2.2V29.385h-2.117ZM279.269,93.7v4.471h2.2V93.7Zm0-33.05V65.1h2.2V60.647Zm.067-31.262h-.067v4.471h2.2V29.385Zm-42,64.313v4.471h2.217V93.7Zm0-33.05V65.1h2.217V60.647Zm.083-31.262h-.083v4.471h2.217V29.385ZM321.169,93.7v4.471h2.2V93.7Zm0-33.05V65.1h2.2V60.647Zm.083-31.262h-.083v4.471h2.2V29.385h-2.117ZM279.269,93.7v4.471h2.2V93.7Zm0-33.05V65.1h2.2V60.647Zm.067-31.262h-.067v4.471h2.2V29.385Zm-42,64.313v4.471h2.217V93.7Zm0-33.05V65.1h2.217V60.647Zm.083-31.262h-.083v4.471h2.217V29.385ZM321.169,93.7v4.471h2.2V93.7Zm0-33.05V65.1h2.2V60.647Zm.083-31.262h-.083v4.471h2.2V29.385h-2.117ZM279.269,93.7v4.471h2.2V93.7Zm0-33.05V65.1h2.2V60.647Zm.067-31.262h-.067v4.471h2.2V29.385Zm-42,64.313v4.471h2.217V93.7Zm0-33.05V65.1h2.217V60.647Zm.083-31.262h-.083v4.471h2.217V29.385ZM321.169,93.7v4.471h2.2V93.7Zm0-33.05V65.1h2.2V60.647Zm.083-31.262h-.083v4.471h2.2V29.385h-2.117ZM279.269,93.7v4.471h2.2V93.7Zm0-33.05V65.1h2.2V60.647Zm.067-31.262h-.067v4.471h2.2V29.385Zm-42,64.313v4.471h2.217V93.7Zm0-33.05V65.1h2.217V60.647Zm.083-31.262h-.083v4.471h2.217V29.385ZM321.169,93.7v4.471h2.2V93.7Zm0-33.05V65.1h2.2V60.647Zm.083-31.262h-.083v4.471h2.2V29.385h-2.117ZM279.269,93.7v4.471h2.2V93.7Zm0-33.05V65.1h2.2V60.647Zm.067-31.262h-.067v4.471h2.2V29.385Zm-42,64.313v4.471h2.217V93.7Zm0-33.05V65.1h2.217V60.647Zm.083-31.262h-.083v4.471h2.217V29.385ZM321.169,93.7v4.471h2.2V93.7Zm0-33.05V65.1h2.2V60.647Zm.083-31.262h-.083v4.471h2.2V29.385h-2.117ZM279.269,93.7v4.471h2.2V93.7Zm0-33.05V65.1h2.2V60.647Zm.067-31.262h-.067v4.471h2.2V29.385Zm-42,64.313v4.471h2.217V93.7Zm0-33.05V65.1h2.217V60.647Zm.083-31.262h-.083v4.471h2.217V29.385ZM321.169,93.7v4.471h2.2V93.7Zm0-33.05V65.1h2.2V60.647Zm.083-31.262h-.083v4.471h2.2V29.385h-2.117ZM279.269,93.7v4.471h2.2V93.7Zm0-33.05V65.1h2.2V60.647Zm.067-31.262h-.067v4.471h2.2V29.385Zm-42,64.313v4.471h2.217V93.7Zm0-33.05V65.1h2.217V60.647Zm.083-31.262h-.083v4.471h2.217V29.385ZM321.169,93.7v4.471h2.2V93.7Zm0-33.05V65.1h2.2V60.647Zm.083-31.262h-.083v4.471h2.2V29.385h-2.117ZM279.269,93.7v4.471h2.2V93.7Zm0-33.05V65.1h2.2V60.647Zm.067-31.262h-.067v4.471h2.2V29.385Zm-42,64.313v4.471h2.217V93.7Zm0-33.05V65.1h2.217V60.647Zm.083-31.262h-.083v4.471h2.217V29.385ZM321.169,93.7v4.471h2.2V93.7Zm0-33.05V65.1h2.2V60.647Zm.083-31.262h-.083v4.471h2.2V29.385h-2.117ZM279.269,93.7v4.471h2.2V93.7Zm0-33.05V65.1h2.2V60.647Zm.067-31.262h-.067v4.471h2.2V29.385Zm-42,64.313v4.471h2.217V93.7Zm0-33.05V65.1h2.217V60.647Zm.083-31.262h-.083v4.471h2.217V29.385ZM321.169,93.7v4.471h2.2V93.7Zm0-33.05V65.1h2.2V60.647Zm.083-31.262h-.083v4.471h2.2V29.385h-2.117ZM279.269,93.7v4.471h2.2V93.7Zm0-33.05V65.1h2.2V60.647Zm.067-31.262h-.067v4.471h2.2V29.385Zm-42,64.313v4.471h2.217V93.7Zm0-33.05V65.1h2.217V60.647Zm.083-31.262h-.083v4.471h2.217V29.385ZM321.169,93.7v4.471h2.2V93.7Zm0-33.05V65.1h2.2V60.647Zm.083-31.262h-.083v4.471h2.2V29.385h-2.117ZM279.269,93.7v4.471h2.2V93.7Zm0-33.05V65.1h2.2V60.647Zm.067-31.262h-.067v4.471h2.2V29.385Zm-42,64.313v4.471h2.217V93.7Zm0-33.05V65.1h2.217V60.647Zm.083-31.262h-.083v4.471h2.217V29.385ZM321.169,93.7v4.471h2.2V93.7Zm0-33.05V65.1h2.2V60.647Zm.083-31.262h-.083v4.471h2.2V29.385h-2.117ZM279.269,93.7v4.471h2.2V93.7Zm0-33.05V65.1h2.2V60.647Zm.067-31.262h-.067v4.471h2.2V29.385Zm-42,64.313v4.471h2.217V93.7Zm0-33.05V65.1h2.217V60.647Zm.083-31.262h-.083v4.471h2.217V29.385ZM321.169,93.7v4.471h2.2V93.7Zm0-33.05V65.1h2.2V60.647Zm.083-31.262h-.083v4.471h2.2V29.385h-2.117ZM279.269,93.7v4.471h2.2V93.7Zm0-33.05V65.1h2.2V60.647Zm.067-31.262h-.067v4.471h2.2V29.385Zm-42,64.313v4.471h2.217V93.7Zm0-33.05V65.1h2.217V60.647Zm.083-31.262h-.083v4.471h2.217V29.385Zm-.083,64.3v4.471h0V93.68Zm0-33.05v4.454h0V60.63Zm0-31.262v4.471h0V29.368Zm-24.267-6.7V123.154H345.453V22.687H213.07Zm92.666,75.481V93.68h15.433v4.471Zm17.65-30.807h15.45v9.819h-15.45Zm15.45-6.7V65.1h-15.45V60.647Zm-17.65,0V65.1H305.753V60.647Zm0,6.7v9.819H305.753V67.345Zm2.2,26.336h15.45v4.471h-15.45Zm0-47.779V36.083h15.45V45.9Zm15.45-16.517v4.471h-15.45V29.385Zm-17.65,0v4.471H305.753V29.385Zm0,6.7V45.9H305.753V36.083h15.433ZM263.819,98.168V93.7h15.45v4.471Zm17.65-30.824H296.9v9.819H281.469Zm15.433-6.7V65.1H281.469V60.647Zm-17.633,0V65.1h-15.45V60.647Zm0,6.7v9.819h-15.45V67.345Zm2.2,26.353H296.9v4.471H281.469Zm0-47.779V36.1H296.9v9.819ZM296.9,29.4v4.471H281.469V29.4Zm-17.633,0v4.471h-15.45V29.4Zm0,6.7v9.819h-15.45V36.1h15.45ZM221.9,93.7h15.433v4.471H221.9Zm0-33.051h15.433V65.1H221.9ZM254.986,65.1H239.553V60.647h15.433Zm0,33.051H239.553V93.68h15.433Zm0-20.988H239.553V67.345h15.433Zm0-31.262H239.553V36.083h15.433Zm0-16.517v4.471H239.553V29.385Zm-17.65,0v4.471H221.9V29.385Zm0,6.7V45.9H221.9V36.083h15.433ZM221.9,67.345h15.433v9.819H221.9Zm15.433,42.87H221.9V100.4h15.433Zm17.65,0H239.553V100.4h15.433Zm24.267,0H263.8V100.4h15.45Zm17.633,0H281.453V100.4h15.433Zm24.267,0H305.719V100.4h15.433Zm17.65,0h-15.45V100.4H338.8ZM237.319,29.385v4.471h2.217V29.385Zm0,31.262V65.1h2.217V60.647Zm0,33.051v4.471h2.217V93.7Zm41.917-64.313v4.471h2.2V29.385Zm0,31.262V65.1h2.2V60.647Zm0,33.05v4.471h2.2V93.7Zm41.917-64.313v4.471h2.2V29.385Zm0,31.262V65.1h2.2V60.647Zm0,33.05v4.471h2.2V93.7ZM237.319,29.385v4.471h2.217V29.385Zm0,31.262V65.1h2.217V60.647Zm0,33.05v4.471h2.217V93.7Zm41.917-64.313v4.471h2.2V29.385Zm0,31.262V65.1h2.2V60.647Zm0,33.05v4.471h2.2V93.7Zm41.917-64.313v4.471h2.2V29.385Zm0,31.262V65.1h2.2V60.647Zm0,33.05v4.471h2.2V93.7ZM237.319,29.385v4.471h2.217V29.385Zm0,31.262V65.1h2.217V60.647Zm0,33.05v4.471h2.217V93.7Zm41.917-64.313v4.471h2.2V29.385Zm0,31.262V65.1h2.2V60.647Zm0,33.05v4.471h2.2V93.7Zm41.917-64.313v4.471h2.2V29.385Zm0,31.262V65.1h2.2V60.647Zm0,33.05v4.471h2.2V93.7ZM237.319,29.385v4.471h2.217V29.385Zm0,31.262V65.1h2.217V60.647Zm0,33.05v4.471h2.217V93.7Zm41.917-64.313v4.471h2.2V29.385Zm0,31.262V65.1h2.2V60.647Zm0,33.05v4.471h2.2V93.7Zm41.917-64.313v4.471h2.2V29.385Zm0,31.262V65.1h2.2V60.647Zm0,33.05v4.471h2.2V93.7ZM237.319,29.385v4.471h2.217V29.385Zm0,31.262V65.1h2.217V60.647Zm0,33.05v4.471h2.217V93.7Zm41.917-64.313v4.471h2.2V29.385Zm0,31.262V65.1h2.2V60.647Zm0,33.05v4.471h2.2V93.7Zm41.917-64.313v4.471h2.2V29.385Zm0,31.262V65.1h2.2V60.647Zm0,33.05v4.471h2.2V93.7ZM237.319,29.385v4.471h2.217V29.385Zm0,31.262V65.1h2.217V60.647Zm0,33.05v4.471h2.217V93.7Zm41.917-64.313v4.471h2.2V29.385Zm0,31.262V65.1h2.2V60.647Zm0,33.05v4.471h2.2V93.7Zm41.917-64.313v4.471h2.2V29.385Zm0,31.262V65.1h2.2V60.647Zm0,33.05v4.471h2.2V93.7ZM237.319,29.385v4.471h2.217V29.385Zm0,31.262V65.1h2.217V60.647Zm0,33.05v4.471h2.217V93.7Zm41.917-64.313v4.471h2.2V29.385Zm0,31.262V65.1h2.2V60.647Zm0,33.05v4.471h2.2V93.7Zm41.917-64.313v4.471h2.2V29.385Zm0,31.262V65.1h2.2V60.647Zm0,33.05v4.471h2.2V93.7ZM237.319,29.385v4.471h2.217V29.385Zm0,31.262V65.1h2.217V60.647Zm0,33.05v4.471h2.217V93.7Zm41.917-64.313v4.471h2.2V29.385Zm0,31.262V65.1h2.2V60.647Zm0,33.05v4.471h2.2V93.7Zm41.917-64.313v4.471h2.2V29.385Zm0,31.262V65.1h2.2V60.647Zm0,33.05v4.471h2.2V93.7ZM237.319,29.385v4.471h2.217V29.385Zm0,31.262V65.1h2.217V60.647Zm0,33.05v4.471h2.217V93.7Zm41.917-64.313v4.471h2.2V29.385Zm0,31.262V65.1h2.2V60.647Zm0,33.05v4.471h2.2V93.7Zm41.917-64.313v4.471h2.2V29.385Zm0,31.262V65.1h2.2V60.647Zm0,33.05v4.471h2.2V93.7ZM237.319,29.385v4.471h2.217V29.385Zm0,31.262V65.1h2.217V60.647Zm0,33.05v4.471h2.217V93.7Zm41.917-64.313v4.471h2.2V29.385Zm0,31.262V65.1h2.2V60.647Zm0,33.05v4.471h2.2V93.7Zm41.917-64.313v4.471h2.2V29.385Zm0,31.262V65.1h2.2V60.647Zm0,33.05v4.471h2.2V93.7ZM237.319,29.385v4.471h2.217V29.385Zm0,31.262V65.1h2.217V60.647Zm0,33.05v4.471h2.217V93.7Zm41.917-64.313v4.471h2.2V29.385Zm0,31.262V65.1h2.2V60.647Zm0,33.05v4.471h2.2V93.7Zm41.917-64.313v4.471h2.2V29.385Zm0,31.262V65.1h2.2V60.647Zm0,33.05v4.471h2.2V93.7ZM237.319,29.385v4.471h2.217V29.385Zm0,31.262V65.1h2.217V60.647Zm0,33.05v4.471h2.217V93.7Zm41.917-64.313v4.471h2.2V29.385Zm0,31.262V65.1h2.2V60.647Zm0,33.05v4.471h2.2V93.7Zm41.917-64.313v4.471h2.2V29.385Zm0,31.262V65.1h2.2V60.647Zm0,33.05v4.471h2.2V93.7ZM237.319,29.385v4.471h2.217V29.385Zm0,31.262V65.1h2.217V60.647Zm0,33.05v4.471h2.217V93.7Zm41.917-64.313v4.471h2.2V29.385Zm0,31.262V65.1h2.2V60.647Zm0,33.05v4.471h2.2V93.7Zm41.917-64.313v4.471h2.2V29.385Zm0,31.262V65.1h2.2V60.647Zm0,33.05v4.471h2.2V93.7ZM237.319,29.385v4.471h2.217V29.385Zm0,31.262V65.1h2.217V60.647Zm0,33.05v4.471h2.217V93.7Zm41.917-64.313v4.471h2.2V29.385Zm0,31.262V65.1h2.2V60.647Zm0,33.05v4.471h2.2V93.7Zm41.917-64.313v4.471h2.2V29.385Zm0,31.262V65.1h2.2V60.647Zm0,33.05v4.471h2.2V93.7ZM237.319,29.385v4.471h2.217V29.385Zm0,31.262V65.1h2.217V60.647Zm0,33.05v4.471h2.217V93.7Zm41.917-64.313v4.471h2.2V29.385Zm0,31.262V65.1h2.2V60.647Zm0,33.05v4.471h2.2V93.7Zm41.917-64.313v4.471h2.2V29.385Zm0,31.262V65.1h2.2V60.647Zm0,33.05v4.471h2.2V93.7ZM237.319,29.385v4.471h2.217V29.385Zm0,31.262V65.1h2.217V60.647Zm0,33.05v4.471h2.217V93.7Zm41.917-64.313v4.471h2.2V29.385Zm0,31.262V65.1h2.2V60.647Zm0,33.05v4.471h2.2V93.7Zm41.917-64.313v4.471h2.2V29.385Zm0,31.262V65.1h2.2V60.647Zm0,33.05v4.471h2.2V93.7ZM237.319,29.385v4.471h2.217V29.385Zm0,31.262V65.1h2.217V60.647Zm0,33.05v4.471h2.217V93.7Zm41.917-64.313v4.471h2.2V29.385Zm0,31.262V65.1h2.2V60.647Zm0,33.05v4.471h2.2V93.7Zm41.917-64.313v4.471h2.2V29.385Zm0,31.262V65.1h2.2V60.647Zm0,33.05v4.471h2.2V93.7ZM237.319,60.647V65.1h2.217V60.647Zm0,33.051v4.471h2.217V93.7Zm41.917-64.313v4.471h2.2V29.385Zm0,31.262V65.1h2.2V60.647Zm0,33.05v4.471h2.2V93.7Zm41.917-64.313v4.471h2.2V29.385Zm0,31.262V65.1h2.2V60.647Zm0,33.05v4.471h2.2V93.7ZM237.319,60.647V65.1h2.217V60.647Zm0,33.051v4.471h2.217V93.7Zm41.917-64.313v4.471h2.2V29.385Zm0,31.262V65.1h2.2V60.647Zm0,33.05v4.471h2.2V93.7Zm41.917-64.313v4.471h2.2V29.385Zm0,31.262V65.1h2.2V60.647Zm0,33.05v4.471h2.2V93.7Zm-83.833,0v4.471h2.217V93.7Zm41.917-64.313v4.471h2.2V29.385Zm0,31.262V65.1h2.2V60.647Zm0,33.05v4.471h2.2V93.7Zm41.917-64.313v4.471h2.2V29.385Zm0,31.262V65.1h2.2V60.647Zm0,33.05v4.471h2.2V93.7Zm-83.833,0v4.471h2.217V93.7Zm41.917-64.313v4.471h2.2V29.385Zm0,31.262V65.1h2.2V60.647Zm0,33.05v4.471h2.2V93.7Zm41.917-64.313v4.471h2.2V29.385Zm0,31.262V65.1h2.2V60.647Zm0,33.05v4.471h2.2V93.7Zm-83.833,0v4.471h2.217V93.7Zm41.917-64.313v4.471h2.2V29.385Zm0,31.262V65.1h2.2V60.647Zm0,33.05v4.471h2.2V93.7Zm41.917-64.313v4.471h2.2V29.385Zm0,31.262V65.1h2.2V60.647Zm0,33.05v4.471h2.2V93.7ZM279.236,29.385v4.471h2.2V29.385Zm0,31.262V65.1h2.2V60.647Zm0,33.05v4.471h2.2V93.7Zm41.917-64.313v4.471h2.2V29.385Zm0,31.262V65.1h2.2V60.647Zm0,33.05v4.471h2.2V93.7ZM279.236,29.385v4.471h2.2V29.385Zm0,31.262V65.1h2.2V60.647Zm0,33.05v4.471h2.2V93.7Zm41.917-64.313v4.471h2.2V29.385Zm0,31.262V65.1h2.2V60.647Zm0,33.05v4.471h2.2V93.7ZM279.236,29.385v4.471h2.2V29.385Zm0,31.262V65.1h2.2V60.647Zm0,33.05v4.471h2.2V93.7Zm41.917-64.313v4.471h2.2V29.385Zm0,31.262V65.1h2.2V60.647Zm0,33.05v4.471h2.2V93.7ZM279.236,29.385v4.471h2.2V29.385Zm0,31.262V65.1h2.2V60.647Zm0,33.05v4.471h2.2V93.7Zm41.917-64.313v4.471h2.2V29.385Zm0,31.262V65.1h2.2V60.647Zm0,33.05v4.471h2.2V93.7ZM279.236,29.385v4.471h2.2V29.385Zm0,31.262V65.1h2.2V60.647Zm41.917-31.262v4.471h2.2V29.385Zm0,31.262V65.1h2.2V60.647Zm0,33.05v4.471h2.2V93.7ZM279.236,29.385v4.471h2.2V29.385Zm0,31.262V65.1h2.2V60.647Zm41.917-31.262v4.471h2.2V29.385Zm0,31.262V65.1h2.2V60.647Zm0,33.05v4.471h2.2V93.7ZM279.236,29.385v4.471h2.2V29.385Zm41.917,0v4.471h2.2V29.385Zm0,31.262V65.1h2.2V60.647Zm0,33.05v4.471h2.2V93.7ZM279.236,29.385v4.471h2.2V29.385Zm41.917,0v4.471h2.2V29.385Zm0,31.262V65.1h2.2V60.647Zm0,33.05v4.471h2.2V93.7Zm0-64.313v4.471h2.2V29.385Zm0,31.262V65.1h2.2V60.647Zm0,33.05v4.471h2.2V93.7Zm0-64.313v4.471h2.2V29.385Zm0,31.262V65.1h2.2V60.647Zm0,33.05v4.471h2.2V93.7Zm0-33.051V65.1h2.2V60.647Zm0,33.051v4.471h2.2V93.7Zm0-33.051V65.1h2.2V60.647Zm0,33.051v4.471h2.2V93.7Zm0-33.051V65.1h2.2V60.647Zm0,33.051v4.471h2.2V93.7Zm0,0v4.471h2.2V93.7Z" transform="translate(142.045 15.273)" fill="#fff"/>
    <path id="Path_56" data-name="Path 56" d="M89.577,93.69v4.471h2.2V93.69Zm0,0v4.471h2.2V93.69Zm0-33.05v4.454h2.2V60.64Zm0,33.05v4.471h2.2V93.69Zm0-33.05v4.454h2.2V60.64Zm0,33.05v4.471h2.2V93.69Zm0-33.05v4.454h2.2V60.64Zm2.117-31.262H89.577v4.471h2.2V29.378ZM89.577,93.69v4.471h2.2V93.69Zm0-33.05v4.454h2.2V60.64Zm2.117-31.262H89.577v4.471h2.2V29.378ZM89.577,93.69v4.471h2.2V93.69Zm0-33.05v4.454h2.2V60.64Zm2.117-31.262H89.577v4.471h2.2V29.378Zm41.917,0h-2.133v4.471h2.2V29.378h-.083ZM89.577,93.69v4.471h2.2V93.69Zm0-33.05v4.454h2.2V60.64Zm2.117-31.262H89.577v4.471h2.2V29.378Zm41.917,0h-2.133v4.471h2.2V29.378h-.083ZM89.577,93.69v4.471h2.2V93.69Zm0-33.05v4.454h2.2V60.64Zm2.117-31.262H89.577v4.471h2.2V29.378ZM131.476,60.64v4.454h2.2V60.64Zm2.133-31.262h-2.133v4.471h2.2V29.378h-.083ZM89.577,93.69v4.471h2.2V93.69Zm0-33.05v4.454h2.2V60.64Zm2.117-31.262H89.577v4.471h2.2V29.378ZM131.476,60.64v4.454h2.2V60.64Zm2.133-31.262h-2.133v4.471h2.2V29.378h-.083ZM89.577,93.69v4.471h2.2V93.69Zm0-33.05v4.454h2.2V60.64Zm2.117-31.262H89.577v4.471h2.2V29.378ZM131.476,60.64v4.454h2.2V60.64Zm2.133-31.262h-2.133v4.471h2.2V29.378h-.083ZM89.577,93.69v4.471h2.2V93.69Zm0-33.05v4.454h2.2V60.64Zm2.117-31.262H89.577v4.471h2.2V29.378ZM131.476,93.69v4.471h2.2V93.69Zm0-33.05v4.454h2.2V60.64Zm2.133-31.262h-2.133v4.471h2.2V29.378h-.083ZM89.577,93.69v4.471h2.2V93.69Zm0-33.05v4.454h2.2V60.64Zm2.117-31.262H89.577v4.471h2.2V29.378ZM131.476,93.69v4.471h2.2V93.69Zm0-33.05v4.454h2.2V60.64Zm2.133-31.262h-2.133v4.471h2.2V29.378h-.083ZM89.577,93.69v4.471h2.2V93.69Zm0-33.05v4.454h2.2V60.64Zm2.117-31.262H89.577v4.471h2.2V29.378ZM131.476,93.69v4.471h2.2V93.69Zm0-33.05v4.454h2.2V60.64Zm2.133-31.262h-2.133v4.471h2.2V29.378h-.083ZM89.577,93.69v4.471h2.2V93.69Zm0-33.05v4.454h2.2V60.64Zm2.117-31.262H89.577v4.471h2.2V29.378ZM131.476,93.69v4.471h2.2V93.69Zm0-33.05v4.454h2.2V60.64Zm2.133-31.262h-2.133v4.471h2.2V29.378h-.083ZM89.577,93.69v4.471h2.2V93.69Zm0-33.05v4.454h2.2V60.64Zm2.117-31.262H89.577v4.471h2.2V29.378ZM131.476,93.69v4.471h2.2V93.69Zm0-33.05v4.454h2.2V60.64Zm2.133-31.262h-2.133v4.471h2.2V29.378h-.083ZM173.393,93.69v4.471h2.217V93.69Zm-83.816,0v4.471h2.2V93.69Zm0-33.05v4.454h2.2V60.64Zm2.117-31.262H89.577v4.471h2.2V29.378ZM131.476,93.69v4.471h2.2V93.69Zm0-33.05v4.454h2.2V60.64Zm2.133-31.262h-2.133v4.471h2.2V29.378h-.083ZM173.393,93.69v4.471h2.217V93.69Zm-83.816,0v4.471h2.2V93.69Zm0-33.05v4.454h2.2V60.64Zm2.117-31.262H89.577v4.471h2.2V29.378ZM131.476,93.69v4.471h2.2V93.69Zm0-33.05v4.454h2.2V60.64Zm2.133-31.262h-2.133v4.471h2.2V29.378h-.083ZM173.393,93.69v4.471h2.217V93.69Zm0-33.05v4.454h2.217V60.64ZM89.577,93.69v4.471h2.2V93.69Zm0-33.05v4.454h2.2V60.64Zm2.117-31.262H89.577v4.471h2.2V29.378ZM131.476,93.69v4.471h2.2V93.69Zm0-33.05v4.454h2.2V60.64Zm2.133-31.262h-2.133v4.471h2.2V29.378h-.083ZM173.393,93.69v4.471h2.217V93.69Zm0-33.05v4.454h2.217V60.64ZM89.577,93.69v4.471h2.2V93.69Zm0-33.05v4.454h2.2V60.64Zm2.117-31.262H89.577v4.471h2.2V29.378ZM131.476,93.69v4.471h2.2V93.69Zm0-33.05v4.454h2.2V60.64Zm2.133-31.262h-2.133v4.471h2.2V29.378h-.083ZM173.393,93.69v4.471h2.217V93.69Zm0-33.05v4.454h2.217V60.64Zm2.133-31.262h-2.133v4.471h2.217V29.378ZM89.577,93.69v4.471h2.2V93.69Zm0-33.05v4.454h2.2V60.64Zm2.117-31.262H89.577v4.471h2.2V29.378ZM131.476,93.69v4.471h2.2V93.69Zm0-33.05v4.454h2.2V60.64Zm2.133-31.262h-2.133v4.471h2.2V29.378h-.083ZM173.393,93.69v4.471h2.217V93.69Zm0-33.05v4.454h2.217V60.64Zm2.133-31.262h-2.133v4.471h2.217V29.378ZM89.577,93.69v4.471h2.2V93.69Zm0-33.05v4.454h2.2V60.64Zm2.117-31.262H89.577v4.471h2.2V29.378ZM131.476,93.69v4.471h2.2V93.69Zm0-33.05v4.454h2.2V60.64Zm2.133-31.262h-2.133v4.471h2.2V29.378h-.083ZM173.393,93.69v4.471h2.217V93.69Zm0-33.05v4.454h2.217V60.64Zm2.133-31.262h-2.133v4.471h2.217V29.378ZM89.577,93.69v4.471h2.2V93.69Zm0-33.05v4.454h2.2V60.64Zm2.117-31.262H89.577v4.471h2.2V29.378ZM131.476,93.69v4.471h2.2V93.69Zm0-33.05v4.454h2.2V60.64Zm2.133-31.262h-2.133v4.471h2.2V29.378h-.083ZM173.393,93.69v4.471h2.217V93.69Zm0-33.05v4.454h2.217V60.64Zm2.133-31.262h-2.133v4.471h2.217V29.378ZM89.577,93.69v4.471h2.2V93.69Zm0-33.05v4.454h2.2V60.64Zm2.117-31.262H89.577v4.471h2.2V29.378ZM131.476,93.69v4.471h2.2V93.69Zm0-33.05v4.454h2.2V60.64Zm2.133-31.262h-2.133v4.471h2.2V29.378h-.083ZM173.393,93.69v4.471h2.217V93.69Zm0-33.05v4.454h2.217V60.64Zm2.133-31.262h-2.133v4.471h2.217V29.378ZM89.577,93.69v4.471h2.2V93.69Zm0-33.05v4.454h2.2V60.64Zm2.117-31.262H89.577v4.471h2.2V29.378ZM131.476,93.69v4.471h2.2V93.69Zm0-33.05v4.454h2.2V60.64Zm2.133-31.262h-2.133v4.471h2.2V29.378h-.083ZM173.393,93.69v4.471h2.217V93.69Zm0-33.05v4.454h2.217V60.64Zm2.133-31.262h-2.133v4.471h2.217V29.378ZM89.577,93.69v4.471h2.2V93.69Zm0-33.05v4.454h2.2V60.64Zm2.117-31.262H89.577v4.471h2.2V29.378ZM131.476,93.69v4.471h2.2V93.69Zm0-33.05v4.454h2.2V60.64Zm2.133-31.262h-2.133v4.471h2.2V29.378h-.083ZM173.393,93.69v4.471h2.217V93.69Zm0-33.05v4.454h2.217V60.64Zm2.133-31.262h-2.133v4.471h2.217V29.378ZM89.577,93.69v4.471h2.2V93.69Zm0-33.05v4.454h2.2V60.64Zm2.117-31.262H89.577v4.471h2.2V29.378ZM131.476,93.69v4.471h2.2V93.69Zm0-33.05v4.454h2.2V60.64Zm2.133-31.262h-2.133v4.471h2.2V29.378h-.083ZM173.393,93.69v4.471h2.217V93.69Zm0-33.05v4.454h2.217V60.64Zm2.133-31.262h-2.133v4.471h2.217V29.378ZM89.577,93.69v4.471h2.2V93.69Zm0-33.05v4.454h2.2V60.64Zm2.117-31.262H89.577v4.471h2.2V29.378ZM131.476,93.69v4.471h2.2V93.69Zm0-33.05v4.454h2.2V60.64Zm2.133-31.262h-2.133v4.471h2.2V29.378h-.083ZM173.393,93.69v4.471h2.217V93.69Zm0-33.05v4.454h2.217V60.64Zm2.133-31.262h-2.133v4.471h2.217V29.378ZM89.577,93.69v4.471h2.2V93.69Zm0-33.05v4.454h2.2V60.64Zm2.117-31.262H89.577v4.471h2.2V29.378ZM131.476,93.69v4.471h2.2V93.69Zm0-33.05v4.454h2.2V60.64Zm2.133-31.262h-2.133v4.471h2.2V29.378h-.083ZM173.393,93.69v4.471h2.217V93.69Zm0-33.05v4.454h2.217V60.64Zm2.133-31.262h-2.133v4.471h2.217V29.378ZM89.577,93.69v4.471h2.2V93.69Zm0-33.05v4.454h2.2V60.64Zm2.117-31.262H89.577v4.471h2.2V29.378ZM131.476,93.69v4.471h2.2V93.69Zm0-33.05v4.454h2.2V60.64Zm2.133-31.262h-2.133v4.471h2.2V29.378h-.083ZM173.393,93.69v4.471h2.217V93.69Zm0-33.05v4.454h2.217V60.64Zm2.133-31.262h-2.133v4.471h2.217V29.378ZM89.577,93.69v4.471h2.2V93.69Zm0-33.05v4.454h2.2V60.64Zm2.117-31.262H89.577v4.471h2.2V29.378ZM131.476,93.69v4.471h2.2V93.69Zm0-33.05v4.454h2.2V60.64Zm2.133-31.262h-2.133v4.471h2.2V29.378h-.083ZM173.393,93.69v4.471h2.217V93.69Zm0-33.05v4.454h2.217V60.64Zm2.133-31.262h-2.133v4.471h2.217V29.378ZM89.577,93.69v4.471h2.2V93.69Zm0-33.05v4.454h2.2V60.64Zm2.117-31.262H89.577v4.471h2.2V29.378ZM131.476,93.69v4.471h2.2V93.69Zm0-33.05v4.454h2.2V60.64Zm2.133-31.262h-2.133v4.471h2.2V29.378h-.083ZM173.393,93.69v4.471h2.217V93.69Zm0-33.05v4.454h2.217V60.64Zm2.133-31.262h-2.133v4.471h2.217V29.378ZM89.577,93.69v4.471h2.2V93.69Zm0-33.05v4.454h2.2V60.64Zm2.117-31.262H89.577v4.471h2.2V29.378ZM131.476,93.69v4.471h2.2V93.69Zm0-33.05v4.454h2.2V60.64Zm2.133-31.262h-2.133v4.471h2.2V29.378h-.083ZM173.393,93.69v4.471h2.217V93.69Zm0-33.05v4.454h2.217V60.64Zm2.133-31.262h-2.133v4.471h2.217V29.378ZM89.577,93.69v4.471h2.2V93.69Zm0-33.05v4.454h2.2V60.64Zm2.117-31.262H89.577v4.471h2.2V29.378ZM131.476,93.69v4.471h2.2V93.69Zm0-33.05v4.454h2.2V60.64Zm2.133-31.262h-2.133v4.471h2.2V29.378h-.083ZM173.393,93.69v4.471h2.217V93.69Zm0-33.05v4.454h2.217V60.64Zm2.133-31.262h-2.133v4.471h2.217V29.378ZM89.577,93.69v4.471h2.2V93.69Zm0-33.05v4.454h2.2V60.64Zm2.117-31.262H89.577v4.471h2.2V29.378ZM131.476,93.69v4.471h2.2V93.69Zm0-33.05v4.454h2.2V60.64Zm2.133-31.262h-2.133v4.471h2.2V29.378h-.083ZM173.393,93.69v4.471h2.217V93.69Zm0-33.05v4.454h2.217V60.64Zm2.133-31.262h-2.133v4.471h2.217V29.378ZM89.577,93.69v4.471h2.2V93.69Zm0-33.05v4.454h2.2V60.64Zm2.117-31.262H89.577v4.471h2.2V29.378ZM131.476,93.69v4.471h2.2V93.69Zm0-33.05v4.454h2.2V60.64Zm2.133-31.262h-2.133v4.471h2.2V29.378h-.083ZM173.393,93.69v4.471h2.217V93.69Zm0-33.05v4.454h2.217V60.64Zm2.133-31.262h-2.133v4.471h2.217V29.378Zm.083,64.313v4.471h0V93.69Zm0-33.05v4.454h0V60.64Zm0-31.262v4.471h0V29.378Zm-108.1-6.7V123.164H199.876V22.68H67.51ZM191.06,65.094H175.626V60.64H191.06Zm0,33.051H175.626V93.674H191.06Zm-33.083-4.471H173.41v4.471H157.976Zm0-33.05H173.41v4.454H157.976Zm0-14.745V36.059H173.41v9.819Zm17.65-12.046V29.361H191.06v4.471Zm-2.217,0H157.976V29.361H173.41ZM157.976,67.321H173.41V77.14H157.976Zm17.65-31.262H191.06v9.819H175.626Zm15.433,41.1H175.626V67.338H191.06ZM133.693,98.144V93.674h15.45v4.471Zm-2.2-33.051H116.06V60.64h15.433ZM116.06,77.157V67.338h15.433v9.819Zm17.633,0V67.338h15.45v9.819ZM116.06,98.144V93.674h15.433v4.471Zm33.083-33.051h-15.45V60.64h15.45v4.454Zm-17.65-31.245H116.06V29.378h15.433Zm17.65,2.227v9.819h-15.45V36.076ZM116.06,45.895V36.076h15.433v9.819Zm33.083-12.046h-15.45V29.378h15.45ZM91.777,98.161V93.69H107.21v4.471Zm-17.65,0V93.69h15.45v4.471Zm15.45-33.05H74.127V60.657h15.45ZM74.127,77.174V67.355h15.45v9.819Zm17.65,0V67.355H107.21v9.819ZM107.21,65.111H91.777V60.657H107.21ZM89.56,33.866H74.11V29.395H89.56Zm17.65,2.227v9.819H91.777V36.093Zm-33.1,9.819V36.093H89.56v9.819Zm33.1-12.046H91.777V29.395H107.21Zm-33.1,66.54H89.56v9.819H74.11Zm17.65,0h15.433v9.819H91.76Zm24.267,0H131.46v9.819H116.026Zm17.633,0h15.45v9.819H133.66Zm24.267,0H173.36v9.819H157.926v-9.819Zm17.65,0H191.01v9.819H175.576Zm-2.217-71.01v4.471h2.217V29.395Zm0,31.262v4.454h2.217V60.657Zm0,33.05v4.471h2.217V93.707ZM131.443,29.395v4.471h2.2V29.395Zm0,31.262v4.454h2.2V60.657Zm0,33.05v4.471h2.2V93.707ZM89.527,29.395v4.471h2.2V29.395Zm0,31.262v4.454h2.2V60.657Zm0,33.05v4.471h2.2V93.707Zm83.816-64.313v4.471h2.217V29.395Zm0,31.262v4.454h2.217V60.657Zm0,33.05v4.471h2.217V93.707ZM131.426,29.395v4.471h2.2V29.395Zm0,31.262v4.454h2.2V60.657Zm0,33.05v4.471h2.2V93.707ZM89.51,29.395v4.471h2.2V29.395Zm0,31.262v4.454h2.2V60.657Zm0,33.05v4.471h2.2V93.707Zm83.816-64.313v4.471h2.217V29.395Zm0,31.262v4.454h2.217V60.657Zm0,33.05v4.471h2.217V93.707ZM131.41,29.395v4.471h2.2V29.395Zm0,31.262v4.454h2.2V60.657Zm0,33.05v4.471h2.2V93.707ZM89.493,29.395v4.471h2.2V29.395Zm0,31.262v4.454h2.2V60.657Zm0,33.05v4.471h2.2V93.707ZM173.31,29.395v4.471h2.217V29.395Zm0,31.262v4.454h2.217V60.657Zm0,33.05v4.471h2.217V93.707ZM131.393,29.395v4.471h2.2V29.395Zm0,31.262v4.454h2.2V60.657Zm0,33.05v4.471h2.2V93.707ZM89.476,29.395v4.471h2.2V29.395Zm0,31.262v4.454h2.2V60.657Zm0,33.05v4.471h2.2V93.707Zm83.816-64.313v4.471h2.217V29.395Zm0,31.262v4.454h2.217V60.657Zm0,33.05v4.471h2.217V93.707ZM131.376,29.395v4.471h2.2V29.395Zm0,31.262v4.454h2.2V60.657Zm0,33.05v4.471h2.2V93.707ZM89.46,29.395v4.471h2.2V29.395Zm0,31.262v4.454h2.2V60.657Zm0,33.05v4.471h2.2V93.707Zm83.816-64.313v4.471h2.217V29.395Zm0,31.262v4.454h2.217V60.657Zm0,33.05v4.471h2.217V93.707ZM131.36,29.395v4.471h2.2V29.395Zm0,31.262v4.454h2.2V60.657Zm0,33.05v4.471h2.2V93.707ZM89.443,29.395v4.471h2.2V29.395Zm0,31.262v4.454h2.2V60.657Zm0,33.05v4.471h2.2V93.707ZM173.26,29.395v4.471h2.217V29.395Zm0,31.262v4.454h2.217V60.657Zm0,33.05v4.471h2.217V93.707ZM131.343,29.395v4.471h2.2V29.395Zm0,31.262v4.454h2.2V60.657Zm0,33.05v4.471h2.2V93.707ZM89.426,29.395v4.471h2.2V29.395Zm0,31.262v4.454h2.2V60.657Zm0,33.05v4.471h2.2V93.707Zm83.816-64.313v4.471h2.217V29.395Zm0,31.262v4.454h2.217V60.657Zm0,33.05v4.471h2.217V93.707ZM131.326,29.395v4.471h2.2V29.395Zm0,31.262v4.454h2.2V60.657Zm0,33.05v4.471h2.2V93.707ZM89.41,29.395v4.471h2.2V29.395Zm0,31.262v4.454h2.2V60.657Zm0,33.05v4.471h2.2V93.707Zm83.816-64.313v4.471h2.217V29.395Zm0,31.262v4.454h2.217V60.657Zm0,33.05v4.471h2.217V93.707ZM131.31,29.395v4.471h2.2V29.395Zm0,31.262v4.454h2.2V60.657Zm0,33.05v4.471h2.2V93.707ZM89.393,29.395v4.471h2.2V29.395Zm0,31.262v4.454h2.2V60.657Zm0,33.05v4.471h2.2V93.707Zm83.816-64.313v4.471h2.217V29.395Zm0,31.262v4.454h2.217V60.657Zm0,33.05v4.471h2.217V93.707ZM131.293,29.395v4.471h2.2V29.395Zm0,31.262v4.454h2.2V60.657Zm0,33.05v4.471h2.2V93.707ZM89.376,29.395v4.471h2.2V29.395Zm0,31.262v4.454h2.2V60.657Zm0,33.05v4.471h2.2V93.707Zm83.816-64.313v4.471h2.217V29.395Zm0,31.262v4.454h2.217V60.657Zm0,33.05v4.471h2.217V93.707ZM131.276,29.395v4.471h2.2V29.395Zm0,31.262v4.454h2.2V60.657Zm0,33.05v4.471h2.2V93.707ZM89.36,29.395v4.471h2.2V29.395Zm0,31.262v4.454h2.2V60.657Zm0,33.05v4.471h2.2V93.707Zm83.816-64.313v4.471h2.217V29.395Zm0,31.262v4.454h2.217V60.657Zm0,33.05v4.471h2.217V93.707ZM131.26,29.395v4.471h2.2V29.395Zm0,31.262v4.454h2.2V60.657Zm0,33.05v4.471h2.2V93.707ZM89.343,29.395v4.471h2.2V29.395Zm0,31.262v4.454h2.2V60.657Zm0,33.05v4.471h2.2V93.707Zm83.816-64.313v4.471h2.217V29.395Zm0,31.262v4.454h2.217V60.657Zm0,33.05v4.471h2.217V93.707ZM131.243,29.395v4.471h2.2V29.395Zm0,31.262v4.454h2.2V60.657Zm0,33.05v4.471h2.2V93.707ZM89.326,29.395v4.471h2.2V29.395Zm0,31.262v4.454h2.2V60.657Zm0,33.05v4.471h2.2V93.707Zm83.816-64.313v4.471h2.217V29.395Zm0,31.262v4.454h2.217V60.657Zm0,33.05v4.471h2.217V93.707ZM131.226,29.395v4.471h2.2V29.395Zm0,31.262v4.454h2.2V60.657Zm0,33.05v4.471h2.2V93.707ZM89.31,29.395v4.471h2.2V29.395Zm0,31.262v4.454h2.2V60.657Zm0,33.05v4.471h2.2V93.707Zm83.816-64.313v4.471h2.217V29.395Zm0,31.262v4.454h2.217V60.657Zm0,33.05v4.471h2.217V93.707ZM131.209,29.395v4.471h2.2V29.395Zm0,31.262v4.454h2.2V60.657Zm0,33.05v4.471h2.2V93.707ZM89.293,29.395v4.471h2.2V29.395Zm0,31.262v4.454h2.2V60.657Zm0,33.05v4.471h2.2V93.707Zm83.816-64.313v4.471h2.217V29.395Zm0,31.262v4.454h2.217V60.657Zm0,33.05v4.471h2.217V93.707ZM131.193,29.395v4.471h2.2V29.395Zm0,31.262v4.454h2.2V60.657Zm0,33.05v4.471h2.2V93.707ZM89.276,29.395v4.471h2.2V29.395Zm0,31.262v4.454h2.2V60.657Zm0,33.05v4.471h2.2V93.707Zm83.816-64.313v4.471h2.217V29.395Zm0,31.262v4.454h2.217V60.657Zm0,33.05v4.471h2.217V93.707ZM131.176,29.395v4.471h2.2V29.395Zm0,31.262v4.454h2.2V60.657Zm0,33.05v4.471h2.2V93.707ZM89.26,29.395v4.471h2.2V29.395Zm0,31.262v4.454h2.2V60.657Zm0,33.05v4.471h2.2V93.707Zm83.816-33.05v4.454h2.217V60.657Zm0,33.05v4.471h2.217V93.707ZM131.159,29.395v4.471h2.2V29.395Zm0,31.262v4.454h2.2V60.657Zm0,33.05v4.471h2.2V93.707ZM89.243,29.395v4.471h2.2V29.395Zm0,31.262v4.454h2.2V60.657Zm0,33.05v4.471h2.2V93.707Zm83.816-33.05v4.454h2.217V60.657Zm0,33.05v4.471h2.217V93.707ZM131.143,29.395v4.471h2.2V29.395Zm0,31.262v4.454h2.2V60.657Zm0,33.05v4.471h2.2V93.707ZM89.226,29.395v4.471h2.2V29.395Zm0,31.262v4.454h2.2V60.657Zm0,33.05v4.471h2.2V93.707Zm83.816,0v4.471h2.217V93.707ZM131.126,29.395v4.471h2.2V29.395Zm0,31.262v4.454h2.2V60.657Zm0,33.05v4.471h2.2V93.707ZM89.21,29.395v4.471h2.2V29.395Zm0,31.262v4.454h2.2V60.657Zm0,33.05v4.471h2.2V93.707Zm83.816,0v4.471h2.217V93.707ZM131.109,29.395v4.471h2.2V29.395Zm0,31.262v4.454h2.2V60.657Zm0,33.05v4.471h2.2V93.707ZM89.193,29.395v4.471h2.2V29.395Zm0,31.262v4.454h2.2V60.657Zm0,33.05v4.471h2.2V93.707Zm83.816,0v4.471h2.217V93.707ZM131.093,29.395v4.471h2.2V29.395Zm0,31.262v4.454h2.2V60.657Zm0,33.05v4.471h2.2V93.707ZM89.176,29.395v4.471h2.2V29.395Zm0,31.262v4.454h2.2V60.657Zm0,33.05v4.471h2.2V93.707Zm41.917-64.313v4.471h2.2V29.395Zm0,31.262v4.454h2.2V60.657Zm0,33.05v4.471h2.2V93.707ZM89.176,29.395v4.471h2.2V29.395Zm0,31.262v4.454h2.2V60.657Zm0,33.05v4.471h2.2V93.707Zm41.917-64.313v4.471h2.2V29.395Zm0,31.262v4.454h2.2V60.657Zm0,33.05v4.471h2.2V93.707ZM89.176,29.395v4.471h2.2V29.395Zm0,31.262v4.454h2.2V60.657Zm0,33.05v4.471h2.2V93.707Zm41.917-64.313v4.471h2.2V29.395Zm0,31.262v4.454h2.2V60.657Zm0,33.05v4.471h2.2V93.707ZM89.176,29.395v4.471h2.2V29.395Zm0,31.262v4.454h2.2V60.657Zm0,33.05v4.471h2.2V93.707Zm41.917-64.313v4.471h2.2V29.395Zm0,31.262v4.454h2.2V60.657Zm0,33.05v4.471h2.2V93.707ZM89.176,29.395v4.471h2.2V29.395Zm0,31.262v4.454h2.2V60.657Zm0,33.05v4.471h2.2V93.707Zm41.917-64.313v4.471h2.2V29.395Zm0,31.262v4.454h2.2V60.657ZM89.176,29.395v4.471h2.2V29.395Zm0,31.262v4.454h2.2V60.657Zm0,33.05v4.471h2.2V93.707Zm41.917-64.313v4.471h2.2V29.395Zm0,31.262v4.454h2.2V60.657ZM89.176,29.395v4.471h2.2V29.395Zm0,31.262v4.454h2.2V60.657Zm0,33.05v4.471h2.2V93.707Zm41.917-64.313v4.471h2.2V29.395Zm-41.917,0v4.471h2.2V29.395Zm0,31.262v4.454h2.2V60.657Zm0,33.05v4.471h2.2V93.707Zm41.917-64.313v4.471h2.2V29.395Zm-41.917,0v4.471h2.2V29.395Zm0,31.262v4.454h2.2V60.657Zm0,33.05v4.471h2.2V93.707Zm0-64.313v4.471h2.2V29.395Zm0,31.262v4.454h2.2V60.657Zm0,33.05v4.471h2.2V93.707Zm0-64.313v4.471h2.2V29.395Zm0,31.262v4.454h2.2V60.657Zm0,33.05v4.471h2.2V93.707Zm0-33.05v4.454h2.2V60.657Zm0,33.05v4.471h2.2V93.707Zm0-33.05v4.454h2.2V60.657Zm0,33.05v4.471h2.2V93.707Zm0-33.05v4.454h2.2V60.657Zm0,33.05v4.471h2.2V93.707Zm0,0v4.471h2.2V93.707Z" transform="translate(45.006 15.28)" fill="#fff"/>
    <rect id="Top-Border-4" width="132.366" height="4.471" transform="translate(355.116 33.489)" fill="#fff"/>
    <rect id="Top-Border-4-2" width="132.366" height="4.471" transform="translate(112.516 33.489)" fill="#fff"/>
    <path id="Path_39" data-name="Path 39" d="M226.3,87.675V89.9h0V87.675Zm0,0V89.9h0V87.675Zm0,0V89.9h0V87.675Zm0,0V89.9h0V87.675ZM146.88,2.83V136.8H157.9v-4.471h4.417v-28.58h17.65v-2.227h-17.65V99.3h17.65v33.05h4.4v2.227h-2.2V136.8H221.88v-2.227h-2.2v-2.227h-35.3V103.314h35.3v29.035H224.1V103.77h17.65v28.58h4.417v4.471H257.18V2.83H146.88Zm33.1,89.316h-8.833V76.523H184.38V87.692h-6.617v2.227h2.217Zm-8.867-63.182s.017.152.017.219v4.926h-8.817V29.638A4.524,4.524,0,0,1,163.78,26.2c.05-.051.117-.1.167-.152a2.217,2.217,0,0,1,.317-.236c.1-.067.183-.118.283-.186.1-.051.2-.118.317-.169.033-.017.083-.034.117-.051a2.763,2.763,0,0,1,.333-.135,4.556,4.556,0,0,1,1.283-.236,4.415,4.415,0,0,1,3.467,1.569,2.51,2.51,0,0,1,.25.337,1.773,1.773,0,0,1,.117.186,2.62,2.62,0,0,1,.2.371,2.709,2.709,0,0,1,.167.388,4.589,4.589,0,0,1,.267,1.046Zm2.25,14.071h8.817V60.9h-8.817ZM230.713,60.9H221.9V43.034h8.817ZM186.6,43.034H217.48V60.9H186.6Zm44.116-8.925H221.9V29.638a5.008,5.008,0,0,1,.183-1.417l.15-.4c.033-.067.05-.135.083-.2.067-.118.133-.253.2-.371s.15-.236.233-.354a2.458,2.458,0,0,1,.267-.321,4.378,4.378,0,0,1,3.183-1.5,4.439,4.439,0,0,1,4.533,4.353v4.707Zm-13.233,0H186.6V11.755H217.48V34.092h0ZM182.18,29.4v4.707h-8.817V29.638a4.446,4.446,0,0,1,4.3-4.589A4.3,4.3,0,0,1,181,26.466a4.364,4.364,0,0,1,.617.844c.083.152.167.321.233.472a2.643,2.643,0,0,1,.133.388,3.32,3.32,0,0,1,.1.388,5.582,5.582,0,0,1,.083.557v.27ZM171.147,43.034V60.9H162.33V43.034h8.817ZM232.93,60.9V43.034h8.817V60.9Zm0-26.791V29.638a4.41,4.41,0,1,1,8.817-.219v4.69H232.93ZM186.6,76.523H217.48V87.692H186.6Zm33.1,11.169V76.523H232.93V92.146H224.1V89.919h2.217V87.692Zm0,11.152H184.4V94.373h35.3Zm22.067,2.682h-17.65V99.3h17.65Zm-15.45-13.834v2.227h0V87.692Zm0,0v2.227h0V87.692Zm0,0v2.227h0V87.692Z" transform="translate(97.919 1.641)" fill="#fff"/>
    <path id="Path_40" data-name="Path 40" d="M153.5,5.48V72.458h88.25V5.48ZM168.95,41.2h8.817V59.063H168.95ZM226.3,59.063h-8.817V41.2H226.3ZM182.183,41.2h30.883V59.063H182.183Zm35.3-13.4a5.009,5.009,0,0,1,.183-1.417,3.98,3.98,0,0,1,.15-.4c.033-.067.05-.135.083-.2a4.049,4.049,0,0,1,.2-.371c.067-.118.15-.236.233-.354a2.464,2.464,0,0,1,.267-.321,4.379,4.379,0,0,1,3.183-1.5,4.439,4.439,0,0,1,4.533,4.353v4.707H217.5V27.817Zm-35.3-17.866h30.883V32.271H182.183V9.934ZM168.95,27.8a4.446,4.446,0,0,1,4.3-4.589,4.3,4.3,0,0,1,3.333,1.417,4.364,4.364,0,0,1,.617.844c.083.152.167.321.233.472a2.647,2.647,0,0,1,.133.388,3.32,3.32,0,0,1,.1.388,5.573,5.573,0,0,1,.083.557v4.977h-8.817V27.784Zm-11.033,0a4.524,4.524,0,0,1,1.467-3.442c.05-.051.117-.1.167-.152a2.219,2.219,0,0,1,.317-.236c.1-.067.183-.118.283-.186.1-.051.2-.118.317-.169.033-.017.083-.034.117-.051a2.763,2.763,0,0,1,.333-.135,4.556,4.556,0,0,1,1.283-.236,4.415,4.415,0,0,1,3.467,1.569,2.511,2.511,0,0,1,.25.337,1.784,1.784,0,0,1,.117.186,2.619,2.619,0,0,1,.2.371,2.708,2.708,0,0,1,.167.388,4.588,4.588,0,0,1,.267,1.046c0,.067.017.152.017.219v4.926h-8.817V27.767Zm0,13.4h8.817V59.063h-8.817Zm79.416,17.867h-8.817V41.2h8.817Zm0-26.791h-8.817V27.8a4.41,4.41,0,1,1,8.817-.219v4.69Z" transform="translate(102.333 3.462)" fill="#fff"/>
    <rect id="Rectangle_8" data-name="Rectangle 8" width="114.716" height="4.471" transform="translate(242.599)" fill="#fff"/>
    <rect id="Rectangle_464" data-name="Rectangle 464" width="30.883" height="8.925" transform="translate(284.516 35.733)" fill="#fff"/>
    <rect id="Rectangle_465" data-name="Rectangle 465" width="30.883" height="8.925" transform="translate(284.516 62.524)" fill="#fff"/>
    <rect id="Rectangle_466" data-name="Rectangle 466" width="8.817" height="8.925" transform="translate(330.849 35.733)" fill="#fff"/>
    <rect id="Rectangle_467" data-name="Rectangle 467" width="8.817" height="8.925" transform="translate(330.849 62.524)" fill="#fff"/>
    <rect id="Rectangle_468" data-name="Rectangle 468" width="8.817" height="8.925" transform="translate(271.283 35.733)" fill="#fff"/>
    <rect id="Rectangle_469" data-name="Rectangle 469" width="8.817" height="8.925" transform="translate(271.283 62.524)" fill="#fff"/>
    <rect id="Rectangle_470" data-name="Rectangle 470" width="8.817" height="8.925" transform="translate(319.816 35.733)" fill="#fff"/>
    <rect id="Rectangle_471" data-name="Rectangle 471" width="8.817" height="8.925" transform="translate(319.816 62.524)" fill="#fff"/>
    <rect id="Rectangle_472" data-name="Rectangle 472" width="8.817" height="8.925" transform="translate(260.249 35.733)" fill="#fff"/>
    <rect id="Rectangle_473" data-name="Rectangle 473" width="8.817" height="8.925" transform="translate(260.249 62.524)" fill="#fff"/>
    <rect id="Rectangle_314" data-name="Rectangle 314" width="8.817" height="4.471" transform="translate(260.249 37.96)" fill="#fff"/>
    <rect id="Rectangle_324" data-name="Rectangle 324" width="8.817" height="4.471" transform="translate(260.249 64.751)" fill="#fff"/>
    <rect id="Rectangle_318" data-name="Rectangle 318" width="8.817" height="4.471" transform="translate(319.816 37.96)" fill="#fff"/>
    <rect id="Rectangle_321" data-name="Rectangle 321" width="8.817" height="4.471" transform="translate(319.816 64.751)" fill="#fff"/>
    <rect id="Rectangle_316" data-name="Rectangle 316" width="8.817" height="4.471" transform="translate(271.283 37.96)" fill="#fff"/>
    <rect id="Rectangle_323" data-name="Rectangle 323" width="8.817" height="4.471" transform="translate(271.283 64.751)" fill="#fff"/>
    <rect id="Rectangle_319" data-name="Rectangle 319" width="30.883" height="4.471" transform="translate(284.516 37.96)" fill="#fff"/>
    <rect id="Rectangle_322" data-name="Rectangle 322" width="30.883" height="4.471" transform="translate(284.516 64.751)" fill="#fff"/>
    <rect id="Rectangle_317" data-name="Rectangle 317" width="8.817" height="4.471" transform="translate(330.849 37.96)" fill="#fff"/>
    <rect id="Rectangle_320" data-name="Rectangle 320" width="8.817" height="4.471" transform="translate(330.849 64.751)" fill="#fff"/>
    <rect id="Rectangle_310" data-name="Rectangle 310" width="79.416" height="2.227" transform="translate(260.249 69.222)" fill="#fff"/>
    <rect id="Rectangle_474" data-name="Rectangle 474" width="79.416" height="2.227" transform="translate(260.249 35.733)" fill="#fff"/>
    <rect id="Rectangle_475" data-name="Rectangle 475" width="79.416" height="2.227" transform="translate(260.249 42.431)" fill="#fff"/>
    <rect id="Rectangle_476" data-name="Rectangle 476" width="79.416" height="2.227" transform="translate(260.249 62.524)" fill="#fff"/>
    <rect id="Top-Border-2" width="114.716" height="4.471" transform="translate(485.282 22.32)" fill="#fff"/>
    <rect id="Top-Border-2-2" width="114.716" height="4.471" transform="translate(0 22.32)" fill="#fff"/>
    <g id="Group_35" data-name="Group 35" transform="translate(253.633 89.316)">
      <path id="Path_1" data-name="Path 1" d="M217.043,79.59v8.942H197.177V86.288h-2.2V84.061h-2.2V81.834H190.56V79.59Z" transform="translate(-126.593 -34.932)" fill="#fff"/>
      <path id="Path_2" data-name="Path 2" d="M179.967,79.59v2.244h-2.2v2.227h-2.2v2.227H173.35v2.244H153.5V84.061h0V79.59Z" transform="translate(-151.3 -34.932)" fill="#fff"/>
      <rect id="Rectangle_10" data-name="Rectangle 10" height="4.471" transform="translate(2.2 49.129)" fill="#fff"/>
      <path id="Path_3" data-name="Path 3" d="M213.943,86.288v2.244H165.41V86.288h2.217V84.061h2.2V81.834h2.2V79.59h35.3v2.244h2.217v2.227h2.2v2.227Z" transform="translate(-143.36 -34.932)" fill="#fff"/>
      <rect id="Rectangle_11" data-name="Rectangle 11" width="35.3" height="2.227" transform="translate(28.667 44.658)" fill="#fff"/>
      <rect id="Rectangle_12" data-name="Rectangle 12" width="44.117" height="2.227" transform="translate(24.267 49.129)" fill="#fff"/>
      <rect id="Rectangle_13" data-name="Rectangle 13" width="39.717" height="2.227" transform="translate(26.467 46.902)" fill="#fff"/>
      <rect id="Rectangle_14" data-name="Rectangle 14" width="48.533" height="2.227" transform="translate(22.05 51.356)" fill="#fff"/>
      <rect id="Rectangle_478" data-name="Rectangle 478" width="48.533" height="2.227" transform="translate(22.05)" fill="#fff"/>
      <g id="Group_32" data-name="Group 32" transform="translate(2.2 9.38)">
        <path id="Path_4" data-name="Path 4" d="M215.277,58.68V93.957H210.86V65.378H193.21V63.151h17.65V60.924H193.21V58.68Z" transform="translate(-127.027 -58.68)" fill="#fff"/>
        <path id="Path_5" data-name="Path 5" d="M175.567,58.68v2.227l-17.65.017v2.227h17.65v2.227h-17.65v28.58H153.5V58.68Z" transform="translate(-153.5 -58.68)" fill="#fff"/>
      </g>
      <g id="Group_34" data-name="Group 34" transform="translate(0 7.238)">
        <rect id="Rectangle_481-3" data-name="Rectangle 481-3" width="24.433" height="2.227" fill="#fff"/>
        <rect id="Rectangle_482-3" data-name="Rectangle 482-3" width="24.433" height="2.227" transform="translate(68.216)" fill="#fff"/>
      </g>
      <g id="Group_33" data-name="Group 33" transform="translate(24.267 2.244)">
        <path id="Path_60" data-name="Path 60" d="M166.74,54.45V96.881h4.417V67.846h35.3V96.881h4.417V54.45H166.757Zm39.7,8.925h-35.3V58.9h35.3Z" transform="translate(-166.74 -54.45)" fill="#fff"/>
      </g>
    </g>
  </g>
  <g id="Label" transform="translate(0.039 155.63)">
    <g id="Caption" transform="translate(168.009 0)">
      <text id="COMSATS_University_Sahiwal_Campus" data-name="COMSATS University, Sahiwal Campus" transform="translate(1.154 67.369)" fill="#fff" font-size="26" font-family="Google Sans Display" letter-spacing="-0.01em"><tspan x="0" y="0" letter-spacing="-0.03em">C</tspan><tspan y="0" letter-spacing="-0.01em">OM</tspan><tspan y="0" letter-spacing="-0.02em">S</tspan><tspan y="0" letter-spacing="-0.07em">A</tspan><tspan y="0" letter-spacing="-0.02em">T</tspan><tspan y="0">S </tspan><tspan y="0" letter-spacing="-0.01em">Uni</tspan><tspan y="0" letter-spacing="-0.03em">v</tspan><tspan y="0" letter-spacing="-0.01em">e</tspan><tspan y="0" letter-spacing="-0.03em">r</tspan><tspan y="0" letter-spacing="-0.01em">si</tspan><tspan y="0">t</tspan><tspan y="0" letter-spacing="-0.08em">y</tspan><tspan y="0" letter-spacing="-0.01em">, </tspan><tspan y="0">Sahi</tspan><tspan y="0" letter-spacing="-0.02em">w</tspan><tspan y="0" letter-spacing="-0.01em">al</tspan><tspan y="0" xml:space="preserve" letter-spacing="-0.03em"> C</tspan><tspan y="0" letter-spacing="-0.01em">ampus</tspan></text>
      <text id="Google_Developer_Student_Clubs" data-name="Google Developer Student Clubs" transform="translate(0 28)" fill="#fff" font-size="29" font-family="Google Sans Display" letter-spacing="-0.01em"><tspan x="0" y="0" letter-spacing="-0.01em">Google </tspan><tspan y="0" letter-spacing="-0.03em">D</tspan><tspan y="0" letter-spacing="-0.02em">e</tspan><tspan y="0" letter-spacing="-0.03em">v</tspan><tspan y="0">e</tspan><tspan y="0" letter-spacing="-0.01em">lo</tspan><tspan y="0">per </tspan><tspan y="0" letter-spacing="-0.03em">S</tspan><tspan y="0" letter-spacing="-0.01em">tud</tspan><tspan y="0">e</tspan><tspan y="0" letter-spacing="-0.03em">n</tspan><tspan y="0">t </tspan><tspan y="0" letter-spacing="-0.02em">C</tspan><tspan y="0" letter-spacing="-0.01em">lubs</tspan></text>
    </g>
    <g id="GDS_Logo" data-name="GDS Logo" transform="translate(0 1.215)">
      <g id="Plane" transform="translate(0 0)">
        <path id="Path_10" data-name="Path 10" d="M110.329,485.518l-41.746-24.1a11.887,11.887,0,0,0-11.887,20.59l41.746,24.1a11.887,11.887,0,1,0,11.887-20.59Z" transform="translate(-50.749 -435.719)" fill="#fff"/>
        <path id="Path_11" data-name="Path 11" d="M298.485,431.046l-41.746-24.1a11.887,11.887,0,1,0-11.887,20.59l41.746,24.1a11.887,11.887,0,0,0,11.887-20.59Z" transform="translate(-155.655 -405.348)" fill="#fff"/>
        <path id="Path_12" data-name="Path 12" d="M284.945,502.257l-19.484-11.249-20.609,11.9a11.887,11.887,0,1,0,11.887,20.59L290.3,504.122A15.219,15.219,0,0,1,284.945,502.257Z" transform="translate(-155.655 -453.107)" fill="#fff"/>
        <path id="Path_13" data-name="Path 13" d="M88.048,428.182l19.484,11.249,20.609-11.9a11.887,11.887,0,1,0-11.887-20.59L82.7,426.317A15.215,15.215,0,0,1,88.048,428.182Z" transform="translate(-68.562 -405.348)" fill="#fff"/>
      </g>
    </g>
  </g>
</svg>
