<svg xmlns="http://www.w3.org/2000/svg" xmlns:xlink="http://www.w3.org/1999/xlink" width="807" height="320" viewBox="0 0 807 320">
  <defs>
    <clipPath id="clip-path">
      <rect id="Rectangle_59" data-name="Rectangle 59" width="807" height="320" transform="translate(0 680)" fill="#f5f5f5" stroke="#707070" stroke-width="1"/>
    </clipPath>
  </defs>
  <g id="Mask_Group_4" data-name="Mask Group 4" transform="translate(0 -680)" clip-path="url(#clip-path)">
    <g id="Logo" transform="translate(-863 679.674)" opacity="0.05">
      <g id="Building">
        <rect id="Rectangle_9" data-name="Rectangle 9" width="706.178" height="11.908" transform="translate(5.891 368.745)" fill="#101010"/>
        <rect id="L-2" width="706.132" height="11.908" transform="translate(957.698 368.745)" fill="#101010"/>
        <path id="Path_44" data-name="Path 44" d="M470.577,33.83V45.738H476.7V33.83Zm0,83.266V129H476.7V117.1Zm0-83.266V45.738H476.7V33.83Zm0,83.266V129H476.7V117.1Zm0-83.266V45.738H476.7V33.83Zm0,83.266V129H476.7V117.1Zm0-83.266V45.738H476.7V33.83Zm0,201.044v11.908H476.7V234.873Zm0-117.777V129H476.7V117.1Zm0-83.266V45.738H476.7V33.83Zm0,201.044v11.908H476.7V234.873Zm0-117.777V129H476.7V117.1Zm0-83.266V45.738H476.7V33.83Zm0,201.044v11.908H476.7V234.873Zm0-117.777V129H476.7V117.1Zm0-83.266V45.738H476.7V33.83Zm0,201.044v11.908H476.7V234.873Zm0-117.777V129H476.7V117.1Zm0-83.266V45.738H476.7V33.83Zm0,201.044v11.908H476.7V234.873Zm0-117.777V129H476.7V117.1Zm0-83.266V45.738H476.7V33.83Zm0,201.044v11.908H476.7V234.873Zm0-117.777V129H476.7V117.1Zm0-83.266V45.738H476.7V33.83Zm0,201.044v11.908H476.7V234.873Zm0-117.777V129H476.7V117.1Zm0-83.266V45.738H476.7V33.83Zm-116.668,0V45.738h6.123V33.83ZM470.577,234.873v11.908H476.7V234.873Zm0-117.777V129H476.7V117.1Zm0-83.266V45.738H476.7V33.83ZM353.909,117.1V129h6.123V117.1Zm0-83.266V45.738h6.123V33.83ZM470.577,234.873v11.908H476.7V234.873Zm0-117.777V129H476.7V117.1Zm0-83.266V45.738H476.7V33.83ZM353.909,117.1V129h6.123V117.1Zm0-83.266V45.738h6.123V33.83ZM470.577,234.873v11.908H476.7V234.873Zm0-117.777V129H476.7V117.1Zm0-83.266V45.738H476.7V33.83ZM353.909,234.873v11.908h6.123V234.873Zm0-117.777V129h6.123V117.1Zm0-83.266V45.738h6.123V33.83ZM470.577,234.873v11.908H476.7V234.873Zm0-117.777V129H476.7V117.1Zm0-83.266V45.738H476.7V33.83ZM353.909,234.873v11.908h6.123V234.873Zm0-117.777V129h6.123V117.1Zm0-83.266V45.738h6.123V33.83ZM470.577,234.873v11.908H476.7V234.873Zm0-117.777V129H476.7V117.1Zm0-83.266V45.738H476.7V33.83ZM353.909,234.873v11.908h6.123V234.873Zm0-117.777V129h6.123V117.1Zm0-83.266V45.738h6.123V33.83ZM470.577,234.873v11.908H476.7V234.873Zm0-117.777V129H476.7V117.1Zm0-83.266V45.738H476.7V33.83ZM353.909,234.873v11.908h6.123V234.873Zm0-117.777V129h6.123V117.1Zm0-83.266V45.738h6.123V33.83ZM470.577,234.873v11.908H476.7V234.873Zm0-117.777V129H476.7V117.1Zm0-83.266V45.738H476.7V33.83ZM353.909,234.873v11.908h6.123V234.873Zm0-117.777V129h6.123V117.1Zm0-83.266V45.738h6.123V33.83ZM470.577,234.873v11.908H476.7V234.873Zm0-117.777V129H476.7V117.1Zm0-83.266V45.738H476.7V33.83ZM353.909,234.873v11.908h6.123V234.873Zm0-117.777V129h6.123V117.1Zm0-83.266V45.738h6.123V33.83ZM470.577,234.873v11.908H476.7V234.873Zm0-117.777V129H476.7V117.1Zm0-83.266V45.738H476.7V33.83ZM353.909,234.873v11.908h6.123V234.873Zm0-117.777V129h6.123V117.1Zm0-83.266V45.738h6.123V33.83ZM470.577,234.873v11.908H476.7V234.873Zm0-117.777V129H476.7V117.1Zm0-83.266V45.738H476.7V33.83ZM353.909,234.873v11.908h6.123V234.873Zm0-117.777V129h6.123V117.1Zm0-83.266V45.738h6.123V33.83ZM470.577,234.873v11.908H476.7V234.873Zm0-117.777V129H476.7V117.1Zm0-83.266V45.738H476.7V33.83ZM353.909,234.873v11.908h6.123V234.873Zm0-117.777V129h6.123V117.1Zm0-83.266V45.738h6.123V33.83ZM470.577,234.873v11.908H476.7V234.873Zm0-117.777V129H476.7V117.1Zm0-83.266V45.738H476.7V33.83ZM353.909,234.873v11.908h6.123V234.873Zm0-117.777V129h6.123V117.1Zm0-83.266V45.738h6.123V33.83ZM470.577,234.873v11.908H476.7V234.873Zm0-117.777V129H476.7V117.1Zm0-83.266V45.738H476.7V33.83ZM353.909,234.873v11.908h6.123V234.873Zm0-117.777V129h6.123V117.1Zm0-83.266V45.738h6.123V33.83ZM470.577,234.873v11.908H476.7V234.873Zm0-117.777V129H476.7V117.1Zm0-83.266V45.738H476.7V33.83ZM353.909,234.873v11.908h6.123V234.873Zm0-117.777V129h6.123V117.1Zm0-83.266V45.738h6.123V33.83ZM470.577,234.873v11.908H476.7V234.873Zm0-117.777V129H476.7V117.1Zm0-83.266V45.738H476.7V33.83ZM353.909,234.873v11.908h6.123V234.873Zm0-117.777V129h6.123V117.1Zm0-83.266V45.738h6.123V33.83ZM470.577,234.873v11.908H476.7V234.873Zm0-117.777V129H476.7V117.1Zm0-83.266V45.738H476.7V33.83ZM353.909,234.873v11.908h6.123V234.873Zm0-117.777V129h6.123V117.1Zm0-83.266V45.738h6.123V33.83ZM470.577,234.873v11.908H476.7V234.873Zm0-117.777V129H476.7V117.1Zm0-83.266V45.738H476.7V33.83ZM353.909,234.873v11.908h6.123V234.873Zm0-117.777V129h6.123V117.1Zm0-83.266V45.738h6.123V33.83ZM470.577,234.873v11.908H476.7V234.873Zm0-117.777V129H476.7V117.1Zm0-83.266V45.738H476.7V33.83ZM353.909,234.873v11.908h6.123V234.873Zm0-117.777V129h6.123V117.1Zm0-83.266V45.738h6.123V33.83ZM470.577,234.873v11.908H476.7V234.873Zm0-117.777V129H476.7V117.1Zm0-83.266V45.738H476.7V33.83ZM353.909,234.873v11.908h6.123V234.873Zm0-117.777V129h6.123V117.1Zm0-83.266V45.738h6.123V33.83ZM470.577,234.873v11.908H476.7V234.873Zm0-117.777V129H476.7V117.1Zm0-83.266V45.738H476.7V33.83ZM353.909,234.873v11.908h6.123V234.873Zm0-117.777V129h6.123V117.1Zm0-83.266V45.738h6.123V33.83ZM470.577,234.873v11.908H476.7V234.873Zm0-117.777V129H476.7V117.1Zm0-83.266V45.738H476.7V33.83ZM353.909,234.873v11.908h6.123V234.873Zm0-117.777V129h6.123V117.1Zm0-83.266V45.738h6.123V33.83ZM470.577,234.873v11.908H476.7V234.873Zm0-117.777V129H476.7V117.1Zm0-83.266V45.738H476.7V33.83ZM353.909,234.873v11.908h6.123V234.873Zm0-117.777V129h6.123V117.1Zm0-83.266V45.738h6.123V33.83ZM470.577,234.873v11.908H476.7V234.873Zm0-117.777V129H476.7V117.1Zm0-83.266V45.738H476.7V33.83ZM353.909,234.873v11.908h6.123V234.873Zm0-117.777V129h6.123V117.1Zm0-83.266V45.738h6.123V33.83ZM470.577,234.873v11.908H476.7V234.873Zm0-117.777V129H476.7V117.1Zm0-83.266V45.738H476.7V33.83ZM353.909,234.873v11.908h6.123V234.873Zm0-117.777V129h6.123V117.1Zm0-83.266V45.738h6.123V33.83ZM470.577,234.873v11.908H476.7V234.873Zm0-117.777V129H476.7V117.1Zm0-83.266V45.738H476.7V33.83ZM353.909,234.873v11.908h6.123V234.873Zm0-117.777V129h6.123V117.1Zm0-83.266V45.738h6.123V33.83ZM470.577,234.873v11.908H476.7V234.873Zm0-117.777V129H476.7V117.1Zm0-83.266V45.738H476.7V33.83ZM353.909,234.873v11.908h6.123V234.873Zm0-117.777V129h6.123V117.1Zm0-83.266V45.738h6.123V33.83ZM470.577,234.873v11.908H476.7V234.873Zm0-117.777V129H476.7V117.1Zm0-83.266V45.738H476.7V33.83ZM353.909,234.873v11.908h6.123V234.873Zm0-117.777V129h6.123V117.1Zm0-83.266V45.738h6.123V33.83ZM470.577,234.873v11.908H476.7V234.873Zm0-117.777V129H476.7V117.1Zm0-83.266V45.738H476.7V33.83ZM353.909,234.873v11.908h6.123V234.873Zm0-117.777V129h6.123V117.1Zm0-83.266V45.738h6.123V33.83ZM470.577,234.873v11.908H476.7V234.873Zm0-117.777V129H476.7V117.1Zm0-83.266V45.738H476.7V33.83ZM353.909,234.873v11.908h6.123V234.873Zm0-117.777V129h6.123V117.1Zm0-83.266V45.738h6.123V33.83ZM470.577,234.873v11.908H476.7V234.873Zm0-117.777V129H476.7V117.1Zm0-83.266V45.738H476.7V33.83ZM353.909,234.873v11.908h6.123V234.873Zm0-117.777V129h6.123V117.1Zm0-83.266V45.738h6.123V33.83ZM470.577,234.873v11.908H476.7V234.873Zm0-117.777V129H476.7V117.1Zm0-83.266V45.738H476.7V33.83ZM353.909,234.873v11.908h6.123V234.873Zm0-117.777V129h6.123V117.1Zm0-83.266V45.738h6.123V33.83ZM470.577,234.873v11.908H476.7V234.873Zm0-117.777V129H476.7V117.1Zm0-83.266V45.738H476.7V33.83ZM353.909,234.873v11.908h6.123V234.873Zm0-117.777V129h6.123V117.1Zm0-83.266V45.738h6.123V33.83ZM470.577,234.873v11.908H476.7V234.873Zm0-117.777V129H476.7V117.1Zm0-83.266V45.738H476.7V33.83ZM353.909,234.873v11.908h6.123V234.873Zm0-117.777V129h6.123V117.1Zm0-83.266V45.738h6.123V33.83ZM470.577,234.873v11.908H476.7V234.873Zm0-117.777V129H476.7V117.1Zm0-83.266V45.738H476.7V33.83ZM353.909,234.873v11.908h6.123V234.873Zm0-117.777V129h6.123V117.1Zm0-83.266V45.738h6.123V33.83ZM470.577,234.873v11.908H476.7V234.873Zm0-117.777V129H476.7V117.1Zm0-83.266V45.738H476.7V33.83ZM353.909,234.873v11.908h6.123V234.873Zm0-117.777V129h6.123V117.1Zm0-83.266V45.738h6.123V33.83ZM470.577,234.873v11.908H476.7V234.873Zm0-117.777V129H476.7V117.1Zm0-83.266V45.738H476.7V33.83ZM353.909,234.873v11.908h6.123V234.873Zm0-117.777V129h6.123V117.1Zm0-83.266V45.738h6.123V33.83ZM470.577,234.873v11.908H476.7V234.873Zm0-117.777V129H476.7V117.1Zm0-83.266V45.738H476.7V33.83ZM353.909,234.873v11.908h6.123V234.873Zm0-117.777V129h6.123V117.1Zm0-83.266V45.738h6.123V33.83ZM470.577,234.873v11.908H476.7V234.873Zm0-117.777V129H476.7V117.1Zm0-83.266V45.738H476.7V33.83ZM353.909,234.873v11.908h6.123V234.873Zm0-117.777V129h6.123V117.1Zm0-83.266V45.738h6.123V33.83ZM470.577,234.873v11.908H476.7V234.873Zm0-117.777V129H476.7V117.1Zm0-83.266V45.738H476.7V33.83ZM353.862,234.873v11.908h6.123V234.873Zm0-117.777V129h6.123V117.1Zm0-83.266V45.738h6.123V33.83Zm0,201.044v11.908h0V234.873Zm0-117.777V129h0V117.1Zm0-83.266V45.738h0V33.83ZM292.49,16.08V313.466H599.538V16.08H292.49ZM581.075,51.669V77.822H544.242V51.669Zm-36.833-5.932V33.83h36.833V45.738Zm0,201.044V234.873h36.833v11.908Zm36.833-111.8v23.771H544.242V134.981Zm0-5.932H544.242V117.141h36.833ZM544.242,252.758h36.833v23.771H544.242ZM427.574,278.911V252.758h43v26.153Zm43-245.036V45.783h-43V33.875Zm6.123,17.84h42.956V77.867H476.7Zm42.956-5.932H476.7V33.875h42.956Zm-92.128,5.932h43V77.867h-43Zm49.126,83.266H519.61v26.153H476.654Zm0,99.938H519.61v11.908H476.654ZM519.61,129.049H476.654V117.141H519.61ZM427.481,246.826V234.918h43v11.908Zm0-85.648V135.026h43v26.153Zm0-32.084V117.186h43v11.908ZM476.607,252.8h42.956v26.153H476.607ZM353.769,51.759V77.912H310.813V51.759Zm0-17.84V45.828H310.813V33.92Zm6.123,43.992V51.759h43V77.912Zm43-32.084h-43V33.92h43Zm0,89.2v26.153h-43V135.026Zm-49.126-17.84v11.908H310.813V117.186Zm0,17.84v26.153H310.813V135.026Zm0,99.938v11.908H310.813V234.963Zm6.123,0h43v11.908h-43Zm43-105.869h-43V117.186h43ZM310.767,252.8h42.956v26.153H310.767Zm49.126,26.153V252.8h43v26.153ZM353.769,33.92h0v12h6.123V34.01Zm0,83.356v11.908h6.123V117.276Zm0,117.777v11.908h6.123V235.053ZM470.437,33.92v12h6.123V34.01Zm0,83.356v11.908h6.123V117.276Zm0,117.777v11.908h6.123V235.053ZM353.769,33.92h0v12h6.123V34.01Zm0,83.356v11.908h6.123V117.276Zm0,117.777v11.908h6.123V235.053ZM470.437,33.92v12h6.123V34.01Zm0,83.356v11.908h6.123V117.276Zm0,117.777v11.908h6.123V235.053ZM353.769,33.92h0v12h6.123V34.01Zm0,83.356v11.908h6.123V117.276Zm0,117.777v11.908h6.123V235.053ZM470.437,33.92v12h6.123V34.01Zm0,83.356v11.908h6.123V117.276Zm0,117.777v11.908h6.123V235.053ZM353.769,33.92h0v12h6.123V34.01Zm0,83.356v11.908h6.123V117.276Zm0,117.777v11.908h6.123V235.053ZM470.437,33.92v12h6.123V34.01Zm0,83.356v11.908h6.123V117.276Zm0,117.777v11.908h6.123V235.053ZM353.769,33.92h0v12h6.123V34.01Zm0,83.356v11.908h6.123V117.276Zm0,117.777v11.908h6.123V235.053ZM470.437,33.92v12h6.123V34.01Zm0,83.356v11.908h6.123V117.276Zm0,117.777v11.908h6.123V235.053ZM353.769,33.92h0v12h6.123V34.01Zm0,83.356v11.908h6.123V117.276Zm0,117.777v11.908h6.123V235.053ZM470.437,33.92v12h6.123V34.01Zm0,83.356v11.908h6.123V117.276Zm0,117.777v11.908h6.123V235.053ZM353.769,33.92h0v12h6.123V34.01Zm0,83.356v11.908h6.123V117.276Zm0,117.777v11.908h6.123V235.053ZM470.437,33.92v12h6.123V34.01Zm0,83.356v11.908h6.123V117.276Zm0,117.777v11.908h6.123V235.053ZM353.769,33.92h0v12h6.123V34.01Zm0,83.356v11.908h6.123V117.276Zm0,117.777v11.908h6.123V235.053ZM470.437,33.92v12h6.123V34.01Zm0,83.356v11.908h6.123V117.276Zm0,117.777v11.908h6.123V235.053ZM353.769,33.92h0v12h6.123V34.01Zm0,83.356v11.908h6.123V117.276Zm0,117.777v11.908h6.123V235.053ZM470.437,33.92v12h6.123V34.01Zm0,83.356v11.908h6.123V117.276Zm0,117.777v11.908h6.123V235.053ZM353.769,33.92h0v12h6.123V34.01Zm0,83.356v11.908h6.123V117.276Zm0,117.777v11.908h6.123V235.053ZM470.437,33.92v12h6.123V34.01Zm0,83.356v11.908h6.123V117.276Zm0,117.777v11.908h6.123V235.053ZM353.769,33.92h0v12h6.123V34.01Zm0,83.356v11.908h6.123V117.276Zm0,117.777v11.908h6.123V235.053ZM470.437,33.965v12h6.123V34.054Zm0,83.356v11.908h6.123V117.321Zm0,117.777v11.908h6.123V235.1ZM353.769,34.009h0v12h6.123V34.1Zm0,83.356v11.908h6.123V117.366Zm0,117.777v11.908h6.123V235.143ZM470.437,34.054v12h6.123V34.144Zm0,83.356v11.908h6.123V117.411Zm0,117.777V247.1h6.123V235.188ZM353.769,34.1h0v12h6.123V34.189Zm0,83.356v11.908h6.123V117.456Zm0,117.777v11.908h6.123V235.233ZM470.437,34.144v12h6.123V34.234Zm0,83.356v11.908h6.123V117.5Zm0,117.777v11.908h6.123V235.278ZM353.769,34.189h0v12h6.123V34.279Zm0,83.356v11.908h6.123V117.545Zm0,117.777v11.908h6.123V235.323ZM470.437,34.234v12h6.123V34.324Zm0,83.356V129.5h6.123V117.59Zm0,117.777v11.908h6.123V235.367ZM353.769,34.279h0v12h6.123V34.369Zm0,83.356v11.908h6.123V117.635Zm0,117.777V247.32h6.123V235.412ZM470.437,34.324v12h6.123V34.414Zm0,83.356v11.908h6.123V117.68Zm0,117.777v11.908h6.123V235.457ZM353.769,34.369h0v12h6.123V34.459Zm0,83.356v11.908h6.123V117.725Zm0,117.777V247.41h6.123V235.5ZM470.437,34.414V46.367h6.123V34.459l-6.123-.09Zm0,83.356v11.908h6.123V117.77Zm0,117.777v11.908h6.123V235.547ZM353.769,34.459h0V46.412h6.123V34.5l-6.123-.09Zm0,83.356v11.908h6.123V117.815Zm0,117.777V247.5h6.123V235.592ZM470.437,34.5V46.456h6.123V34.548h-6.123Zm0,83.266v11.908h6.123V117.77Zm0,117.777v11.908h6.123V235.547ZM353.769,34.459h0V46.412h6.123V34.5h-6.123Zm0,83.266v11.908h6.123V117.725Zm0,117.777V247.41h6.123V235.5ZM470.437,34.414V46.367h6.123V34.459h-6.123Zm0,83.266v11.908h6.123V117.68Zm0,117.777v11.908h6.123V235.457ZM353.769,34.369h0V46.322h6.123V34.414h-6.123Zm0,83.266v11.908h6.123V117.635Zm0,117.777V247.32h6.123V235.412ZM470.437,34.324V46.277h6.123V34.369h-6.123Zm0,83.266V129.5h6.123V117.59Zm0,117.777v11.908h6.123V235.367ZM353.769,34.279h0V46.232h6.123V34.324h-6.123Zm0,83.266v11.908h6.123V117.545Zm0,117.777V247.23h6.123V235.322ZM470.437,34.234V46.187h6.123V34.279h-6.123Zm0,83.266v11.908h6.123V117.5Zm0,117.777v11.908h6.123V235.277ZM353.769,34.189h0V46.142h6.123V34.234h-6.123Zm0,83.266v11.908h6.123V117.455Zm0,117.777v11.908h6.123V235.232ZM470.437,34.144V46.1h6.123V34.189h-6.123Zm0,83.266v11.908h6.123V117.41Zm0,117.777V247.1h6.123V235.188ZM353.769,34.1h0V46.052h6.123V34.144h-6.123Zm0,83.266v11.908h6.123V117.365Zm0,117.777v11.908h6.123V235.143ZM470.437,34.054V46.007h6.123V34.1h-6.123Zm0,83.266v11.908h6.123V117.32Zm0,117.777v11.908h6.123V235.1ZM353.769,34.009h0V45.962h6.123V34.054h-6.123Zm0,83.266v11.908h6.123V117.275Zm0,117.777v11.908h6.123V235.053ZM470.437,33.964V45.917h6.123V34.009h-6.123Zm0,83.266v11.908h6.123V117.231Zm0,117.777v11.908h6.123V235.008ZM353.769,33.919h0V45.872h6.123V33.964h-6.123Zm0,83.266v11.908h6.123V117.186Zm0,117.777v11.908h6.123V234.963ZM470.437,33.874V45.827h6.123V33.919h-6.123Zm0,83.266v11.908h6.123V117.141Zm0,117.777v11.908h6.123V234.918ZM353.769,33.829h0V45.782h6.123V33.874h-6.123Zm0,83.266V129h6.123V117.1Zm0,117.777v11.908h6.123V234.873ZM470.437,33.784V45.737h6.123V33.829h-6.123Zm0,83.266v11.908h6.123V117.051Zm0,117.777v11.908h6.123V234.828ZM353.769,33.739h0V45.692h6.123V33.784h-6.123Zm0,83.266v11.908h6.123V117.006Zm0,117.777v11.908h6.123V234.783ZM470.437,33.694V45.647h6.123V33.739h-6.123Zm0,83.266v11.908h6.123V116.961Zm0,117.777v11.908h6.123V234.738ZM353.769,33.65h0V45.6h6.123V33.694h-6.123Zm0,83.266v11.908h6.123V116.916Zm0,117.777V246.6h6.123V234.693ZM470.437,33.6V45.558h6.123V33.65h-6.123Zm0,83.266v11.908h6.123V116.871Zm0,117.777v11.908h6.123V234.648ZM353.769,33.56h0V45.513h6.123V33.6h-6.123Zm0,83.266v11.908h6.123V116.826Zm0,117.777v11.908h6.123V234.6ZM470.437,33.515V45.468h6.123V33.56h-6.123Zm0,83.266v11.908h6.123V116.781Zm0,117.777v11.908h6.123V234.558ZM353.769,33.47h0V45.423h6.123V33.515h-6.123Zm0,83.266v11.908h6.123V116.736Zm0,117.777v11.908h6.123V234.513ZM470.437,33.425V45.378h6.123V33.47h-6.123Zm0,83.266V128.6h6.123V116.691Zm0,117.777v11.908h6.123V234.468ZM353.769,33.38h0V45.333h6.123V33.425h-6.123Zm0,83.266v11.908h6.123V116.646Zm0,117.777v11.908h6.123V234.423ZM470.437,33.335V45.288h6.123V33.38h-6.123Zm0,83.266v11.908h6.123V116.6Zm0,117.777v11.908h6.123V234.379ZM353.769,33.29h0V45.243h6.123V33.335h-6.123Zm0,83.266v11.908h6.123V116.556Zm0,117.777v11.908h6.123V234.334ZM470.437,33.245V45.2h6.123V33.29h-6.123Zm0,83.266v11.908h6.123V116.511Zm0,117.777V246.2h6.123V234.289ZM353.769,33.245h0V45.2h6.123V33.29h-6.123Zm0,83.266v11.908h6.123V116.511Zm0,117.777V246.2h6.123V234.289ZM470.437,33.245V45.2h6.123V33.29h-6.123Zm0,83.266v11.908h6.123V116.511Zm0,117.777V246.2h6.123V234.289ZM353.769,33.245h0V45.2h6.123V33.29h-6.123Zm0,83.266v11.908h6.123V116.511Zm0,117.777V246.2h6.123V234.289ZM470.437,33.245V45.2h6.123V33.29h-6.123Zm0,83.266v11.908h6.123V116.511Zm0,117.777V246.2h6.123V234.289ZM353.769,33.245h0V45.2h6.123V33.29h-6.123Zm0,83.266v11.908h6.123V116.511Zm0,117.777V246.2h6.123V234.289ZM470.437,33.245V45.2h6.123V33.29h-6.123Zm0,83.266v11.908h6.123V116.511Zm0,117.777V246.2h6.123V234.289ZM353.769,33.245h0V45.2h6.123V33.29h-6.123Zm0,83.266v11.908h6.123V116.511Zm0,117.777V246.2h6.123V234.289ZM470.437,33.245V45.2h6.123V33.29h-6.123Zm0,83.266v11.908h6.123V116.511Zm0,117.777V246.2h6.123V234.289ZM353.769,33.245h0V45.2h6.123V33.29h-6.123Zm0,83.266v11.908h6.123V116.511Zm0,117.777V246.2h6.123V234.289ZM470.437,33.245V45.153h6.123V33.245Zm0,83.266v11.908h6.123V116.511Zm0,117.777V246.2h6.123V234.289ZM353.769,33.245h0V45.153h6.123V33.245Zm0,83.266v11.908h6.123V116.511Zm0,117.777V246.2h6.123V234.289ZM470.437,33.245V45.153h6.123V33.245Zm0,83.266v11.908h6.123V116.511Zm0,117.777V246.2h6.123V234.289ZM353.769,33.245h0V45.153h6.123V33.245Zm0,83.266v11.908h6.123V116.511Zm0,117.777V246.2h6.123V234.289ZM470.437,33.245V45.153h6.123V33.245Zm0,83.266v11.908h6.123V116.511Zm0,117.777V246.2h6.123V234.289ZM353.769,33.245h0V45.153h6.123V33.245Zm0,83.266v11.908h6.123V116.511ZM470.437,33.245V45.153h6.123V33.245Zm0,83.266v11.908h6.123V116.511Zm0,117.777V246.2h6.123V234.289ZM353.769,33.245h0V45.153h6.123V33.245Zm116.668,0V45.153h6.123V33.245Zm0,83.266v11.908h6.123V116.511Zm0,117.777V246.2h6.123V234.289Zm0-201.044V45.153h6.123V33.245Zm0,83.266v11.908h6.123V116.511Zm0,117.777V246.2h6.123V234.289Zm0-201.044V45.153h6.123V33.245Zm0,83.266v11.908h6.123V116.511Zm0,117.777V246.2h6.123V234.289Zm0-201.044V45.153h6.123V33.245Zm0,83.266v11.908h6.123V116.511Zm0,117.777V246.2h6.123V234.289Zm0-201.044V45.153h6.123V33.245Zm0,83.266v11.908h6.123V116.511Zm0,117.777V246.2h6.123V234.289Zm0-201.044V45.153h6.123V33.245Zm0,83.266v11.908h6.123V116.511Zm0,117.777V246.2h6.123V234.289Zm0-201.044V45.153h6.123V33.245Zm0,83.266v11.908h6.123V116.511Zm0,117.777V246.2h6.123V234.289Zm0-201.044V45.153h6.123V33.245Zm0,83.266v11.908h6.123V116.511Zm0,117.777V246.2h6.123V234.289Zm0-201.044V45.153h6.123V33.245Zm0,83.266v11.908h6.123V116.511Zm0-83.266V45.153h6.123V33.245Zm0,83.266v11.908h6.123V116.511Zm0-83.266V45.153h6.123V33.245Zm0,83.266v11.908h6.123V116.511Z" transform="translate(1064.339 55.368)" fill="#101010"/>
        <path id="Path_57" data-name="Path 57" d="M124.158,33.83V45.738h6.123V33.83Zm0,83.266V129h6.123V117.1Zm0-83.266V45.738h6.123V33.83Zm0,83.266V129h6.123V117.1Zm0-83.266V45.738h6.123V33.83Zm0,83.266V129h6.123V117.1Zm0-83.266V45.738h6.123V33.83Zm0,201.044v11.908h6.123V234.873Zm0-117.777V129h6.123V117.1Zm0-83.266V45.738h6.123V33.83Zm0,201.044v11.908h6.123V234.873Zm0-117.777V129h6.123V117.1Zm0-83.266V45.738h6.123V33.83Zm0,201.044v11.908h6.123V234.873Zm0-117.777V129h6.123V117.1Zm0-83.266V45.738h6.123V33.83Zm0,201.044v11.908h6.123V234.873Zm0-117.777V129h6.123V117.1Zm0-83.266V45.738h6.123V33.83Zm0,201.044v11.908h6.123V234.873Zm0-117.777V129h6.123V117.1Zm0-83.266V45.738h6.123V33.83Zm0,201.044v11.908h6.123V234.873Zm0-117.777V129h6.123V117.1Zm0-83.266V45.738h6.123V33.83Zm0,201.044v11.908h6.123V234.873Zm0-117.777V129h6.123V117.1Zm0-83.266V45.738h6.123V33.83Zm116.668,0V45.738h6.123V33.83ZM124.158,234.873v11.908h6.123V234.873Zm0-117.777V129h6.123V117.1Zm0-83.266V45.738h6.123V33.83ZM240.826,117.1V129h6.123V117.1Zm0-83.266V45.738h6.123V33.83ZM124.158,234.873v11.908h6.123V234.873Zm0-117.777V129h6.123V117.1Zm0-83.266V45.738h6.123V33.83ZM240.826,117.1V129h6.123V117.1Zm0-83.266V45.738h6.123V33.83ZM124.158,234.873v11.908h6.123V234.873Zm0-117.777V129h6.123V117.1Zm0-83.266V45.738h6.123V33.83ZM240.826,234.873v11.908h6.123V234.873Zm0-117.777V129h6.123V117.1Zm0-83.266V45.738h6.123V33.83ZM124.158,234.873v11.908h6.123V234.873Zm0-117.777V129h6.123V117.1Zm0-83.266V45.738h6.123V33.83ZM240.826,234.873v11.908h6.123V234.873Zm0-117.777V129h6.123V117.1Zm0-83.266V45.738h6.123V33.83ZM124.158,234.873v11.908h6.123V234.873Zm0-117.777V129h6.123V117.1Zm0-83.266V45.738h6.123V33.83ZM240.826,234.873v11.908h6.123V234.873Zm0-117.777V129h6.123V117.1Zm0-83.266V45.738h6.123V33.83ZM124.158,234.873v11.908h6.123V234.873Zm0-117.777V129h6.123V117.1Zm0-83.266V45.738h6.123V33.83ZM240.826,234.873v11.908h6.123V234.873Zm0-117.777V129h6.123V117.1Zm0-83.266V45.738h6.123V33.83ZM124.158,234.873v11.908h6.123V234.873Zm0-117.777V129h6.123V117.1Zm0-83.266V45.738h6.123V33.83ZM240.826,234.873v11.908h6.123V234.873Zm0-117.777V129h6.123V117.1Zm0-83.266V45.738h6.123V33.83ZM124.158,234.873v11.908h6.123V234.873Zm0-117.777V129h6.123V117.1Zm0-83.266V45.738h6.123V33.83ZM240.826,234.873v11.908h6.123V234.873Zm0-117.777V129h6.123V117.1Zm0-83.266V45.738h6.123V33.83ZM124.158,234.873v11.908h6.123V234.873Zm0-117.777V129h6.123V117.1Zm0-83.266V45.738h6.123V33.83ZM240.826,234.873v11.908h6.123V234.873Zm0-117.777V129h6.123V117.1Zm0-83.266V45.738h6.123V33.83ZM124.158,234.873v11.908h6.123V234.873Zm0-117.777V129h6.123V117.1Zm0-83.266V45.738h6.123V33.83ZM240.826,234.873v11.908h6.123V234.873Zm0-117.777V129h6.123V117.1Zm0-83.266V45.738h6.123V33.83ZM124.158,234.873v11.908h6.123V234.873Zm0-117.777V129h6.123V117.1Zm0-83.266V45.738h6.123V33.83ZM240.826,234.873v11.908h6.123V234.873Zm0-117.777V129h6.123V117.1Zm0-83.266V45.738h6.123V33.83ZM124.158,234.873v11.908h6.123V234.873Zm0-117.777V129h6.123V117.1Zm0-83.266V45.738h6.123V33.83ZM240.826,234.873v11.908h6.123V234.873Zm0-117.777V129h6.123V117.1Zm0-83.266V45.738h6.123V33.83ZM124.158,234.873v11.908h6.123V234.873Zm0-117.777V129h6.123V117.1Zm0-83.266V45.738h6.123V33.83ZM240.826,234.873v11.908h6.123V234.873Zm0-117.777V129h6.123V117.1Zm0-83.266V45.738h6.123V33.83ZM124.158,234.873v11.908h6.123V234.873Zm0-117.777V129h6.123V117.1Zm0-83.266V45.738h6.123V33.83ZM240.826,234.873v11.908h6.123V234.873Zm0-117.777V129h6.123V117.1Zm0-83.266V45.738h6.123V33.83ZM124.158,234.873v11.908h6.123V234.873Zm0-117.777V129h6.123V117.1Zm0-83.266V45.738h6.123V33.83ZM240.826,234.873v11.908h6.123V234.873Zm0-117.777V129h6.123V117.1Zm0-83.266V45.738h6.123V33.83ZM124.158,234.873v11.908h6.123V234.873Zm0-117.777V129h6.123V117.1Zm0-83.266V45.738h6.123V33.83ZM240.826,234.873v11.908h6.123V234.873Zm0-117.777V129h6.123V117.1Zm0-83.266V45.738h6.123V33.83ZM124.158,234.873v11.908h6.123V234.873Zm0-117.777V129h6.123V117.1Zm0-83.266V45.738h6.123V33.83ZM240.826,234.873v11.908h6.123V234.873Zm0-117.777V129h6.123V117.1Zm0-83.266V45.738h6.123V33.83ZM124.158,234.873v11.908h6.123V234.873Zm0-117.777V129h6.123V117.1Zm0-83.266V45.738h6.123V33.83ZM240.826,234.873v11.908h6.123V234.873Zm0-117.777V129h6.123V117.1Zm0-83.266V45.738h6.123V33.83ZM124.158,234.873v11.908h6.123V234.873Zm0-117.777V129h6.123V117.1Zm0-83.266V45.738h6.123V33.83ZM240.826,234.873v11.908h6.123V234.873Zm0-117.777V129h6.123V117.1Zm0-83.266V45.738h6.123V33.83ZM124.158,234.873v11.908h6.123V234.873Zm0-117.777V129h6.123V117.1Zm0-83.266V45.738h6.123V33.83ZM240.826,234.873v11.908h6.123V234.873Zm0-117.777V129h6.123V117.1Zm0-83.266V45.738h6.123V33.83ZM124.158,234.873v11.908h6.123V234.873Zm0-117.777V129h6.123V117.1Zm0-83.266V45.738h6.123V33.83ZM240.826,234.873v11.908h6.123V234.873Zm0-117.777V129h6.123V117.1Zm0-83.266V45.738h6.123V33.83ZM124.158,234.873v11.908h6.123V234.873Zm0-117.777V129h6.123V117.1Zm0-83.266V45.738h6.123V33.83ZM240.826,234.873v11.908h6.123V234.873Zm0-117.777V129h6.123V117.1Zm0-83.266V45.738h6.123V33.83ZM124.158,234.873v11.908h6.123V234.873Zm0-117.777V129h6.123V117.1Zm0-83.266V45.738h6.123V33.83ZM240.826,234.873v11.908h6.123V234.873Zm0-117.777V129h6.123V117.1Zm0-83.266V45.738h6.123V33.83ZM124.158,234.873v11.908h6.123V234.873Zm0-117.777V129h6.123V117.1Zm0-83.266V45.738h6.123V33.83ZM240.826,234.873v11.908h6.123V234.873Zm0-117.777V129h6.123V117.1Zm0-83.266V45.738h6.123V33.83ZM124.158,234.873v11.908h6.123V234.873Zm0-117.777V129h6.123V117.1Zm0-83.266V45.738h6.123V33.83ZM240.826,234.873v11.908h6.123V234.873Zm0-117.777V129h6.123V117.1Zm0-83.266V45.738h6.123V33.83ZM124.158,234.873v11.908h6.123V234.873Zm0-117.777V129h6.123V117.1Zm0-83.266V45.738h6.123V33.83ZM240.826,234.873v11.908h6.123V234.873Zm0-117.777V129h6.123V117.1Zm0-83.266V45.738h6.123V33.83ZM124.158,234.873v11.908h6.123V234.873Zm0-117.777V129h6.123V117.1Zm0-83.266V45.738h6.123V33.83ZM240.826,234.873v11.908h6.123V234.873Zm0-117.777V129h6.123V117.1Zm0-83.266V45.738h6.123V33.83ZM124.158,234.873v11.908h6.123V234.873Zm0-117.777V129h6.123V117.1Zm0-83.266V45.738h6.123V33.83ZM240.826,234.873v11.908h6.123V234.873Zm0-117.777V129h6.123V117.1Zm0-83.266V45.738h6.123V33.83ZM124.158,234.873v11.908h6.123V234.873Zm0-117.777V129h6.123V117.1Zm0-83.266V45.738h6.123V33.83ZM240.826,234.873v11.908h6.123V234.873Zm0-117.777V129h6.123V117.1Zm0-83.266V45.738h6.123V33.83ZM124.158,234.873v11.908h6.123V234.873Zm0-117.777V129h6.123V117.1Zm0-83.266V45.738h6.123V33.83ZM240.826,234.873v11.908h6.123V234.873Zm0-117.777V129h6.123V117.1Zm0-83.266V45.738h6.123V33.83ZM124.158,234.873v11.908h6.123V234.873Zm0-117.777V129h6.123V117.1Zm0-83.266V45.738h6.123V33.83ZM240.826,234.873v11.908h6.123V234.873Zm0-117.777V129h6.123V117.1Zm0-83.266V45.738h6.123V33.83ZM124.158,234.873v11.908h6.123V234.873Zm0-117.777V129h6.123V117.1Zm0-83.266V45.738h6.123V33.83ZM240.826,234.873v11.908h6.123V234.873Zm0-117.777V129h6.123V117.1Zm0-83.266V45.738h6.123V33.83ZM124.158,234.873v11.908h6.123V234.873Zm0-117.777V129h6.123V117.1Zm0-83.266V45.738h6.123V33.83ZM240.826,234.873v11.908h6.123V234.873Zm0-117.777V129h6.123V117.1Zm0-83.266V45.738h6.123V33.83ZM124.158,234.873v11.908h6.123V234.873Zm0-117.777V129h6.123V117.1Zm0-83.266V45.738h6.123V33.83ZM240.826,234.873v11.908h6.123V234.873Zm0-117.777V129h6.123V117.1Zm0-83.266V45.738h6.123V33.83ZM124.158,234.873v11.908h6.123V234.873Zm0-117.777V129h6.123V117.1Zm0-83.266V45.738h6.123V33.83ZM240.826,234.873v11.908h6.123V234.873Zm0-117.777V129h6.123V117.1Zm0-83.266V45.738h6.123V33.83ZM124.158,234.873v11.908h6.123V234.873Zm0-117.777V129h6.123V117.1Zm0-83.266V45.738h6.123V33.83ZM240.826,234.873v11.908h6.123V234.873Zm0-117.777V129h6.123V117.1Zm0-83.266V45.738h6.123V33.83ZM124.158,234.873v11.908h6.123V234.873Zm0-117.777V129h6.123V117.1Zm0-83.266V45.738h6.123V33.83ZM240.826,234.873v11.908h6.123V234.873Zm0-117.777V129h6.123V117.1Zm0-83.266V45.738h6.123V33.83ZM124.158,234.873v11.908h6.123V234.873Zm0-117.777V129h6.123V117.1Zm0-83.266V45.738h6.123V33.83ZM240.826,234.873v11.908h6.123V234.873Zm0-117.777V129h6.123V117.1Zm0-83.266V45.738h6.123V33.83ZM124.158,234.873v11.908h6.123V234.873Zm0-117.777V129h6.123V117.1Zm0-83.266V45.738h6.123V33.83ZM240.826,234.963v11.908h6.123V234.963Zm0-117.777v11.908h6.123V117.186Zm6.123-83.356-6.123.09V45.828h6.123v-12Zm0,201.133v11.908h0V234.963Zm0-117.777v11.908h0V117.186Zm0-83.356v12h0v-12ZM1.32,16.08V313.466H308.368V16.08ZM240.826,45.828h-43V33.92h43Zm-43,5.932h43V77.912h-43Zm49.126,0h42.956V77.912H246.949V51.759Zm0-5.932v-12h42.956v12H246.949Zm-49.126,115.4V135.07h43v26.153Zm43-32.084h-43V117.231h43Zm-43,105.869h43v11.908h-43Zm49.126,0h42.956v11.908H246.949V235.008Zm0-73.74V135.115h42.956v26.153H246.949Zm0-32.084V117.276h42.956v11.908H246.949ZM197.823,252.893h43v26.153h-43Zm49.126,0h42.956v26.153H246.949V252.893ZM124.158,45.828H81.2V33.92h42.956ZM81.2,51.759h42.956V77.912H81.2Zm49.126,0h43V77.912h-43V51.759Zm0-5.932v-12h43v12h-43ZM124.2,129.094H81.248V117.186H124.2ZM81.248,161.178V135.026H124.2v26.153Zm0,73.74H124.2v11.908H81.248Zm49.126,11.908V234.918h43v11.908Zm0-85.648V135.026h43v26.153Zm0-32.084V117.186h43v11.908ZM81.248,252.8H124.2v26.153H81.248Zm49.126,0h43v26.153h-43Zm-73.666,0v23.771H19.783V252.8H56.616Zm0-201.044V77.912H19.783V51.759H56.616ZM19.876,33.83H56.708v12H19.783v-12Zm0,201.133H56.708v11.908H19.783V234.963Zm0-76.166V135.026H56.708V158.8H19.783Zm0-29.7V117.186H56.708v11.908H19.783ZM246.949,33.83l-6.123.09V45.828h6.123v-12Zm-6.123,83.356v11.908h6.123V117.186Zm0,117.777v11.908h6.123V234.963ZM124.158,33.92V45.828h6.123v-12Zm0,83.266v11.908h6.123V117.186Zm0,117.777v11.908h6.123V234.963ZM246.949,33.83l-6.123.09V45.828h6.123v-12Zm-6.123,83.356v11.908h6.123V117.186Zm0,117.777v11.908h6.123V234.963ZM124.158,33.92V45.828h6.123v-12Zm0,83.266v11.908h6.123V117.186Zm0,117.777v11.908h6.123V234.963ZM246.949,33.83l-6.123.09V45.828h6.123v-12Zm-6.123,83.356v11.908h6.123V117.186Zm0,117.777v11.908h6.123V234.963ZM124.158,33.92V45.828h6.123v-12Zm0,83.266v11.908h6.123V117.186Zm0,117.777v11.908h6.123V234.963ZM246.949,33.83l-6.123.09V45.828h6.123v-12Zm-6.123,83.356v11.908h6.123V117.186Zm0,117.777v11.908h6.123V234.963ZM124.158,33.92V45.828h6.123v-12Zm0,83.266v11.908h6.123V117.186Zm0,117.777v11.908h6.123V234.963ZM246.949,33.83l-6.123.09V45.828h6.123v-12Zm-6.123,83.356v11.908h6.123V117.186Zm0,117.777v11.908h6.123V234.963ZM124.158,33.92V45.828h6.123v-12Zm0,83.266v11.908h6.123V117.186Zm0,117.777v11.908h6.123V234.963ZM246.949,33.83l-6.123.09V45.828h6.123v-12Zm-6.123,83.356v11.908h6.123V117.186Zm0,117.777v11.908h6.123V234.963ZM124.158,33.92V45.828h6.123v-12Zm0,83.266v11.908h6.123V117.186Zm0,117.777v11.908h6.123V234.963ZM246.949,33.83l-6.123.09V45.828h6.123v-12Zm-6.123,83.356v11.908h6.123V117.186Zm0,117.777v11.908h6.123V234.963ZM124.158,33.92V45.828h6.123v-12Zm0,83.266v11.908h6.123V117.186Zm0,117.777v11.908h6.123V234.963ZM246.949,33.83l-6.123.09V45.828h6.123v-12Zm-6.123,83.356v11.908h6.123V117.186Zm0,117.777v11.908h6.123V234.963ZM124.158,33.92V45.828h6.123v-12Zm0,83.266v11.908h6.123V117.186Zm0,117.777v11.908h6.123V234.963ZM246.949,33.83l-6.123.09V45.828h6.123v-12Zm-6.123,83.356v11.908h6.123V117.186Zm0,117.777v11.908h6.123V234.963ZM124.158,33.92V45.828h6.123v-12Zm0,83.266v11.908h6.123V117.186Zm0,117.777v11.908h6.123V234.963ZM246.949,33.83l-6.123.09V45.828h6.123v-12Zm-6.123,83.356v11.908h6.123V117.186Zm0,117.777v11.908h6.123V234.963ZM124.158,33.92V45.828h6.123v-12Zm0,83.266v11.908h6.123V117.186Zm0,117.777v11.908h6.123V234.963ZM246.949,33.83l-6.123.09V45.828h6.123v-12Zm-6.123,83.356v11.908h6.123V117.186Zm0,117.777v11.908h6.123V234.963ZM124.158,33.92V45.828h6.123v-12Zm0,83.266v11.908h6.123V117.186Zm0,117.777v11.908h6.123V234.963ZM246.949,33.83l-6.123.09V45.828h6.123v-12Zm-6.123,83.356v11.908h6.123V117.186Zm0,117.777v11.908h6.123V234.963ZM124.158,33.92V45.828h6.123v-12Zm0,83.266v11.908h6.123V117.186Zm0,117.777v11.908h6.123V234.963ZM246.949,33.83l-6.123.09V45.828h6.123v-12Zm-6.123,83.356v11.908h6.123V117.186Zm0,117.777v11.908h6.123V234.963ZM124.158,33.92V45.828h6.123v-12Zm0,83.266v11.908h6.123V117.186Zm0,117.777v11.908h6.123V234.963ZM246.949,33.83l-6.123.09V45.828h6.123v-12Zm-6.123,83.356v11.908h6.123V117.186Zm0,117.777v11.908h6.123V234.963ZM124.158,33.92V45.828h6.123v-12Zm0,83.266v11.908h6.123V117.186Zm0,117.777v11.908h6.123V234.963ZM246.949,33.83l-6.123.09V45.828h6.123v-12Zm-6.123,83.356v11.908h6.123V117.186Zm0,117.777v11.908h6.123V234.963ZM124.158,33.92V45.828h6.123v-12Zm0,83.266v11.908h6.123V117.186Zm0,117.777v11.908h6.123V234.963ZM246.949,33.83l-6.123.09V45.828h6.123v-12Zm-6.123,83.356v11.908h6.123V117.186Zm0,117.777v11.908h6.123V234.963ZM124.158,33.92V45.828h6.123V33.875l-6.123.09Zm0,83.266v11.908h6.123V117.186Zm0,117.777v11.908h6.123V234.963ZM246.949,33.83l-6.123.09V45.828h6.123V33.875h0Zm-6.123,83.356v11.908h6.123V117.186Zm0,117.777v11.908h6.123V234.963ZM124.158,33.875V45.783h6.123V33.83h-6.123Zm0,83.356v11.908h6.123V117.231Zm0,117.777v11.908h6.123V235.008ZM246.949,33.83h-6.123V45.783h6.123V33.83Zm-6.123,83.356v11.908h6.123V117.186Zm0,117.777v11.908h6.123V234.963ZM124.158,33.875V45.783h6.123V33.83h-6.123Zm0,83.356v11.908h6.123V117.231Zm0,117.777v11.908h6.123V235.008ZM246.949,33.83h-6.123V45.783h6.123V33.83Zm-6.123,83.356v11.908h6.123V117.186Zm0,117.777v11.908h6.123V234.963ZM124.158,33.875V45.783h6.123V33.83h-6.123Zm0,83.356v11.908h6.123V117.231Zm0,117.777v11.908h6.123V235.008ZM246.949,33.83h-6.123V45.783h6.123V33.83Zm-6.123,83.356v11.908h6.123V117.186Zm0,117.777v11.908h6.123V234.963ZM124.158,33.875V45.783h6.123V33.83h-6.123Zm0,83.356v11.908h6.123V117.231Zm0,117.777v11.908h6.123V235.008ZM246.949,33.83h-6.123V45.783h6.123V33.83Zm-6.123,83.356v11.908h6.123V117.186Zm0,117.777v11.908h6.123V234.963ZM124.158,33.875V45.783h6.123V33.83h-6.123Zm0,83.311v11.908h6.123V117.186Zm0,117.777v11.908h6.123V234.963ZM246.949,33.83h-6.123V45.783h6.123V33.83Zm-6.123,83.311v11.908h6.123V117.141Zm0,117.777v11.908h6.123V234.918ZM124.158,33.875V45.783h6.123V33.83h-6.123Zm0,83.311v11.908h6.123V117.186Zm0,117.777v11.908h6.123V234.963ZM246.949,33.83h-6.123V45.783h6.123V33.83Zm-6.123,83.311v11.908h6.123V117.141Zm0,117.777v11.908h6.123V234.918ZM124.158,33.875V45.783h6.123V33.83h-6.123Zm0,83.311v11.908h6.123V117.186Zm0,117.777v11.908h6.123V234.963ZM246.949,33.83h-6.123V45.783h6.123V33.83Zm-6.123,83.311v11.908h6.123V117.141Zm0,117.777v11.908h6.123V234.918ZM124.158,33.875V45.783h6.123V33.83h-6.123Zm0,83.311v11.908h6.123V117.186Zm0,117.777v11.908h6.123V234.963ZM246.949,33.83h-6.123V45.783h6.123V33.83Zm-6.123,83.311v11.908h6.123V117.141Zm0,117.777v11.908h6.123V234.918ZM124.158,33.875V45.783h6.123V33.83h-6.123Zm0,83.311v11.908h6.123V117.186Zm0,117.777v11.908h6.123V234.963ZM246.949,33.83h-6.123V45.783h6.123V33.83Zm-6.123,83.311v11.908h6.123V117.141Zm0,117.777v11.908h6.123V234.918ZM124.158,33.875V45.783h6.123V33.83h-6.123Zm0,83.311v11.908h6.123V117.186Zm0,117.777v11.908h6.123V234.963ZM246.949,33.83h-6.123V45.783h6.123V33.83Zm-6.123,83.311v11.908h6.123V117.141Zm0,117.777v11.908h6.123V234.918ZM124.158,33.875V45.783h6.123V33.83h-6.123Zm0,83.311v11.908h6.123V117.186Zm0,117.777v11.908h6.123V234.963ZM246.949,33.83h-6.123V45.783h6.123V33.83Zm-6.123,83.311v11.908h6.123V117.141Zm0,117.777v11.908h6.123V234.918ZM124.158,33.875V45.783h6.123V33.83h-6.123Zm0,83.311v11.908h6.123V117.186Zm0,117.777v11.908h6.123V234.963ZM246.949,33.83h-6.123V45.783h6.123V33.83Zm-6.123,83.311v11.908h6.123V117.141Zm0,117.777v11.908h6.123V234.918ZM124.158,33.875V45.783h6.123V33.83h-6.123Zm0,83.311v11.908h6.123V117.186Zm0,117.777v11.908h6.123V234.963ZM246.949,33.83h-6.123V45.783h6.123V33.83Zm-6.123,83.311v11.908h6.123V117.141Zm0,117.777v11.908h6.123V234.918ZM124.158,33.875V45.783h6.123V33.83h-6.123Zm0,83.311v11.908h6.123V117.186Zm0,117.777v11.908h6.123V234.963ZM246.949,33.83h-6.123V45.783h6.123V33.83Zm-6.123,83.311v11.908h6.123V117.141Zm0,117.777v11.908h6.123V234.918ZM124.158,33.875V45.783h6.123V33.83h-6.123Zm0,83.311v11.908h6.123V117.186Zm0,117.777v11.908h6.123V234.963ZM246.949,33.83h-6.123V45.783h6.123V33.83Zm-6.123,83.311v11.908h6.123V117.141Zm0,117.777v11.908h6.123V234.918ZM124.158,33.875V45.783h6.123V33.83h-6.123Zm0,83.311v11.908h6.123V117.186Zm0,117.777v11.908h6.123V234.963ZM246.949,33.83h-6.123V45.783h6.123V33.83Zm-6.123,83.311v11.908h6.123V117.141Zm0,117.777v11.908h6.123V234.918ZM124.158,33.875V45.783h6.123V33.83h-6.123Zm0,83.311v11.908h6.123V117.186Zm0,117.777v11.908h6.123V234.963ZM246.949,33.83h-6.123V45.783h6.123V33.83Zm-6.123,83.311v11.908h6.123V117.141Zm0,117.777v11.908h6.123V234.918ZM124.158,33.875V45.783h6.123V33.83h-6.123Zm0,83.311v11.908h6.123V117.186Zm0,117.777v11.908h6.123V234.963ZM246.949,33.83h-6.123V45.783h6.123V33.83Zm-6.123,83.311v11.908h6.123V117.141Zm0,117.777v11.908h6.123V234.918ZM124.158,33.875V45.783h6.123V33.83h-6.123Zm0,83.311v11.908h6.123V117.186Zm0,117.777v11.908h6.123V234.963ZM246.949,33.83h-6.123V45.783h6.123V33.83Zm-6.123,83.311v11.908h6.123V117.141Zm0,117.777v11.908h6.123V234.918ZM124.158,33.875V45.783h6.123V33.875Zm0,83.266v11.908h6.123V117.141Zm0,117.777v11.908h6.123V234.918ZM246.949,33.83h-6.123V45.738h6.123V33.83ZM240.826,117.1V129h6.123V117.1Zm0,117.777v11.908h6.123V234.873Zm-116.668-201V45.783h6.123V33.875Zm0,83.266v11.908h6.123V117.141Zm0,117.777v11.908h6.123V234.918ZM246.949,33.83h-6.123V45.738h6.123V33.83ZM240.826,117.1V129h6.123V117.1Zm0,117.777v11.908h6.123V234.873ZM124.158,33.83V45.738h6.123V33.83Zm0,83.266V129h6.123V117.1Zm0,117.777v11.908h6.123V234.873ZM246.949,33.83h-6.123V45.738h6.123V33.83ZM240.826,117.1V129h6.123V117.1ZM124.158,33.83V45.738h6.123V33.83Zm0,83.266V129h6.123V117.1Zm0,117.777v11.908h6.123V234.873ZM246.949,33.83h-6.123V45.738h6.123V33.83Zm-122.791,0V45.738h6.123V33.83Zm0,83.266V129h6.123V117.1Zm0,117.777v11.908h6.123V234.873Zm0-201.044V45.738h6.123V33.83Zm0,83.266V129h6.123V117.1Zm0,117.777v11.908h6.123V234.873Zm0-201.044V45.738h6.123V33.83Zm0,83.266V129h6.123V117.1Zm0,117.777v11.908h6.123V234.873Zm0-201.044V45.738h6.123V33.83Zm0,83.266V129h6.123V117.1Zm0,117.777v11.908h6.123V234.873Zm0-201.044V45.738h6.123V33.83Zm0,83.266V129h6.123V117.1Zm0,117.777v11.908h6.123V234.873Zm0-201.044V45.738h6.123V33.83Zm0,83.266V129h6.123V117.1Zm0,117.777v11.908h6.123V234.873Zm0-201.044V45.738h6.123V33.83Zm0,83.266V129h6.123V117.1Zm0,117.777v11.908h6.123V234.873Zm0-201.044V45.738h6.123V33.83Zm0,83.266V129h6.123V117.1Zm0,117.777v11.908h6.123V234.873Zm0-201.044V45.738h6.123V33.83Zm0,83.266V129h6.123V117.1Zm0-83.266V45.738h6.123V33.83Zm0,83.266V129h6.123V117.1Zm0-83.266V45.738h6.123V33.83Zm0,83.266V129h6.123V117.1Z" transform="translate(4.803 55.368)" fill="#101010"/>
        <path id="Path_43" data-name="Path 43" d="M513.95,211.851v11.908h6.123V211.851Zm0,0v11.908h6.123V211.851Zm0-88.03v11.863h6.123V123.821Zm0,88.03v11.908h6.123V211.851Zm0-88.03v11.863h6.123V123.821Zm0,88.03v11.908h6.123V211.851Zm0-88.03v11.863h6.123V123.821Zm.232-83.266h-.232V52.463h6.123V40.555h-5.891Zm-.232,171.3v11.908h6.123V211.851Zm0-88.03v11.863h6.123V123.821Zm.232-83.266h-.232V52.463h6.123V40.555h-5.891Zm-.232,171.3v11.908h6.123V211.851Zm0-88.03v11.863h6.123V123.821Zm.232-83.266h-.232V52.463h6.123V40.555h-5.891Zm-116.668,0h-.185V52.463h6.123V40.555Zm116.436,171.3v11.908h6.123V211.851Zm0-88.03v11.863h6.123V123.821Zm.232-83.266h-.232V52.463h6.123V40.555h-5.891Zm-116.668,0h-.185V52.463h6.123V40.555Zm116.436,171.3v11.908h6.123V211.851Zm0-88.03v11.863h6.123V123.821Zm.232-83.266h-.232V52.463h6.123V40.555h-5.891ZM397.328,123.821v11.863h6.123V123.821Zm.186-83.266h-.186V52.463h6.123V40.555h-5.938Zm116.436,171.3v11.908h6.123V211.851Zm0-88.03v11.863h6.123V123.821Zm.232-83.266h-.232V52.463h6.123V40.555h-5.891ZM397.328,123.821v11.863h6.123V123.821Zm.185-83.266h-.185V52.463h6.123V40.555h-5.938Zm116.436,171.3v11.908h6.123V211.851Zm0-88.03v11.863h6.123V123.821Zm.232-83.266h-.232V52.463h6.123V40.555h-5.891ZM397.328,123.821v11.863h6.123V123.821Zm.186-83.266h-.186V52.463h6.123V40.555h-5.938Zm116.436,171.3v11.908h6.123V211.851Zm0-88.03v11.863h6.123V123.821Zm.232-83.266h-.232V52.463h6.123V40.555h-5.891Zm-116.854,171.3v11.908h6.123V211.851Zm0-88.03v11.863h6.123V123.821Zm.185-83.266h-.185V52.463h6.123V40.555h-5.938Zm116.436,171.3v11.908h6.123V211.851Zm0-88.03v11.863h6.123V123.821Zm.232-83.266h-.232V52.463h6.123V40.555h-5.891Zm-116.854,171.3v11.908h6.123V211.851Zm0-88.03v11.863h6.123V123.821Zm.186-83.266h-.186V52.463h6.123V40.555h-5.938Zm116.436,171.3v11.908h6.123V211.851Zm0-88.03v11.863h6.123V123.821Zm.232-83.266h-.232V52.463h6.123V40.555h-5.891Zm-116.854,171.3v11.908h6.123V211.851Zm0-88.03v11.863h6.123V123.821Zm.185-83.266h-.185V52.463h6.123V40.555h-5.938Zm116.436,171.3v11.908h6.123V211.851Zm0-88.03v11.863h6.123V123.821Zm.232-83.266h-.232V52.463h6.123V40.555h-5.891Zm-116.854,171.3v11.908h6.123V211.851Zm0-88.03v11.863h6.123V123.821Zm.186-83.266h-.186V52.463h6.123V40.555h-5.938Zm116.436,171.3v11.908h6.124V211.851Zm0-88.03v11.863h6.124V123.821Zm.232-83.266h-.232V52.463h6.124V40.555h-5.891Zm-116.854,171.3v11.908h6.123V211.851Zm0-88.03v11.863h6.123V123.821Zm.185-83.266h-.185V52.463h6.123V40.555h-5.938Zm-116.9,171.3v11.908h6.17V211.851Zm233.336,0v11.908h6.124V211.851Zm0-88.03v11.863h6.124V123.821Zm.232-83.266h-.232V52.463h6.124V40.555h-5.891Zm-116.854,171.3v11.908h6.123V211.851Zm0-88.03v11.863h6.123V123.821Zm.186-83.266h-.186V52.463h6.123V40.555h-5.938Zm-116.9,171.3v11.908h6.17V211.851Zm233.336,0v11.908h6.124V211.851Zm0-88.03v11.863h6.124V123.821Zm.232-83.266h-.232V52.463h6.124V40.555H514.18Zm-116.854,171.3v11.908h6.123V211.851Zm0-88.03v11.863h6.123V123.821Zm.185-83.266h-.185V52.463h6.123V40.555h-5.938Zm-116.9,171.3v11.908h6.17V211.851Zm0-88.03v11.863h6.17V123.821Zm233.336,88.03v11.908h6.124V211.851Zm0-88.03v11.863h6.124V123.821Zm.232-83.266h-.232V52.463h6.124V40.555H514.18Zm-116.854,171.3v11.908h6.123V211.851Zm0-88.03v11.863h6.123V123.821Zm.186-83.266h-.186V52.463h6.123V40.555Zm-116.9,171.3v11.908h6.17V211.851Zm0-88.03v11.863h6.17V123.821Zm233.336,88.03v11.908h6.124V211.851Zm0-88.03v11.863h6.124V123.821Zm.232-83.266h-.232V52.463h6.124V40.555H514.18Zm-116.854,171.3v11.908h6.123V211.851Zm0-88.03v11.863h6.123V123.821Zm.185-83.266h-.185V52.463h6.123V40.555Zm-116.9,171.3v11.908h6.17V211.851Zm0-88.03v11.863h6.17V123.821Zm.232-83.266h-.232V52.463h6.17V40.555Zm233.1,171.3v11.908h6.123V211.851Zm0-88.03v11.863h6.123V123.821Zm.232-83.266h-.232V52.463h6.123V40.555H514.18Zm-116.854,171.3v11.908h6.123V211.851Zm0-88.03v11.863h6.123V123.821Zm.186-83.266h-.186V52.463h6.123V40.555Zm-116.9,171.3v11.908h6.17V211.851Zm0-88.03v11.863h6.17V123.821Zm.232-83.266h-.232V52.463h6.17V40.555Zm233.1,171.3v11.908h6.123V211.851Zm0-88.03v11.863h6.123V123.821Zm.232-83.266h-.232V52.463h6.123V40.555H514.18Zm-116.854,171.3v11.908h6.123V211.851Zm0-88.03v11.863h6.123V123.821Zm.186-83.266h-.186V52.463h6.123V40.555Zm-116.9,171.3v11.908h6.17V211.851Zm0-88.03v11.863h6.17V123.821Zm.232-83.266h-.232V52.463h6.17V40.555Zm233.1,171.3v11.908h6.123V211.851Zm0-88.03v11.863h6.123V123.821Zm.232-83.266h-.232V52.463h6.123V40.555H514.18Zm-116.854,171.3v11.908h6.123V211.851Zm0-88.03v11.863h6.123V123.821Zm.186-83.266h-.186V52.463h6.123V40.555Zm-116.9,171.3v11.908h6.17V211.851Zm0-88.03v11.863h6.17V123.821Zm.232-83.266h-.232V52.463h6.17V40.555Zm233.1,171.3v11.908h6.123V211.851Zm0-88.03v11.863h6.123V123.821Zm.232-83.266h-.232V52.463h6.123V40.555H514.18Zm-116.854,171.3v11.908h6.123V211.851Zm0-88.03v11.863h6.123V123.821Zm.186-83.266h-.186V52.463h6.123V40.555Zm-116.9,171.3v11.908h6.17V211.851Zm0-88.03v11.863h6.17V123.821Zm.232-83.266h-.232V52.463h6.17V40.555Zm233.1,171.3v11.908h6.123V211.851Zm0-88.03v11.863h6.123V123.821Zm.232-83.266h-.232V52.463h6.123V40.555H514.18Zm-116.854,171.3v11.908h6.123V211.851Zm0-88.03v11.863h6.123V123.821Zm.186-83.266h-.186V52.463h6.123V40.555Zm-116.9,171.3v11.908h6.17V211.851Zm0-88.03v11.863h6.17V123.821Zm.232-83.266h-.232V52.463h6.17V40.555Zm233.1,171.3v11.908h6.123V211.851Zm0-88.03v11.863h6.123V123.821Zm.232-83.266h-.232V52.463h6.123V40.555H514.18Zm-116.854,171.3v11.908h6.123V211.851Zm0-88.03v11.863h6.123V123.821Zm.186-83.266h-.186V52.463h6.123V40.555Zm-116.9,171.3v11.908h6.17V211.851Zm0-88.03v11.863h6.17V123.821Zm.232-83.266h-.232V52.463h6.17V40.555Zm233.1,171.3v11.908h6.123V211.851Zm0-88.03v11.863h6.123V123.821Zm.232-83.266h-.232V52.463h6.123V40.555H514.18Zm-116.854,171.3v11.908h6.123V211.851Zm0-88.03v11.863h6.123V123.821Zm.186-83.266h-.186V52.463h6.123V40.555Zm-116.9,171.3v11.908h6.17V211.851Zm0-88.03v11.863h6.17V123.821Zm.232-83.266h-.232V52.463h6.17V40.555Zm233.1,171.3v11.908h6.123V211.851Zm0-88.03v11.863h6.123V123.821Zm.232-83.266h-.232V52.463h6.123V40.555H514.18Zm-116.854,171.3v11.908h6.123V211.851Zm0-88.03v11.863h6.123V123.821Zm.186-83.266h-.186V52.463h6.123V40.555Zm-116.9,171.3v11.908h6.17V211.851Zm0-88.03v11.863h6.17V123.821Zm.232-83.266h-.232V52.463h6.17V40.555Zm233.1,171.3v11.908h6.123V211.851Zm0-88.03v11.863h6.123V123.821Zm.232-83.266h-.232V52.463h6.123V40.555H514.18Zm-116.854,171.3v11.908h6.123V211.851Zm0-88.03v11.863h6.123V123.821Zm.186-83.266h-.186V52.463h6.123V40.555Zm-116.9,171.3v11.908h6.17V211.851Zm0-88.03v11.863h6.17V123.821Zm.232-83.266h-.232V52.463h6.17V40.555Zm233.1,171.3v11.908h6.123V211.851Zm0-88.03v11.863h6.123V123.821Zm.232-83.266h-.232V52.463h6.123V40.555H514.18Zm-116.854,171.3v11.908h6.123V211.851Zm0-88.03v11.863h6.123V123.821Zm.186-83.266h-.186V52.463h6.123V40.555Zm-116.9,171.3v11.908h6.17V211.851Zm0-88.03v11.863h6.17V123.821Zm.232-83.266h-.232V52.463h6.17V40.555Zm233.1,171.3v11.908h6.123V211.851Zm0-88.03v11.863h6.123V123.821Zm.232-83.266h-.232V52.463h6.123V40.555H514.18Zm-116.854,171.3v11.908h6.123V211.851Zm0-88.03v11.863h6.123V123.821Zm.186-83.266h-.186V52.463h6.123V40.555Zm-116.9,171.3v11.908h6.17V211.851Zm0-88.03v11.863h6.17V123.821Zm.232-83.266h-.232V52.463h6.17V40.555Zm233.1,171.3v11.908h6.123V211.851Zm0-88.03v11.863h6.123V123.821Zm.232-83.266h-.232V52.463h6.123V40.555H514.18Zm-116.854,171.3v11.908h6.123V211.851Zm0-88.03v11.863h6.123V123.821Zm.186-83.266h-.186V52.463h6.123V40.555Zm-116.9,171.3v11.908h6.17V211.851Zm0-88.03v11.863h6.17V123.821Zm.232-83.266h-.232V52.463h6.17V40.555Zm233.1,171.3v11.908h6.123V211.851Zm0-88.03v11.863h6.123V123.821Zm.232-83.266h-.232V52.463h6.123V40.555H514.18Zm-116.854,171.3v11.908h6.123V211.851Zm0-88.03v11.863h6.123V123.821Zm.186-83.266h-.186V52.463h6.123V40.555Zm-116.9,171.3v11.908h6.17V211.851Zm0-88.03v11.863h6.17V123.821Zm.232-83.266h-.232V52.463h6.17V40.555Zm233.1,171.3v11.908h6.123V211.851Zm0-88.03v11.863h6.123V123.821Zm.232-83.266h-.232V52.463h6.123V40.555H514.18Zm-116.854,171.3v11.908h6.123V211.851Zm0-88.03v11.863h6.123V123.821Zm.186-83.266h-.186V52.463h6.123V40.555Zm-116.9,171.3v11.908h6.17V211.851Zm0-88.03v11.863h6.17V123.821Zm.232-83.266h-.232V52.463h6.17V40.555Zm233.1,171.3v11.908h6.123V211.851Zm0-88.03v11.863h6.123V123.821Zm.232-83.266h-.232V52.463h6.123V40.555H514.18Zm-116.854,171.3v11.908h6.123V211.851Zm0-88.03v11.863h6.123V123.821Zm.186-83.266h-.186V52.463h6.123V40.555Zm-116.9,171.3v11.908h6.17V211.851Zm0-88.03v11.863h6.17V123.821Zm.232-83.266h-.232V52.463h6.17V40.555Zm233.1,171.3v11.908h6.123V211.851Zm0-88.03v11.863h6.123V123.821Zm.232-83.266h-.232V52.463h6.123V40.555H514.18Zm-116.854,171.3v11.908h6.123V211.851Zm0-88.03v11.863h6.123V123.821Zm.186-83.266h-.186V52.463h6.123V40.555Zm-116.9,171.3v11.908h6.17V211.851Zm0-88.03v11.863h6.17V123.821Zm.232-83.266h-.232V52.463h6.17V40.555Zm-.232,171.251v11.908h0V211.806Zm0-88.03v11.863h0V123.776Zm0-83.266V52.418h0V40.51ZM213.07,22.67V290.309H581.536V22.715H213.07ZM470.992,223.714V211.806h42.956v11.908Zm49.126-82.053h43v26.153h-43Zm43-17.84v11.863h-43V123.821Zm-49.126,0v11.863H471.038V123.821Zm0,17.84v26.153H471.038V141.66Zm6.123,70.145h43v11.908h-43Zm0-127.259V58.394h43V84.547Zm43-43.992V52.463h-43V40.555Zm-49.126,0V52.463H471.038V40.555Zm0,17.84V84.547H471.038V58.394h42.956ZM354.324,223.759V211.85h43v11.908Zm49.126-82.1h42.956v26.153H403.449Zm42.956-17.84v11.863H403.449V123.821Zm-49.079,0v11.863h-43V123.821Zm0,17.84v26.153h-43V141.66Zm6.123,70.19h42.956v11.908H403.449Zm0-127.259V58.439h42.956V84.592ZM446.406,40.6V52.507H403.449V40.6Zm-49.079,0V52.507h-43V40.6Zm0,17.84V84.592h-43V58.439h43ZM237.656,211.85h42.956v11.908H237.656Zm0-88.03h42.956v11.863H237.656Zm92.082,11.863H286.781V123.821h42.956Zm0,88.03H286.781V211.806h42.956Zm0-55.9H286.781V141.66h42.956Zm0-83.266H286.781V58.394h42.956Zm0-43.992V52.463H286.781V40.554Zm-49.126,0V52.463H237.656V40.554Zm0,17.84V84.547H237.656V58.394h42.956ZM237.656,141.66h42.956v26.153H237.656Zm42.956,114.182H237.656V229.69h42.956Zm49.126,0H286.781V229.69h42.956Zm67.542,0h-43V229.69h43Zm49.079,0H403.4V229.69h42.956Zm67.542,0H470.945V229.69H513.9Zm49.126,0h-43V229.69h43ZM280.565,40.554V52.462h6.17V40.554Zm0,83.266v11.863h6.17V123.821Zm0,88.03v11.908h6.17V211.85Zm116.668-171.3V52.463h6.123V40.554Zm0,83.266v11.863h6.123V123.821Zm0,88.03v11.908h6.123V211.85ZM513.9,40.554V52.463h6.123V40.554Zm0,83.266v11.863h6.123V123.821Zm0,88.03v11.908h6.123V211.85ZM280.565,40.554V52.463h6.17V40.554Zm0,83.266v11.863h6.17V123.821Zm0,88.03v11.908h6.17V211.85Zm116.668-171.3V52.463h6.123V40.554Zm0,83.266v11.863h6.123V123.821Zm0,88.03v11.908h6.123V211.85ZM513.9,40.554V52.463h6.123V40.554Zm0,83.266v11.863h6.123V123.821Zm0,88.03v11.908h6.123V211.85ZM280.565,40.554V52.463h6.17V40.554Zm0,83.266v11.863h6.17V123.821Zm0,88.03v11.908h6.17V211.85Zm116.668-171.3V52.463h6.123V40.554Zm0,83.266v11.863h6.123V123.821Zm0,88.03v11.908h6.123V211.85ZM513.9,40.554V52.463h6.123V40.554Zm0,83.266v11.863h6.123V123.821Zm0,88.03v11.908h6.123V211.85ZM280.565,40.554V52.463h6.17V40.554Zm0,83.266v11.863h6.17V123.821Zm0,88.03v11.908h6.17V211.85Zm116.668-171.3V52.463h6.123V40.554Zm0,83.266v11.863h6.123V123.821Zm0,88.03v11.908h6.123V211.85ZM513.9,40.554V52.463h6.123V40.554Zm0,83.266v11.863h6.123V123.821Zm0,88.03v11.908h6.123V211.85ZM280.565,40.554V52.463h6.17V40.554Zm0,83.266v11.863h6.17V123.821Zm0,88.03v11.908h6.17V211.85Zm116.668-171.3V52.463h6.123V40.554Zm0,83.266v11.863h6.123V123.821Zm0,88.03v11.908h6.123V211.85ZM513.9,40.554V52.463h6.123V40.554Zm0,83.266v11.863h6.123V123.821Zm0,88.03v11.908h6.123V211.85ZM280.565,40.554V52.463h6.17V40.554Zm0,83.266v11.863h6.17V123.821Zm0,88.03v11.908h6.17V211.85Zm116.668-171.3V52.463h6.123V40.554Zm0,83.266v11.863h6.123V123.821Zm0,88.03v11.908h6.123V211.85ZM513.9,40.554V52.463h6.123V40.554Zm0,83.266v11.863h6.123V123.821Zm0,88.03v11.908h6.123V211.85ZM280.565,40.554V52.463h6.17V40.554Zm0,83.266v11.863h6.17V123.821Zm0,88.03v11.908h6.17V211.85Zm116.668-171.3V52.463h6.123V40.554Zm0,83.266v11.863h6.123V123.821Zm0,88.03v11.908h6.123V211.85ZM513.9,40.554V52.463h6.123V40.554Zm0,83.266v11.863h6.123V123.821Zm0,88.03v11.908h6.123V211.85ZM280.565,40.554V52.463h6.17V40.554Zm0,83.266v11.863h6.17V123.821Zm0,88.03v11.908h6.17V211.85Zm116.668-171.3V52.463h6.123V40.554Zm0,83.266v11.863h6.123V123.821Zm0,88.03v11.908h6.123V211.85ZM513.9,40.554V52.463h6.123V40.554Zm0,83.266v11.863h6.123V123.821Zm0,88.03v11.908h6.123V211.85ZM280.565,40.554V52.463h6.17V40.554Zm0,83.266v11.863h6.17V123.821Zm0,88.03v11.908h6.17V211.85Zm116.668-171.3V52.463h6.123V40.554Zm0,83.266v11.863h6.123V123.821Zm0,88.03v11.908h6.123V211.85ZM513.9,40.554V52.463h6.123V40.554Zm0,83.266v11.863h6.123V123.821Zm0,88.03v11.908h6.123V211.85ZM280.565,40.554V52.463h6.17V40.554Zm0,83.266v11.863h6.17V123.821Zm0,88.03v11.908h6.17V211.85Zm116.668-171.3V52.463h6.123V40.554Zm0,83.266v11.863h6.123V123.821Zm0,88.03v11.908h6.123V211.85ZM513.9,40.554V52.463h6.123V40.554Zm0,83.266v11.863h6.123V123.821Zm0,88.03v11.908h6.123V211.85ZM280.565,40.554V52.463h6.17V40.554Zm0,83.266v11.863h6.17V123.821Zm0,88.03v11.908h6.17V211.85Zm116.668-171.3V52.463h6.123V40.554Zm0,83.266v11.863h6.123V123.821Zm0,88.03v11.908h6.123V211.85ZM513.9,40.554V52.463h6.123V40.554Zm0,83.266v11.863h6.123V123.821Zm0,88.03v11.908h6.123V211.85ZM280.565,40.554V52.463h6.17V40.554Zm0,83.266v11.863h6.17V123.821Zm0,88.03v11.908h6.17V211.85Zm116.668-171.3V52.463h6.123V40.554Zm0,83.266v11.863h6.123V123.821Zm0,88.03v11.908h6.123V211.85ZM513.9,40.554V52.463h6.123V40.554Zm0,83.266v11.863h6.123V123.821Zm0,88.03v11.908h6.123V211.85ZM280.565,40.554V52.463h6.17V40.554Zm0,83.266v11.863h6.17V123.821Zm0,88.03v11.908h6.17V211.85Zm116.668-171.3V52.463h6.123V40.554Zm0,83.266v11.863h6.123V123.821Zm0,88.03v11.908h6.123V211.85ZM513.9,40.554V52.463h6.123V40.554Zm0,83.266v11.863h6.123V123.821Zm0,88.03v11.908h6.123V211.85ZM280.565,40.554V52.463h6.17V40.554Zm0,83.266v11.863h6.17V123.821Zm0,88.03v11.908h6.17V211.85Zm116.668-171.3V52.463h6.123V40.554Zm0,83.266v11.863h6.123V123.821Zm0,88.03v11.908h6.123V211.85ZM513.9,40.554V52.463h6.123V40.554Zm0,83.266v11.863h6.123V123.821Zm0,88.03v11.908h6.123V211.85ZM280.565,40.554V52.463h6.17V40.554Zm0,83.266v11.863h6.17V123.821Zm0,88.03v11.908h6.17V211.85Zm116.668-171.3V52.463h6.123V40.554Zm0,83.266v11.863h6.123V123.821Zm0,88.03v11.908h6.123V211.85ZM513.9,40.554V52.463h6.123V40.554Zm0,83.266v11.863h6.123V123.821Zm0,88.03v11.908h6.123V211.85ZM280.565,40.554V52.463h6.17V40.554Zm0,83.266v11.863h6.17V123.821Zm0,88.03v11.908h6.17V211.85Zm116.668-171.3V52.463h6.123V40.554Zm0,83.266v11.863h6.123V123.821Zm0,88.03v11.908h6.123V211.85ZM513.9,40.554V52.463h6.123V40.554Zm0,83.266v11.863h6.123V123.821Zm0,88.03v11.908h6.123V211.85ZM280.565,40.554V52.463h6.17V40.554Zm0,83.266v11.863h6.17V123.821Zm0,88.03v11.908h6.17V211.85Zm116.668-171.3V52.463h6.123V40.554Zm0,83.266v11.863h6.123V123.821Zm0,88.03v11.908h6.123V211.85ZM513.9,40.554V52.463h6.123V40.554Zm0,83.266v11.863h6.123V123.821Zm0,88.03v11.908h6.123V211.85Zm-233.336-88.03v11.863h6.17V123.821Zm0,88.03v11.908h6.17V211.85Zm116.668-171.3V52.463h6.123V40.554Zm0,83.266v11.863h6.123V123.821Zm0,88.03v11.908h6.123V211.85ZM513.9,40.554V52.463h6.123V40.554Zm0,83.266v11.863h6.123V123.821Zm0,88.03v11.908h6.123V211.85Zm-233.336-88.03v11.863h6.17V123.821Zm0,88.03v11.908h6.17V211.85Zm116.668-171.3V52.463h6.123V40.554Zm0,83.266v11.863h6.123V123.821Zm0,88.03v11.908h6.123V211.85ZM513.9,40.554V52.463h6.123V40.554Zm0,83.266v11.863h6.123V123.821Zm0,88.03v11.908h6.123V211.85Zm-233.336,0v11.908h6.17V211.85Zm116.668-171.3V52.463h6.123V40.554Zm0,83.266v11.863h6.123V123.821Zm0,88.03v11.908h6.123V211.85ZM513.9,40.554V52.463h6.123V40.554Zm0,83.266v11.863h6.123V123.821Zm0,88.03v11.908h6.123V211.85Zm-233.336,0v11.908h6.17V211.85Zm116.668-171.3V52.463h6.123V40.554Zm0,83.266v11.863h6.123V123.821Zm0,88.03v11.908h6.123V211.85ZM513.9,40.554V52.463h6.123V40.554Zm0,83.266v11.863h6.123V123.821Zm0,88.03v11.908h6.123V211.85Zm-233.336,0v11.908h6.17V211.85Zm116.668-171.3V52.463h6.123V40.554Zm0,83.266v11.863h6.123V123.821Zm0,88.03v11.908h6.123V211.85ZM513.9,40.554V52.463h6.123V40.554Zm0,83.266v11.863h6.123V123.821Zm0,88.03v11.908h6.123V211.85ZM397.233,40.554V52.463h6.124V40.554Zm0,83.266v11.863h6.124V123.821Zm0,88.03v11.908h6.124V211.85ZM513.9,40.554V52.463h6.123V40.554Zm0,83.266v11.863h6.123V123.821Zm0,88.03v11.908h6.123V211.85ZM397.233,40.554V52.463h6.124V40.554Zm0,83.266v11.863h6.124V123.821Zm0,88.03v11.908h6.124V211.85ZM513.9,40.554V52.463h6.123V40.554Zm0,83.266v11.863h6.123V123.821Zm0,88.03v11.908h6.123V211.85ZM397.233,40.554V52.463h6.124V40.554Zm0,83.266v11.863h6.124V123.821Zm0,88.03v11.908h6.124V211.85ZM513.9,40.554V52.463h6.123V40.554Zm0,83.266v11.863h6.123V123.821Zm0,88.03v11.908h6.123V211.85ZM397.233,40.554V52.463h6.124V40.554Zm0,83.266v11.863h6.124V123.821Zm0,88.03v11.908h6.124V211.85ZM513.9,40.554V52.463h6.123V40.554Zm0,83.266v11.863h6.123V123.821Zm0,88.03v11.908h6.123V211.85ZM397.233,40.554V52.463h6.124V40.554Zm0,83.266v11.863h6.124V123.821ZM513.9,40.555V52.463h6.123V40.555Zm0,83.266v11.863h6.123V123.821Zm0,88.03v11.908h6.123V211.85ZM397.233,40.554V52.463h6.124V40.554Zm0,83.266v11.863h6.124V123.821ZM513.9,40.555V52.463h6.123V40.555Zm0,83.266v11.863h6.123V123.821Zm0,88.03v11.908h6.123V211.85ZM397.233,40.554V52.463h6.124V40.554Zm116.668,0V52.463h6.123V40.554Zm0,83.266v11.863h6.123V123.821Zm0,88.03v11.908h6.123V211.85ZM397.233,40.554V52.463h6.124V40.554Zm116.668,0V52.463h6.123V40.554Zm0,83.266v11.863h6.123V123.821Zm0,88.03v11.908h6.123V211.85Zm0-171.3V52.463h6.123V40.554Zm0,83.266v11.863h6.123V123.821Zm0,88.03v11.908h6.123V211.85Zm0-171.3V52.463h6.123V40.554Zm0,83.266v11.863h6.123V123.821Zm0,88.03v11.908h6.123V211.85Zm0-88.03v11.863h6.123V123.821Zm0,88.03v11.908h6.123V211.85Zm0-88.03v11.863h6.123V123.821Zm0,88.03v11.908h6.123V211.85Zm0-88.03v11.863h6.123V123.821Zm0,88.03v11.908h6.123V211.85Zm0,0v11.908h6.123V211.85Z" transform="translate(775.337 78.391)" fill="#101010"/>
        <path id="Path_56" data-name="Path 56" d="M128.929,211.816v11.908h6.123V211.816Zm0,0v11.908h6.123V211.816Zm0-88.03v11.863h6.123V123.786Zm0,88.03v11.908h6.123V211.816Zm0-88.03v11.863h6.123V123.786Zm0,88.03v11.908h6.123V211.816Zm0-88.03v11.863h6.123V123.786ZM134.82,40.52h-5.891V52.428h6.123V40.52Zm-5.891,171.3v11.908h6.123V211.816Zm0-88.03v11.863h6.123V123.786ZM134.82,40.52h-5.891V52.428h6.123V40.52Zm-5.891,171.3v11.908h6.123V211.816Zm0-88.03v11.863h6.123V123.786ZM134.82,40.52h-5.891V52.428h6.123V40.52Zm116.668,0h-5.938V52.428h6.123V40.52h-.232Zm-122.559,171.3v11.908h6.123V211.816Zm0-88.03v11.863h6.123V123.786ZM134.82,40.52h-5.891V52.428h6.123V40.52Zm116.668,0h-5.938V52.428h6.123V40.52h-.232Zm-122.559,171.3v11.908h6.123V211.816Zm0-88.03v11.863h6.123V123.786ZM134.82,40.52h-5.891V52.428h6.123V40.52Zm110.73,83.266v11.863h6.123V123.786Zm5.938-83.266h-5.938V52.428h6.123V40.52h-.232Zm-122.559,171.3v11.908h6.123V211.816Zm0-88.03v11.863h6.123V123.786ZM134.82,40.52h-5.891V52.428h6.123V40.52Zm110.73,83.266v11.863h6.123V123.786Zm5.938-83.266h-5.938V52.428h6.123V40.52h-.232Zm-122.559,171.3v11.908h6.123V211.816Zm0-88.03v11.863h6.123V123.786ZM134.82,40.52h-5.891V52.428h6.123V40.52Zm110.73,83.266v11.863h6.123V123.786Zm5.938-83.266h-5.938V52.428h6.123V40.52h-.232Zm-122.559,171.3v11.908h6.123V211.816Zm0-88.03v11.863h6.123V123.786ZM134.82,40.52h-5.891V52.428h6.123V40.52Zm110.73,171.3v11.908h6.123V211.816Zm0-88.03v11.863h6.123V123.786Zm5.938-83.266h-5.938V52.428h6.123V40.52h-.232Zm-122.559,171.3v11.908h6.123V211.816Zm0-88.03v11.863h6.123V123.786ZM134.82,40.52h-5.891V52.428h6.123V40.52Zm110.73,171.3v11.908h6.123V211.816Zm0-88.03v11.863h6.123V123.786Zm5.938-83.266h-5.938V52.428h6.123V40.52h-.232Zm-122.559,171.3v11.908h6.123V211.816Zm0-88.03v11.863h6.123V123.786ZM134.82,40.52h-5.891V52.428h6.123V40.52Zm110.73,171.3v11.908h6.123V211.816Zm0-88.03v11.863h6.123V123.786Zm5.938-83.266h-5.938V52.428h6.123V40.52h-.232Zm-122.559,171.3v11.908h6.123V211.816Zm0-88.03v11.863h6.123V123.786ZM134.82,40.52h-5.891V52.428h6.123V40.52Zm110.73,171.3v11.908h6.123V211.816Zm0-88.03v11.863h6.123V123.786Zm5.938-83.266h-5.938V52.428h6.123V40.52h-.232Zm-122.559,171.3v11.908h6.123V211.816Zm0-88.03v11.863h6.123V123.786ZM134.82,40.52h-5.891V52.428h6.123V40.52Zm110.73,171.3v11.908h6.123V211.816Zm0-88.03v11.863h6.123V123.786Zm5.938-83.266h-5.938V52.428h6.123V40.52h-.232Zm110.73,171.3v11.908h6.17V211.816Zm-233.29,0v11.908h6.123V211.816Zm0-88.03v11.863h6.123V123.786ZM134.82,40.52h-5.891V52.428h6.123V40.52Zm110.73,171.3v11.908h6.123V211.816Zm0-88.03v11.863h6.123V123.786Zm5.938-83.266h-5.938V52.428h6.123V40.52h-.232Zm110.73,171.3v11.908h6.17V211.816Zm-233.29,0v11.908h6.123V211.816Zm0-88.03v11.863h6.123V123.786ZM134.82,40.52h-5.891V52.428h6.123V40.52Zm110.73,171.3v11.908h6.123V211.816Zm0-88.03v11.863h6.123V123.786Zm5.938-83.266h-5.938V52.428h6.123V40.52h-.232Zm110.73,171.3v11.908h6.17V211.816Zm0-88.03v11.863h6.17V123.786Zm-233.29,88.03v11.908h6.123V211.816Zm0-88.03v11.863h6.123V123.786ZM134.82,40.52h-5.891V52.428h6.123V40.52Zm110.73,171.3v11.908h6.123V211.816Zm0-88.03v11.863h6.123V123.786Zm5.938-83.266h-5.938V52.428h6.123V40.52h-.232Zm110.73,171.3v11.908h6.17V211.816Zm0-88.03v11.863h6.17V123.786Zm-233.29,88.03v11.908h6.123V211.816Zm0-88.03v11.863h6.123V123.786ZM134.82,40.52h-5.891V52.428h6.123V40.52Zm110.73,171.3v11.908h6.123V211.816Zm0-88.03v11.863h6.123V123.786Zm5.938-83.266h-5.938V52.428h6.123V40.52h-.232Zm110.73,171.3v11.908h6.17V211.816Zm0-88.03v11.863h6.17V123.786Zm5.938-83.266h-5.938V52.428h6.17V40.52Zm-239.228,171.3v11.908h6.123V211.816Zm0-88.03v11.863h6.123V123.786ZM134.82,40.52h-5.891V52.428h6.123V40.52Zm110.73,171.3v11.908h6.123V211.816Zm0-88.03v11.863h6.123V123.786Zm5.938-83.266h-5.938V52.428h6.123V40.52h-.232Zm110.73,171.3v11.908h6.17V211.816Zm0-88.03v11.863h6.17V123.786Zm5.938-83.266h-5.938V52.428h6.17V40.52Zm-239.228,171.3v11.908h6.123V211.816Zm0-88.03v11.863h6.123V123.786ZM134.82,40.52h-5.891V52.428h6.123V40.52Zm110.73,171.3v11.908h6.123V211.816Zm0-88.03v11.863h6.123V123.786Zm5.938-83.266h-5.938V52.428h6.123V40.52h-.232Zm110.73,171.3v11.908h6.17V211.816Zm0-88.03v11.863h6.17V123.786Zm5.938-83.266h-5.938V52.428h6.17V40.52Zm-239.228,171.3v11.908h6.123V211.816Zm0-88.03v11.863h6.123V123.786ZM134.82,40.52h-5.891V52.428h6.123V40.52Zm110.73,171.3v11.908h6.123V211.816Zm0-88.03v11.863h6.123V123.786Zm5.938-83.266h-5.938V52.428h6.123V40.52h-.232Zm110.73,171.3v11.908h6.17V211.816Zm0-88.03v11.863h6.17V123.786Zm5.938-83.266h-5.938V52.428h6.17V40.52Zm-239.228,171.3v11.908h6.123V211.816Zm0-88.03v11.863h6.123V123.786ZM134.82,40.52h-5.891V52.428h6.123V40.52Zm110.73,171.3v11.908h6.123V211.816Zm0-88.03v11.863h6.123V123.786Zm5.938-83.266h-5.938V52.428h6.123V40.52h-.232Zm110.73,171.3v11.908h6.17V211.816Zm0-88.03v11.863h6.17V123.786Zm5.938-83.266h-5.938V52.428h6.17V40.52Zm-239.228,171.3v11.908h6.123V211.816Zm0-88.03v11.863h6.123V123.786ZM134.82,40.52h-5.891V52.428h6.123V40.52Zm110.73,171.3v11.908h6.123V211.816Zm0-88.03v11.863h6.123V123.786Zm5.938-83.266h-5.938V52.428h6.123V40.52h-.232Zm110.73,171.3v11.908h6.17V211.816Zm0-88.03v11.863h6.17V123.786Zm5.938-83.266h-5.938V52.428h6.17V40.52Zm-239.228,171.3v11.908h6.123V211.816Zm0-88.03v11.863h6.123V123.786ZM134.82,40.52h-5.891V52.428h6.123V40.52Zm110.73,171.3v11.908h6.123V211.816Zm0-88.03v11.863h6.123V123.786Zm5.938-83.266h-5.938V52.428h6.123V40.52h-.232Zm110.73,171.3v11.908h6.17V211.816Zm0-88.03v11.863h6.17V123.786Zm5.938-83.266h-5.938V52.428h6.17V40.52Zm-239.228,171.3v11.908h6.123V211.816Zm0-88.03v11.863h6.123V123.786ZM134.82,40.52h-5.891V52.428h6.123V40.52Zm110.73,171.3v11.908h6.123V211.816Zm0-88.03v11.863h6.123V123.786Zm5.938-83.266h-5.938V52.428h6.123V40.52h-.232Zm110.73,171.3v11.908h6.17V211.816Zm0-88.03v11.863h6.17V123.786Zm5.938-83.266h-5.938V52.428h6.17V40.52Zm-239.228,171.3v11.908h6.123V211.816Zm0-88.03v11.863h6.123V123.786ZM134.82,40.52h-5.891V52.428h6.123V40.52Zm110.73,171.3v11.908h6.123V211.816Zm0-88.03v11.863h6.123V123.786Zm5.938-83.266h-5.938V52.428h6.123V40.52h-.232Zm110.73,171.3v11.908h6.17V211.816Zm0-88.03v11.863h6.17V123.786Zm5.938-83.266h-5.938V52.428h6.17V40.52Zm-239.228,171.3v11.908h6.123V211.816Zm0-88.03v11.863h6.123V123.786ZM134.82,40.52h-5.891V52.428h6.123V40.52Zm110.73,171.3v11.908h6.123V211.816Zm0-88.03v11.863h6.123V123.786Zm5.938-83.266h-5.938V52.428h6.123V40.52h-.232Zm110.73,171.3v11.908h6.17V211.816Zm0-88.03v11.863h6.17V123.786Zm5.938-83.266h-5.938V52.428h6.17V40.52Zm-239.228,171.3v11.908h6.123V211.816Zm0-88.03v11.863h6.123V123.786ZM134.82,40.52h-5.891V52.428h6.123V40.52Zm110.73,171.3v11.908h6.123V211.816Zm0-88.03v11.863h6.123V123.786Zm5.938-83.266h-5.938V52.428h6.123V40.52h-.232Zm110.73,171.3v11.908h6.17V211.816Zm0-88.03v11.863h6.17V123.786Zm5.938-83.266h-5.938V52.428h6.17V40.52Zm-239.228,171.3v11.908h6.123V211.816Zm0-88.03v11.863h6.123V123.786ZM134.82,40.52h-5.891V52.428h6.123V40.52Zm110.73,171.3v11.908h6.123V211.816Zm0-88.03v11.863h6.123V123.786Zm5.938-83.266h-5.938V52.428h6.123V40.52h-.232Zm110.73,171.3v11.908h6.17V211.816Zm0-88.03v11.863h6.17V123.786Zm5.938-83.266h-5.938V52.428h6.17V40.52Zm-239.228,171.3v11.908h6.123V211.816Zm0-88.03v11.863h6.123V123.786ZM134.82,40.52h-5.891V52.428h6.123V40.52Zm110.73,171.3v11.908h6.123V211.816Zm0-88.03v11.863h6.123V123.786Zm5.938-83.266h-5.938V52.428h6.123V40.52h-.232Zm110.73,171.3v11.908h6.17V211.816Zm0-88.03v11.863h6.17V123.786Zm5.938-83.266h-5.938V52.428h6.17V40.52Zm-239.228,171.3v11.908h6.123V211.816Zm0-88.03v11.863h6.123V123.786ZM134.82,40.52h-5.891V52.428h6.123V40.52Zm110.73,171.3v11.908h6.123V211.816Zm0-88.03v11.863h6.123V123.786Zm5.938-83.266h-5.938V52.428h6.123V40.52h-.232Zm110.73,171.3v11.908h6.17V211.816Zm0-88.03v11.863h6.17V123.786Zm5.938-83.266h-5.938V52.428h6.17V40.52Zm-239.228,171.3v11.908h6.123V211.816Zm0-88.03v11.863h6.123V123.786ZM134.82,40.52h-5.891V52.428h6.123V40.52Zm110.73,171.3v11.908h6.123V211.816Zm0-88.03v11.863h6.123V123.786Zm5.938-83.266h-5.938V52.428h6.123V40.52h-.232Zm110.73,171.3v11.908h6.17V211.816Zm0-88.03v11.863h6.17V123.786Zm5.938-83.266h-5.938V52.428h6.17V40.52Zm-239.228,171.3v11.908h6.123V211.816Zm0-88.03v11.863h6.123V123.786ZM134.82,40.52h-5.891V52.428h6.123V40.52Zm110.73,171.3v11.908h6.123V211.816Zm0-88.03v11.863h6.123V123.786Zm5.938-83.266h-5.938V52.428h6.123V40.52h-.232Zm110.73,171.3v11.908h6.17V211.816Zm0-88.03v11.863h6.17V123.786Zm5.938-83.266h-5.938V52.428h6.17V40.52Zm-239.228,171.3v11.908h6.123V211.816Zm0-88.03v11.863h6.123V123.786ZM134.82,40.52h-5.891V52.428h6.123V40.52Zm110.73,171.3v11.908h6.123V211.816Zm0-88.03v11.863h6.123V123.786Zm5.938-83.266h-5.938V52.428h6.123V40.52h-.232Zm110.73,171.3v11.908h6.17V211.816Zm0-88.03v11.863h6.17V123.786Zm5.938-83.266h-5.938V52.428h6.17V40.52Zm.232,171.3v11.908h0V211.816Zm0-88.03v11.863h0V123.786Zm0-83.266V52.428h0V40.52ZM67.51,22.68V290.319H435.93V22.68H67.51ZM411.391,135.649H368.435V123.786h42.956Zm0,88.03H368.435V211.771h42.956Zm-92.082-11.908h42.956v11.908H319.309Zm0-88.03h42.956V135.6H319.309Zm0-39.274V58.314h42.956V84.467Zm49.126-32.084V40.475h42.956V52.383Zm-6.17,0H319.309V40.475h42.956Zm-42.956,89.2h42.956v26.153H319.309Zm49.126-83.266h42.956V84.467H368.435Zm42.956,109.464H368.435V141.626h42.956Zm-159.67,55.9V211.771h43v11.908Zm-6.123-88.03H202.641V123.786H245.6Zm-42.956,32.129V141.626H245.6v26.153Zm49.079,0V141.626h43v26.153Zm-49.079,55.9V211.771H245.6v11.908Zm92.082-88.03h-43V123.786h43ZM245.6,52.428H202.641V40.52H245.6Zm49.126,5.932V84.512h-43V58.359ZM202.641,84.512V58.359H245.6V84.512Zm92.082-32.084h-43V40.52h43Zm-159.671,171.3V211.816h42.956v11.908Zm-49.126,0V211.816h43v11.908Zm43-88.03h-43V123.831h43Zm-43,32.129V141.671h43v26.153Zm49.126,0V141.671h42.956v26.153Zm42.956-32.129H135.052V123.831h42.956ZM128.882,52.473h-43V40.565h43ZM178.008,58.4V84.557H135.052V58.4ZM85.88,84.557V58.4h43V84.557Zm92.128-32.084H135.052V40.565h42.956ZM85.88,229.7h43v26.153h-43Zm49.126,0h42.956v26.153H135.006Zm67.542,0H245.5v26.153H202.548Zm49.079,0h43v26.153h-43Zm67.542,0h42.956v26.153H319.17Zm49.126,0h42.956v26.153H368.3Zm-6.17-189.136V52.473h6.17V40.565Zm0,83.266v11.863h6.17V123.831Zm0,88.03v11.908h6.17V211.861ZM245.458,40.565V52.473h6.123V40.565Zm0,83.266v11.863h6.123V123.831Zm0,88.03v11.908h6.123V211.861ZM128.79,40.565V52.473h6.123V40.565Zm0,83.266v11.863h6.123V123.831Zm0,88.03v11.908h6.123V211.861Zm233.29-171.3V52.473h6.17V40.565Zm0,83.266v11.863h6.17V123.831Zm0,88.03v11.908h6.17V211.861ZM245.411,40.565V52.473h6.123V40.565Zm0,83.266v11.863h6.123V123.831Zm0,88.03v11.908h6.123V211.861ZM128.743,40.565V52.473h6.123V40.565Zm0,83.266v11.863h6.123V123.831Zm0,88.03v11.908h6.123V211.861Zm233.29-171.3V52.473h6.17V40.565Zm0,83.266v11.863h6.17V123.831Zm0,88.03v11.908h6.17V211.861ZM245.365,40.565V52.473h6.123V40.565Zm0,83.266v11.863h6.123V123.831Zm0,88.03v11.908h6.123V211.861ZM128.7,40.565V52.473h6.123V40.565Zm0,83.266v11.863h6.123V123.831Zm0,88.03v11.908h6.123V211.861Zm233.29-171.3V52.473h6.17V40.565Zm0,83.266v11.863h6.17V123.831Zm0,88.03v11.908h6.17V211.861ZM245.318,40.565V52.473h6.123V40.565Zm0,83.266v11.863h6.123V123.831Zm0,88.03v11.908h6.123V211.861ZM128.65,40.565V52.473h6.123V40.565Zm0,83.266v11.863h6.123V123.831Zm0,88.03v11.908h6.123V211.861Zm233.29-171.3V52.473h6.17V40.565Zm0,83.266v11.863h6.17V123.831Zm0,88.03v11.908h6.17V211.861ZM245.272,40.565V52.473H251.4V40.565Zm0,83.266v11.863H251.4V123.831Zm0,88.03v11.908H251.4V211.861ZM128.6,40.565V52.473h6.123V40.565Zm0,83.266v11.863h6.123V123.831Zm0,88.03v11.908h6.123V211.861Zm233.29-171.3V52.473h6.17V40.565Zm0,83.266v11.863h6.17V123.831Zm0,88.03v11.908h6.17V211.861ZM245.225,40.565V52.473h6.123V40.565Zm0,83.266v11.863h6.123V123.831Zm0,88.03v11.908h6.123V211.861ZM128.557,40.565V52.473h6.123V40.565Zm0,83.266v11.863h6.123V123.831Zm0,88.03v11.908h6.123V211.861Zm233.29-171.3V52.473h6.17V40.565Zm0,83.266v11.863h6.17V123.831Zm0,88.03v11.908h6.17V211.861ZM245.179,40.565V52.473H251.3V40.565Zm0,83.266v11.863H251.3V123.831Zm0,88.03v11.908H251.3V211.861ZM128.511,40.565V52.473h6.123V40.565Zm0,83.266v11.863h6.123V123.831Zm0,88.03v11.908h6.123V211.861ZM361.8,40.565V52.473h6.17V40.565Zm0,83.266v11.863h6.17V123.831Zm0,88.03v11.908h6.17V211.861ZM245.133,40.565V52.473h6.123V40.565Zm0,83.266v11.863h6.123V123.831Zm0,88.03v11.908h6.123V211.861ZM128.464,40.565V52.473h6.123V40.565Zm0,83.266v11.863h6.123V123.831Zm0,88.03v11.908h6.123V211.861Zm233.29-171.3V52.473h6.17V40.565Zm0,83.266v11.863h6.17V123.831Zm0,88.03v11.908h6.17V211.861ZM245.086,40.565V52.473h6.123V40.565Zm0,83.266v11.863h6.123V123.831Zm0,88.03v11.908h6.123V211.861ZM128.418,40.565V52.473h6.123V40.565Zm0,83.266v11.863h6.123V123.831Zm0,88.03v11.908h6.123V211.861Zm233.29-171.3V52.473h6.17V40.565Zm0,83.266v11.863h6.17V123.831Zm0,88.03v11.908h6.17V211.861ZM245.04,40.565V52.473h6.123V40.565Zm0,83.266v11.863h6.123V123.831Zm0,88.03v11.908h6.123V211.861ZM128.372,40.565V52.473h6.123V40.565Zm0,83.266v11.863h6.123V123.831Zm0,88.03v11.908h6.123V211.861Zm233.29-171.3V52.473h6.17V40.565Zm0,83.266v11.863h6.17V123.831Zm0,88.03v11.908h6.17V211.861ZM244.993,40.565V52.473h6.123V40.565Zm0,83.266v11.863h6.123V123.831Zm0,88.03v11.908h6.123V211.861ZM128.325,40.565V52.473h6.123V40.565Zm0,83.266v11.863h6.123V123.831Zm0,88.03v11.908h6.123V211.861Zm233.29-171.3V52.473h6.17V40.565Zm0,83.266v11.863h6.17V123.831Zm0,88.03v11.908h6.17V211.861ZM244.947,40.565V52.473h6.123V40.565Zm0,83.266v11.863h6.123V123.831Zm0,88.03v11.908h6.123V211.861ZM128.279,40.565V52.473H134.4V40.565Zm0,83.266v11.863H134.4V123.831Zm0,88.03v11.908H134.4V211.861Zm233.29-171.3V52.473h6.17V40.565Zm0,83.266v11.863h6.17V123.831Zm0,88.03v11.908h6.17V211.861ZM244.9,40.565V52.473h6.123V40.565Zm0,83.266v11.863h6.123V123.831Zm0,88.03v11.908h6.123V211.861ZM128.232,40.565V52.473h6.123V40.565Zm0,83.266v11.863h6.123V123.831Zm0,88.03v11.908h6.123V211.861Zm233.29-171.3V52.473h6.17V40.565Zm0,83.266v11.863h6.17V123.831Zm0,88.03v11.908h6.17V211.861ZM244.854,40.565V52.473h6.123V40.565Zm0,83.266v11.863h6.123V123.831Zm0,88.03v11.908h6.123V211.861ZM128.186,40.565V52.473h6.123V40.565Zm0,83.266v11.863h6.123V123.831Zm0,88.03v11.908h6.123V211.861Zm233.29-171.3V52.473h6.17V40.565Zm0,83.266v11.863h6.17V123.831Zm0,88.03v11.908h6.17V211.861ZM244.807,40.565V52.473h6.123V40.565Zm0,83.266v11.863h6.123V123.831Zm0,88.03v11.908h6.123V211.861ZM128.139,40.565V52.473h6.123V40.565Zm0,83.266v11.863h6.123V123.831Zm0,88.03v11.908h6.123V211.861Zm233.29-171.3V52.473h6.17V40.565Zm0,83.266v11.863h6.17V123.831Zm0,88.03v11.908h6.17V211.861ZM244.761,40.565V52.473h6.123V40.565Zm0,83.266v11.863h6.123V123.831Zm0,88.03v11.908h6.123V211.861ZM128.093,40.565V52.473h6.123V40.565Zm0,83.266v11.863h6.123V123.831Zm0,88.03v11.908h6.123V211.861Zm233.29-171.3V52.473h6.17V40.565Zm0,83.266v11.863h6.17V123.831Zm0,88.03v11.908h6.17V211.861ZM244.715,40.565V52.473h6.123V40.565Zm0,83.266v11.863h6.123V123.831Zm0,88.03v11.908h6.123V211.861ZM128.047,40.565V52.473h6.123V40.565Zm0,83.266v11.863h6.123V123.831Zm0,88.03v11.908h6.123V211.861Zm233.29-88.03v11.863h6.17V123.831Zm0,88.03v11.908h6.17V211.861ZM244.668,40.565V52.473h6.123V40.565Zm0,83.266v11.863h6.123V123.831Zm0,88.03v11.908h6.123V211.861ZM128,40.565V52.473h6.123V40.565Zm0,83.266v11.863h6.123V123.831Zm0,88.03v11.908h6.123V211.861Zm233.29-88.03v11.863h6.17V123.831Zm0,88.03v11.908h6.17V211.861ZM244.622,40.565V52.473h6.123V40.565Zm0,83.266v11.863h6.123V123.831Zm0,88.03v11.908h6.123V211.861ZM127.954,40.565V52.473h6.123V40.565Zm0,83.266v11.863h6.123V123.831Zm0,88.03v11.908h6.123V211.861Zm233.29,0v11.908h6.17V211.861ZM244.575,40.565V52.473H250.7V40.565Zm0,83.266v11.863H250.7V123.831Zm0,88.03v11.908H250.7V211.861ZM127.907,40.565V52.473h6.123V40.565Zm0,83.266v11.863h6.123V123.831Zm0,88.03v11.908h6.123V211.861Zm233.29,0v11.908h6.17V211.861ZM244.529,40.565V52.473h6.123V40.565Zm0,83.266v11.863h6.123V123.831Zm0,88.03v11.908h6.123V211.861ZM127.861,40.565V52.473h6.123V40.565Zm0,83.266v11.863h6.123V123.831Zm0,88.03v11.908h6.123V211.861Zm233.29,0v11.908h6.17V211.861ZM244.482,40.565V52.473h6.123V40.565Zm0,83.266v11.863h6.123V123.831Zm0,88.03v11.908h6.123V211.861ZM127.814,40.565V52.473h6.123V40.565Zm0,83.266v11.863h6.123V123.831Zm0,88.03v11.908h6.123V211.861Zm116.668-171.3V52.473h6.123V40.565Zm0,83.266v11.863h6.123V123.831Zm0,88.03v11.908h6.123V211.861ZM127.814,40.565V52.473h6.123V40.565Zm0,83.266v11.863h6.123V123.831Zm0,88.03v11.908h6.123V211.861Zm116.668-171.3V52.473h6.123V40.565Zm0,83.266v11.863h6.123V123.831Zm0,88.03v11.908h6.123V211.861ZM127.814,40.565V52.473h6.123V40.565Zm0,83.266v11.863h6.123V123.831Zm0,88.03v11.908h6.123V211.861Zm116.668-171.3V52.473h6.123V40.565Zm0,83.266v11.863h6.123V123.831Zm0,88.03v11.908h6.123V211.861ZM127.814,40.565V52.473h6.123V40.565Zm0,83.266v11.863h6.123V123.831Zm0,88.03v11.908h6.123V211.861Zm116.668-171.3V52.473h6.123V40.565Zm0,83.266v11.863h6.123V123.831Zm0,88.03v11.908h6.123V211.861ZM127.814,40.565V52.473h6.123V40.565Zm0,83.266v11.863h6.123V123.831Zm0,88.03v11.908h6.123V211.861Zm116.668-171.3V52.473h6.123V40.565Zm0,83.266v11.863h6.123V123.831ZM127.814,40.565V52.473h6.123V40.565Zm0,83.266v11.863h6.123V123.831Zm0,88.03v11.908h6.123V211.861Zm116.668-171.3V52.473h6.123V40.565Zm0,83.266v11.863h6.123V123.831ZM127.814,40.565V52.473h6.123V40.565Zm0,83.266v11.863h6.123V123.831Zm0,88.03v11.908h6.123V211.861Zm116.668-171.3V52.473h6.123V40.565Zm-116.668,0V52.473h6.123V40.565Zm0,83.266v11.863h6.123V123.831Zm0,88.03v11.908h6.123V211.861Zm116.668-171.3V52.473h6.123V40.565Zm-116.668,0V52.473h6.123V40.565Zm0,83.266v11.863h6.123V123.831Zm0,88.03v11.908h6.123V211.861Zm0-171.3V52.473h6.123V40.565Zm0,83.266v11.863h6.123V123.831Zm0,88.03v11.908h6.123V211.861Zm0-171.3V52.473h6.123V40.565Zm0,83.266v11.863h6.123V123.831Zm0,88.03v11.908h6.123V211.861Zm0-88.03v11.863h6.123V123.831Zm0,88.03v11.908h6.123V211.861Zm0-88.03v11.863h6.123V123.831Zm0,88.03v11.908h6.123V211.861Zm0-88.03v11.863h6.123V123.831Zm0,88.03v11.908h6.123V211.861Zm0,0v11.908h6.123V211.861Z" transform="translate(245.661 78.426)" fill="#101010"/>
        <rect id="Top-Border-4" width="368.421" height="11.908" transform="translate(988.408 89.198)" fill="#101010"/>
        <rect id="Top-Border-4-2" width="368.421" height="11.908" transform="translate(313.171 89.198)" fill="#101010"/>
        <path id="Path_39" data-name="Path 39" d="M367.923,228.813v5.932h0v-5.932Zm0,0v5.932h0v-5.932Zm0,0v5.932h0v-5.932Zm0,0v5.932h0v-5.932ZM146.88,2.83V359.667h30.663V347.759h12.293V271.637h49.126v-5.932H189.836v-5.932h49.126V347.8h12.247v5.932h-6.123v5.932H355.63v-5.932h-6.123V347.8H251.255V270.469h98.252V347.8H361.8V271.682h49.126V347.8h12.293v11.908h30.663V2.83h-307Zm92.128,237.891H214.422V199.11h36.833v29.748H232.839v5.932h6.17v5.932ZM214.33,72.436s.046.4.046.584V86.141h-24.54V74.233a11.812,11.812,0,0,1,4.082-9.167c.139-.135.325-.27.464-.4a6.16,6.16,0,0,1,.881-.629c.278-.18.51-.315.789-.494.278-.135.557-.315.881-.449.093-.045.232-.09.325-.135a7.894,7.894,0,0,1,.928-.359,13.19,13.19,0,0,1,3.572-.629,12.528,12.528,0,0,1,9.649,4.179,6.714,6.714,0,0,1,.7.9,4.718,4.718,0,0,1,.325.494,6.894,6.894,0,0,1,.557.989,7.06,7.06,0,0,1,.464,1.034,11.8,11.8,0,0,1,.742,2.786Zm6.262,37.477h24.54V157.5h-24.54ZM380.216,157.5h-24.54V109.912h24.54ZM257.425,109.912h85.959V157.5H257.425ZM380.216,86.141h-24.54V74.233a12.8,12.8,0,0,1,.51-3.775l.417-1.078c.093-.18.139-.359.232-.539.185-.315.371-.674.557-.989a11.431,11.431,0,0,1,.65-.944,6.621,6.621,0,0,1,.742-.854,12.411,12.411,0,0,1,8.86-4,12.125,12.125,0,0,1,12.618,11.593V86.186Zm-36.833,0H257.425V26.6h85.959V86.1h0ZM245.132,73.6V86.141h-24.54V74.233A12.075,12.075,0,0,1,232.56,62.011a12.24,12.24,0,0,1,9.278,3.775,11.662,11.662,0,0,1,1.716,2.247c.232.4.464.854.649,1.258a6.845,6.845,0,0,1,.371,1.034,8.522,8.522,0,0,1,.278,1.034,14.27,14.27,0,0,1,.232,1.483v.719Zm-30.709,36.308V157.5h-24.54V109.912h24.54ZM386.386,157.5V109.912h24.54V157.5Zm0-71.358V74.233a12.28,12.28,0,0,1,24.54-.584V86.141h-24.54ZM257.425,199.11h85.959v29.748H257.425Zm92.128,29.748V199.11h36.833v41.611H361.8V234.79h6.17v-5.932Zm0,29.7H251.3V246.653h98.252Zm61.419,7.145H361.846v-5.932h49.126Zm-43-36.847v5.932h0v-5.932Zm0,0v5.932h0v-5.932Zm0,0v5.932h0v-5.932Z" transform="translate(534.48 9.078)" fill="#101010"/>
        <path id="Path_40" data-name="Path 40" d="M153.5,5.48v178.4H399.129V5.48Zm43,95.129h24.54V148.2H196.5ZM356.127,148.2h-24.54V100.609h24.54ZM233.335,100.609h85.959V148.2H233.335ZM331.587,64.93a12.8,12.8,0,0,1,.51-3.775,10.311,10.311,0,0,1,.417-1.078c.093-.18.139-.359.232-.539a10.649,10.649,0,0,1,.557-.989,11.451,11.451,0,0,1,.649-.944,6.638,6.638,0,0,1,.742-.854,12.412,12.412,0,0,1,8.86-4,12.125,12.125,0,0,1,12.618,11.593V76.883h-24.54V64.975ZM233.335,17.343h85.959v59.5H233.335v-59.5ZM196.5,64.93a12.075,12.075,0,0,1,11.968-12.223,12.24,12.24,0,0,1,9.278,3.775,11.662,11.662,0,0,1,1.716,2.247c.232.4.464.854.649,1.258a6.837,6.837,0,0,1,.371,1.034,8.533,8.533,0,0,1,.278,1.034A14.234,14.234,0,0,1,221,63.537V76.793h-24.54V64.885Zm-30.709,0a11.812,11.812,0,0,1,4.082-9.167c.139-.135.325-.27.464-.4a6.163,6.163,0,0,1,.881-.629c.278-.18.51-.315.789-.494.278-.135.557-.315.881-.449.093-.045.232-.09.325-.135a7.892,7.892,0,0,1,.928-.359,13.19,13.19,0,0,1,3.572-.629,12.528,12.528,0,0,1,9.649,4.179,6.714,6.714,0,0,1,.7.9,4.72,4.72,0,0,1,.325.494,6.878,6.878,0,0,1,.557.989,7.047,7.047,0,0,1,.464,1.034,11.8,11.8,0,0,1,.742,2.786c0,.18.046.4.046.584V76.748h-24.54V64.84Zm0,35.679h24.54V148.2h-24.54ZM386.836,148.2H362.3V100.609h24.54Zm0-71.358H362.3V64.93a12.28,12.28,0,0,1,24.54-.584V76.838Z" transform="translate(558.569 18.336)" fill="#101010"/>
        <rect id="Rectangle_8" data-name="Rectangle 8" width="319.295" height="11.908" transform="translate(675.237)" fill="#101010"/>
        <rect id="Rectangle_464" data-name="Rectangle 464" width="85.959" height="23.771" transform="translate(791.905 95.174)" fill="#101010"/>
        <rect id="Rectangle_465" data-name="Rectangle 465" width="85.959" height="23.771" transform="translate(791.905 166.533)" fill="#101010"/>
        <rect id="Rectangle_466" data-name="Rectangle 466" width="24.54" height="23.771" transform="translate(920.866 95.174)" fill="#101010"/>
        <rect id="Rectangle_467" data-name="Rectangle 467" width="24.54" height="23.771" transform="translate(920.866 166.533)" fill="#101010"/>
        <rect id="Rectangle_468" data-name="Rectangle 468" width="24.54" height="23.771" transform="translate(755.072 95.174)" fill="#101010"/>
        <rect id="Rectangle_469" data-name="Rectangle 469" width="24.54" height="23.771" transform="translate(755.072 166.533)" fill="#101010"/>
        <rect id="Rectangle_470" data-name="Rectangle 470" width="24.54" height="23.771" transform="translate(890.156 95.174)" fill="#101010"/>
        <rect id="Rectangle_471" data-name="Rectangle 471" width="24.54" height="23.771" transform="translate(890.156 166.533)" fill="#101010"/>
        <rect id="Rectangle_472" data-name="Rectangle 472" width="24.54" height="23.771" transform="translate(724.362 95.174)" fill="#101010"/>
        <rect id="Rectangle_473" data-name="Rectangle 473" width="24.54" height="23.771" transform="translate(724.362 166.533)" fill="#101010"/>
        <rect id="Rectangle_314" data-name="Rectangle 314" width="24.54" height="11.908" transform="translate(724.362 101.106)" fill="#101010"/>
        <rect id="Rectangle_324" data-name="Rectangle 324" width="24.54" height="11.908" transform="translate(724.362 172.464)" fill="#101010"/>
        <rect id="Rectangle_318" data-name="Rectangle 318" width="24.54" height="11.908" transform="translate(890.156 101.106)" fill="#101010"/>
        <rect id="Rectangle_321" data-name="Rectangle 321" width="24.54" height="11.908" transform="translate(890.156 172.464)" fill="#101010"/>
        <rect id="Rectangle_316" data-name="Rectangle 316" width="24.54" height="11.908" transform="translate(755.072 101.106)" fill="#101010"/>
        <rect id="Rectangle_323" data-name="Rectangle 323" width="24.54" height="11.908" transform="translate(755.072 172.464)" fill="#101010"/>
        <rect id="Rectangle_319" data-name="Rectangle 319" width="85.959" height="11.908" transform="translate(791.905 101.106)" fill="#101010"/>
        <rect id="Rectangle_322" data-name="Rectangle 322" width="85.959" height="11.908" transform="translate(791.905 172.464)" fill="#101010"/>
        <rect id="Rectangle_317" data-name="Rectangle 317" width="24.54" height="11.908" transform="translate(920.866 101.106)" fill="#101010"/>
        <rect id="Rectangle_320" data-name="Rectangle 320" width="24.54" height="11.908" transform="translate(920.866 172.464)" fill="#101010"/>
        <rect id="Rectangle_310" data-name="Rectangle 310" width="221.043" height="5.932" transform="translate(724.362 184.372)" fill="#101010"/>
        <rect id="Rectangle_474" data-name="Rectangle 474" width="221.043" height="5.932" transform="translate(724.362 95.174)" fill="#101010"/>
        <rect id="Rectangle_475" data-name="Rectangle 475" width="221.043" height="5.932" transform="translate(724.362 113.014)" fill="#101010"/>
        <rect id="Rectangle_476" data-name="Rectangle 476" width="221.043" height="5.932" transform="translate(724.362 166.533)" fill="#101010"/>
        <rect id="Top-Border-2" width="319.295" height="11.908" transform="translate(1350.705 59.45)" fill="#101010"/>
        <rect id="Top-Border-2-2" width="319.295" height="11.908" transform="translate(0 59.45)" fill="#101010"/>
        <g id="Group_35" data-name="Group 35" transform="translate(705.946 237.891)">
          <path id="Path_1" data-name="Path 1" d="M264.272,79.59v23.816h-55.3V97.43h-6.123V91.5H196.73V85.566h-6.17V79.59Z" transform="translate(-12.519 39.356)" fill="#101010"/>
          <path id="Path_2" data-name="Path 2" d="M227.166,79.59v5.977h-6.123V91.5h-6.123V97.43h-6.17v5.976H153.5V91.5h0V79.59Z" transform="translate(-147.377 39.356)" fill="#101010"/>
          <rect id="Rectangle_10" data-name="Rectangle 10" height="11.908" transform="translate(6.123 130.854)" fill="#101010"/>
          <path id="Path_3" data-name="Path 3" d="M300.494,97.43v5.976H165.41V97.43h6.17V91.5H177.7V85.566h6.123V79.59h98.252v5.977h6.17V91.5h6.123V97.43Z" transform="translate(-104.037 39.356)" fill="#101010"/>
          <rect id="Rectangle_11" data-name="Rectangle 11" width="98.252" height="5.932" transform="translate(79.789 118.946)" fill="#101010"/>
          <rect id="Rectangle_12" data-name="Rectangle 12" width="122.791" height="5.932" transform="translate(67.542 130.854)" fill="#101010"/>
          <rect id="Rectangle_13" data-name="Rectangle 13" width="110.545" height="5.932" transform="translate(73.666 124.922)" fill="#101010"/>
          <rect id="Rectangle_14" data-name="Rectangle 14" width="135.084" height="5.932" transform="translate(61.373 136.785)" fill="#101010"/>
          <rect id="Rectangle_478" data-name="Rectangle 478" width="135.084" height="5.932" transform="translate(61.373)" fill="#101010"/>
          <g id="Group_32" data-name="Group 32" transform="translate(6.123 24.984)">
            <path id="Path_4" data-name="Path 4" d="M254.629,58.68v93.961H242.336V76.52H193.21V70.588h49.126V64.656H193.21V58.68Z" transform="translate(-9 -58.68)" fill="#101010"/>
            <path id="Path_5" data-name="Path 5" d="M214.919,58.68v5.932l-49.126.045v5.932h49.126V76.52H165.793v76.122H153.5V58.68Z" transform="translate(-153.5 -58.68)" fill="#101010"/>
          </g>
          <g id="Group_34" data-name="Group 34" transform="translate(0 19.278)">
            <rect id="Rectangle_481-3" data-name="Rectangle 481-3" width="68.006" height="5.932" fill="#101010"/>
            <rect id="Rectangle_482-3" data-name="Rectangle 482-3" width="68.006" height="5.932" transform="translate(189.87)" fill="#101010"/>
          </g>
          <g id="Group_33" data-name="Group 33" transform="translate(67.542 5.976)">
            <path id="Path_60" data-name="Path 60" d="M166.74,54.45V167.464h12.293V90.129h98.252v77.335h12.293V54.45H166.786Zm110.5,23.771H178.987V66.313h98.252Z" transform="translate(-166.74 -54.45)" fill="#101010"/>
          </g>
        </g>
      </g>
    </g>
  </g>
</svg>
