<svg xmlns="http://www.w3.org/2000/svg" width="18" height="22" viewBox="0 0 18 22">
  <g id="marker_5_" data-name="marker (5)" transform="translate(-2)">
    <path id="Path_1266" data-name="Path 1266" d="M11,0A9.116,9.116,0,0,0,2,9.209C2,14.074,9.56,20.751,10.419,21.5L11,22l.581-.5C12.44,20.751,20,14.074,20,9.209A9.116,9.116,0,0,0,11,0Zm0,13.814a4.553,4.553,0,0,1-4.5-4.6,4.5,4.5,0,1,1,9,0A4.559,4.559,0,0,1,11,13.814Z" fill="#0b9d58"/>
    <circle id="Ellipse_55" data-name="Ellipse 55" cx="3" cy="3" r="3" transform="translate(8 6.261)" fill="#0b9d58"/>
  </g>
</svg>
